<ttFont>
    <TTGlyph name=".notdef" xMin="92" yMin="-220" xMax="628" yMax="1030">
      <contour>
        <pt x="92" y="1030" on="1"/>
        <pt x="628" y="1030" on="1"/>
        <pt x="628" y="-220" on="1"/>
        <pt x="92" y="-220" on="1"/>
      </contour>
      <contour>
        <pt x="553" y="-149" on="1"/>
        <pt x="553" y="960" on="1"/>
        <pt x="166" y="960" on="1"/>
        <pt x="166" y="-149" on="1"/>
      </contour>
    </TTGlyph>
    <TTGlyph name="A" xMin="7" yMin="0" xMax="631" yMax="740">
      <contour>
        <pt x="7" y="6" on="1"/>
        <pt x="256" y="740" on="1"/>
        <pt x="382" y="740" on="1"/>
        <pt x="631" y="6" on="1"/>
        <pt x="631" y="0" on="1"/>
        <pt x="548" y="0" on="1"/>
        <pt x="472" y="222" on="1"/>
        <pt x="165" y="222" on="1"/>
        <pt x="90" y="0" on="1"/>
        <pt x="7" y="0" on="1"/>
      </contour>
      <contour>
        <pt x="451" y="294" on="1"/>
        <pt x="363" y="550" on="1"/>
        <pt x="323" y="673" on="1"/>
        <pt x="315" y="673" on="1"/>
        <pt x="274" y="550" on="1"/>
        <pt x="187" y="294" on="1"/>
      </contour>
    </TTGlyph>
    <TTGlyph name="A.sc" xMin="12" yMin="0" xMax="566" yMax="577">
      <contour>
        <pt x="12" y="5" on="1"/>
        <pt x="228" y="577" on="1"/>
        <pt x="350" y="577" on="1"/>
        <pt x="566" y="5" on="1"/>
        <pt x="566" y="0" on="1"/>
        <pt x="486" y="0" on="1"/>
        <pt x="422" y="164" on="1"/>
        <pt x="155" y="164" on="1"/>
        <pt x="92" y="0" on="1"/>
        <pt x="12" y="0" on="1"/>
      </contour>
      <contour>
        <pt x="403" y="224" on="1"/>
        <pt x="327" y="423" on="1"/>
        <pt x="292" y="516" on="1"/>
        <pt x="285" y="516" on="1"/>
        <pt x="250" y="422" on="1"/>
        <pt x="173" y="224" on="1"/>
      </contour>
    </TTGlyph>
    <TTGlyph name="AE" xMin="5" yMin="0" xMax="799" yMax="740">
      <contour>
        <pt x="5" y="7" on="1"/>
        <pt x="285" y="740" on="1"/>
        <pt x="789" y="740" on="1"/>
        <pt x="789" y="668" on="1"/>
        <pt x="473" y="668" on="1"/>
        <pt x="486" y="410" on="1"/>
        <pt x="763" y="410" on="1"/>
        <pt x="763" y="338" on="1"/>
        <pt x="489" y="338" on="1"/>
        <pt x="503" y="72" on="1"/>
        <pt x="799" y="72" on="1"/>
        <pt x="799" y="0" on="1"/>
        <pt x="419" y="0" on="1"/>
        <pt x="410" y="221" on="1"/>
        <pt x="173" y="221" on="1"/>
        <pt x="89" y="0" on="1"/>
        <pt x="5" y="0" on="1"/>
      </contour>
      <contour>
        <pt x="202" y="295" on="1"/>
        <pt x="407" y="295" on="1"/>
        <pt x="392" y="672" on="1"/>
        <pt x="346" y="672" on="1"/>
      </contour>
    </TTGlyph>
    <TTGlyph name="AE.sc" xMin="13" yMin="0" xMax="717" yMax="577">
      <contour>
        <pt x="13" y="6" on="1"/>
        <pt x="258" y="577" on="1"/>
        <pt x="708" y="577" on="1"/>
        <pt x="708" y="511" on="1"/>
        <pt x="433" y="511" on="1"/>
        <pt x="443" y="323" on="1"/>
        <pt x="685" y="323" on="1"/>
        <pt x="685" y="261" on="1"/>
        <pt x="448" y="261" on="1"/>
        <pt x="459" y="66" on="1"/>
        <pt x="717" y="66" on="1"/>
        <pt x="717" y="0" on="1"/>
        <pt x="378" y="0" on="1"/>
        <pt x="371" y="164" on="1"/>
        <pt x="165" y="164" on="1"/>
        <pt x="95" y="0" on="1"/>
        <pt x="13" y="0" on="1"/>
      </contour>
      <contour>
        <pt x="192" y="225" on="1"/>
        <pt x="368" y="225" on="1"/>
        <pt x="355" y="514" on="1"/>
        <pt x="317" y="514" on="1"/>
      </contour>
    </TTGlyph>
    <TTGlyph name="AEacute" xMin="5" yMin="0" xMax="799" yMax="942">
      <contour>
        <pt x="461" y="801" on="1"/>
        <pt x="535" y="942" on="1"/>
        <pt x="623" y="942" on="1"/>
        <pt x="526" y="795" on="1"/>
      </contour>
      <contour>
        <pt x="5" y="7" on="1"/>
        <pt x="285" y="740" on="1"/>
        <pt x="789" y="740" on="1"/>
        <pt x="789" y="668" on="1"/>
        <pt x="473" y="668" on="1"/>
        <pt x="486" y="410" on="1"/>
        <pt x="763" y="410" on="1"/>
        <pt x="763" y="338" on="1"/>
        <pt x="489" y="338" on="1"/>
        <pt x="503" y="72" on="1"/>
        <pt x="799" y="72" on="1"/>
        <pt x="799" y="0" on="1"/>
        <pt x="419" y="0" on="1"/>
        <pt x="410" y="221" on="1"/>
        <pt x="173" y="221" on="1"/>
        <pt x="89" y="0" on="1"/>
        <pt x="5" y="0" on="1"/>
      </contour>
      <contour>
        <pt x="202" y="295" on="1"/>
        <pt x="407" y="295" on="1"/>
        <pt x="392" y="672" on="1"/>
        <pt x="346" y="672" on="1"/>
      </contour>
    </TTGlyph>
    <TTGlyph name="AEacute.sc" xMin="13" yMin="0" xMax="717" yMax="742">
      <contour>
        <pt x="13" y="6" on="1"/>
        <pt x="258" y="577" on="1"/>
        <pt x="708" y="577" on="1"/>
        <pt x="708" y="511" on="1"/>
        <pt x="433" y="511" on="1"/>
        <pt x="443" y="323" on="1"/>
        <pt x="685" y="323" on="1"/>
        <pt x="685" y="261" on="1"/>
        <pt x="448" y="261" on="1"/>
        <pt x="459" y="66" on="1"/>
        <pt x="717" y="66" on="1"/>
        <pt x="717" y="0" on="1"/>
        <pt x="378" y="0" on="1"/>
        <pt x="371" y="164" on="1"/>
        <pt x="165" y="164" on="1"/>
        <pt x="95" y="0" on="1"/>
        <pt x="13" y="0" on="1"/>
      </contour>
      <contour>
        <pt x="368" y="225" on="1"/>
        <pt x="355" y="514" on="1"/>
        <pt x="317" y="514" on="1"/>
        <pt x="192" y="225" on="1"/>
      </contour>
      <contour>
        <pt x="410" y="627" on="1"/>
        <pt x="474" y="742" on="1"/>
        <pt x="558" y="742" on="1"/>
        <pt x="472" y="622" on="1"/>
      </contour>
    </TTGlyph>
    <TTGlyph name="Aacute" xMin="7" yMin="0" xMax="631" yMax="942">
      <contour>
        <pt x="7" y="6" on="1"/>
        <pt x="256" y="740" on="1"/>
        <pt x="382" y="740" on="1"/>
        <pt x="631" y="6" on="1"/>
        <pt x="631" y="0" on="1"/>
        <pt x="548" y="0" on="1"/>
        <pt x="472" y="222" on="1"/>
        <pt x="165" y="222" on="1"/>
        <pt x="90" y="0" on="1"/>
        <pt x="7" y="0" on="1"/>
      </contour>
      <contour>
        <pt x="451" y="294" on="1"/>
        <pt x="363" y="550" on="1"/>
        <pt x="323" y="673" on="1"/>
        <pt x="315" y="673" on="1"/>
        <pt x="274" y="550" on="1"/>
        <pt x="187" y="294" on="1"/>
      </contour>
      <contour>
        <pt x="282" y="801" on="1"/>
        <pt x="356" y="942" on="1"/>
        <pt x="444" y="942" on="1"/>
        <pt x="347" y="795" on="1"/>
      </contour>
    </TTGlyph>
    <TTGlyph name="Aacute.sc" xMin="12" yMin="0" xMax="566" yMax="742">
      <contour>
        <pt x="12" y="5" on="1"/>
        <pt x="228" y="577" on="1"/>
        <pt x="350" y="577" on="1"/>
        <pt x="566" y="5" on="1"/>
        <pt x="566" y="0" on="1"/>
        <pt x="486" y="0" on="1"/>
        <pt x="422" y="164" on="1"/>
        <pt x="155" y="164" on="1"/>
        <pt x="92" y="0" on="1"/>
        <pt x="12" y="0" on="1"/>
      </contour>
      <contour>
        <pt x="403" y="226" on="1"/>
        <pt x="327" y="423" on="1"/>
        <pt x="292" y="516" on="1"/>
        <pt x="285" y="516" on="1"/>
        <pt x="250" y="422" on="1"/>
        <pt x="174" y="226" on="1"/>
      </contour>
      <contour>
        <pt x="254" y="627" on="1"/>
        <pt x="317" y="742" on="1"/>
        <pt x="402" y="742" on="1"/>
        <pt x="316" y="622" on="1"/>
      </contour>
    </TTGlyph>
    <TTGlyph name="Abreve" xMin="7" yMin="0" xMax="631" yMax="960">
      <contour>
        <pt x="7" y="6" on="1"/>
        <pt x="256" y="740" on="1"/>
        <pt x="382" y="740" on="1"/>
        <pt x="631" y="6" on="1"/>
        <pt x="631" y="0" on="1"/>
        <pt x="548" y="0" on="1"/>
        <pt x="472" y="222" on="1"/>
        <pt x="165" y="222" on="1"/>
        <pt x="90" y="0" on="1"/>
        <pt x="7" y="0" on="1"/>
      </contour>
      <contour>
        <pt x="451" y="294" on="1"/>
        <pt x="363" y="550" on="1"/>
        <pt x="323" y="673" on="1"/>
        <pt x="315" y="673" on="1"/>
        <pt x="274" y="550" on="1"/>
        <pt x="187" y="294" on="1"/>
      </contour>
      <contour>
        <pt x="320" y="812" on="1"/>
        <pt x="235" y="812" on="0"/>
        <pt x="149" y="892" on="0"/>
        <pt x="149" y="960" on="1"/>
        <pt x="213" y="960" on="1"/>
        <pt x="213" y="913" on="0"/>
        <pt x="266" y="863" on="0"/>
        <pt x="320" y="863" on="1"/>
        <pt x="373" y="863" on="0"/>
        <pt x="427" y="913" on="0"/>
        <pt x="427" y="960" on="1"/>
        <pt x="491" y="960" on="1"/>
        <pt x="491" y="892" on="0"/>
        <pt x="405" y="812" on="0"/>
      </contour>
    </TTGlyph>
    <TTGlyph name="Abreve.sc" xMin="12" yMin="0" xMax="566" yMax="753">
      <contour>
        <pt x="290" y="632" on="1"/>
        <pt x="213" y="632" on="0"/>
        <pt x="137" y="698" on="0"/>
        <pt x="137" y="753" on="1"/>
        <pt x="197" y="753" on="1"/>
        <pt x="197" y="678" on="0"/>
        <pt x="290" y="678" on="1"/>
        <pt x="383" y="678" on="0"/>
        <pt x="383" y="753" on="1"/>
        <pt x="442" y="753" on="1"/>
        <pt x="442" y="698" on="0"/>
        <pt x="366" y="632" on="0"/>
      </contour>
      <contour>
        <pt x="12" y="5" on="1"/>
        <pt x="228" y="577" on="1"/>
        <pt x="350" y="577" on="1"/>
        <pt x="566" y="5" on="1"/>
        <pt x="566" y="0" on="1"/>
        <pt x="486" y="0" on="1"/>
        <pt x="422" y="164" on="1"/>
        <pt x="155" y="164" on="1"/>
        <pt x="92" y="0" on="1"/>
        <pt x="12" y="0" on="1"/>
      </contour>
      <contour>
        <pt x="403" y="226" on="1"/>
        <pt x="327" y="423" on="1"/>
        <pt x="292" y="516" on="1"/>
        <pt x="285" y="516" on="1"/>
        <pt x="250" y="422" on="1"/>
        <pt x="174" y="226" on="1"/>
      </contour>
    </TTGlyph>
    <TTGlyph name="Acircumflex" xMin="7" yMin="0" xMax="631" yMax="953">
      <contour>
        <pt x="7" y="6" on="1"/>
        <pt x="256" y="740" on="1"/>
        <pt x="382" y="740" on="1"/>
        <pt x="631" y="6" on="1"/>
        <pt x="631" y="0" on="1"/>
        <pt x="548" y="0" on="1"/>
        <pt x="472" y="222" on="1"/>
        <pt x="165" y="222" on="1"/>
        <pt x="90" y="0" on="1"/>
        <pt x="7" y="0" on="1"/>
      </contour>
      <contour>
        <pt x="451" y="294" on="1"/>
        <pt x="363" y="550" on="1"/>
        <pt x="323" y="673" on="1"/>
        <pt x="315" y="673" on="1"/>
        <pt x="274" y="550" on="1"/>
        <pt x="187" y="294" on="1"/>
      </contour>
      <contour>
        <pt x="165" y="879" on="1"/>
        <pt x="320" y="953" on="1"/>
        <pt x="475" y="879" on="1"/>
        <pt x="475" y="811" on="1"/>
        <pt x="320" y="884" on="1"/>
        <pt x="165" y="811" on="1"/>
      </contour>
    </TTGlyph>
    <TTGlyph name="Acircumflex.sc" xMin="12" yMin="0" xMax="566" yMax="749">
      <contour>
        <pt x="12" y="5" on="1"/>
        <pt x="228" y="577" on="1"/>
        <pt x="350" y="577" on="1"/>
        <pt x="566" y="5" on="1"/>
        <pt x="566" y="0" on="1"/>
        <pt x="486" y="0" on="1"/>
        <pt x="422" y="164" on="1"/>
        <pt x="155" y="164" on="1"/>
        <pt x="92" y="0" on="1"/>
        <pt x="12" y="0" on="1"/>
      </contour>
      <contour>
        <pt x="403" y="226" on="1"/>
        <pt x="327" y="423" on="1"/>
        <pt x="292" y="516" on="1"/>
        <pt x="285" y="516" on="1"/>
        <pt x="250" y="422" on="1"/>
        <pt x="174" y="226" on="1"/>
      </contour>
      <contour>
        <pt x="151" y="691" on="1"/>
        <pt x="290" y="749" on="1"/>
        <pt x="429" y="691" on="1"/>
        <pt x="429" y="630" on="1"/>
        <pt x="290" y="688" on="1"/>
        <pt x="151" y="630" on="1"/>
      </contour>
    </TTGlyph>
    <TTGlyph name="Adblgrave" xMin="7" yMin="0" xMax="631" yMax="938">
      <contour>
        <pt x="7" y="6" on="1"/>
        <pt x="256" y="740" on="1"/>
        <pt x="382" y="740" on="1"/>
        <pt x="631" y="6" on="1"/>
        <pt x="631" y="0" on="1"/>
        <pt x="548" y="0" on="1"/>
        <pt x="472" y="222" on="1"/>
        <pt x="165" y="222" on="1"/>
        <pt x="90" y="0" on="1"/>
        <pt x="7" y="0" on="1"/>
      </contour>
      <contour>
        <pt x="451" y="294" on="1"/>
        <pt x="363" y="550" on="1"/>
        <pt x="323" y="673" on="1"/>
        <pt x="315" y="673" on="1"/>
        <pt x="274" y="550" on="1"/>
        <pt x="187" y="294" on="1"/>
      </contour>
      <contour>
        <pt x="213" y="792" on="1"/>
        <pt x="116" y="938" on="1"/>
        <pt x="198" y="938" on="1"/>
        <pt x="272" y="805" on="1"/>
      </contour>
      <contour>
        <pt x="368" y="792" on="1"/>
        <pt x="270" y="938" on="1"/>
        <pt x="353" y="938" on="1"/>
        <pt x="427" y="805" on="1"/>
      </contour>
    </TTGlyph>
    <TTGlyph name="Adblgrave.sc" xMin="12" yMin="0" xMax="566" yMax="740">
      <contour>
        <pt x="12" y="5" on="1"/>
        <pt x="228" y="577" on="1"/>
        <pt x="350" y="577" on="1"/>
        <pt x="566" y="5" on="1"/>
        <pt x="566" y="0" on="1"/>
        <pt x="486" y="0" on="1"/>
        <pt x="422" y="164" on="1"/>
        <pt x="155" y="164" on="1"/>
        <pt x="92" y="0" on="1"/>
        <pt x="12" y="0" on="1"/>
      </contour>
      <contour>
        <pt x="403" y="226" on="1"/>
        <pt x="327" y="423" on="1"/>
        <pt x="292" y="516" on="1"/>
        <pt x="285" y="516" on="1"/>
        <pt x="250" y="422" on="1"/>
        <pt x="174" y="226" on="1"/>
      </contour>
      <contour>
        <pt x="105" y="740" on="1"/>
        <pt x="184" y="740" on="1"/>
        <pt x="247" y="629" on="1"/>
        <pt x="191" y="619" on="1"/>
      </contour>
      <contour>
        <pt x="244" y="740" on="1"/>
        <pt x="323" y="740" on="1"/>
        <pt x="386" y="629" on="1"/>
        <pt x="330" y="619" on="1"/>
      </contour>
    </TTGlyph>
    <TTGlyph name="Adieresis" xMin="7" yMin="0" xMax="631" yMax="922">
      <contour>
        <pt x="7" y="6" on="1"/>
        <pt x="256" y="740" on="1"/>
        <pt x="382" y="740" on="1"/>
        <pt x="631" y="6" on="1"/>
        <pt x="631" y="0" on="1"/>
        <pt x="548" y="0" on="1"/>
        <pt x="472" y="222" on="1"/>
        <pt x="165" y="222" on="1"/>
        <pt x="90" y="0" on="1"/>
        <pt x="7" y="0" on="1"/>
      </contour>
      <contour>
        <pt x="451" y="294" on="1"/>
        <pt x="363" y="550" on="1"/>
        <pt x="323" y="673" on="1"/>
        <pt x="315" y="673" on="1"/>
        <pt x="274" y="550" on="1"/>
        <pt x="187" y="294" on="1"/>
      </contour>
      <contour>
        <pt x="200" y="816" on="1"/>
        <pt x="146" y="816" on="0"/>
        <pt x="146" y="870" on="1"/>
        <pt x="146" y="922" on="0"/>
        <pt x="200" y="922" on="1"/>
        <pt x="254" y="922" on="0"/>
        <pt x="254" y="870" on="1"/>
        <pt x="254" y="841" on="0"/>
        <pt x="226" y="816" on="0"/>
      </contour>
      <contour>
        <pt x="438" y="816" on="1"/>
        <pt x="384" y="816" on="0"/>
        <pt x="384" y="870" on="1"/>
        <pt x="384" y="922" on="0"/>
        <pt x="438" y="922" on="1"/>
        <pt x="464" y="922" on="0"/>
        <pt x="493" y="897" on="0"/>
        <pt x="493" y="870" on="1"/>
        <pt x="493" y="841" on="0"/>
        <pt x="464" y="816" on="0"/>
      </contour>
    </TTGlyph>
    <TTGlyph name="Adieresis.sc" xMin="12" yMin="0" xMax="566" yMax="731">
      <contour>
        <pt x="182" y="635" on="1"/>
        <pt x="133" y="635" on="0"/>
        <pt x="133" y="683" on="1"/>
        <pt x="133" y="709" on="0"/>
        <pt x="157" y="731" on="0"/>
        <pt x="182" y="731" on="1"/>
        <pt x="234" y="731" on="0"/>
        <pt x="234" y="683" on="1"/>
        <pt x="234" y="635" on="0"/>
      </contour>
      <contour>
        <pt x="396" y="635" on="1"/>
        <pt x="345" y="635" on="0"/>
        <pt x="345" y="683" on="1"/>
        <pt x="345" y="709" on="0"/>
        <pt x="370" y="731" on="0"/>
        <pt x="396" y="731" on="1"/>
        <pt x="446" y="731" on="0"/>
        <pt x="446" y="683" on="1"/>
        <pt x="446" y="635" on="0"/>
      </contour>
      <contour>
        <pt x="12" y="5" on="1"/>
        <pt x="228" y="577" on="1"/>
        <pt x="350" y="577" on="1"/>
        <pt x="566" y="5" on="1"/>
        <pt x="566" y="0" on="1"/>
        <pt x="486" y="0" on="1"/>
        <pt x="422" y="164" on="1"/>
        <pt x="155" y="164" on="1"/>
        <pt x="92" y="0" on="1"/>
        <pt x="12" y="0" on="1"/>
      </contour>
      <contour>
        <pt x="403" y="226" on="1"/>
        <pt x="327" y="423" on="1"/>
        <pt x="292" y="516" on="1"/>
        <pt x="285" y="516" on="1"/>
        <pt x="250" y="422" on="1"/>
        <pt x="174" y="226" on="1"/>
      </contour>
    </TTGlyph>
    <TTGlyph name="Agrave" xMin="7" yMin="0" xMax="631" yMax="942">
      <contour>
        <pt x="7" y="6" on="1"/>
        <pt x="256" y="740" on="1"/>
        <pt x="382" y="740" on="1"/>
        <pt x="631" y="6" on="1"/>
        <pt x="631" y="0" on="1"/>
        <pt x="548" y="0" on="1"/>
        <pt x="472" y="222" on="1"/>
        <pt x="165" y="222" on="1"/>
        <pt x="90" y="0" on="1"/>
        <pt x="7" y="0" on="1"/>
      </contour>
      <contour>
        <pt x="451" y="294" on="1"/>
        <pt x="363" y="550" on="1"/>
        <pt x="323" y="673" on="1"/>
        <pt x="315" y="673" on="1"/>
        <pt x="274" y="550" on="1"/>
        <pt x="187" y="294" on="1"/>
      </contour>
      <contour>
        <pt x="283" y="795" on="1"/>
        <pt x="186" y="942" on="1"/>
        <pt x="274" y="942" on="1"/>
        <pt x="348" y="808" on="1"/>
      </contour>
    </TTGlyph>
    <TTGlyph name="Agrave.sc" xMin="12" yMin="0" xMax="566" yMax="742">
      <contour>
        <pt x="12" y="5" on="1"/>
        <pt x="228" y="577" on="1"/>
        <pt x="350" y="577" on="1"/>
        <pt x="566" y="5" on="1"/>
        <pt x="566" y="0" on="1"/>
        <pt x="486" y="0" on="1"/>
        <pt x="422" y="164" on="1"/>
        <pt x="155" y="164" on="1"/>
        <pt x="92" y="0" on="1"/>
        <pt x="12" y="0" on="1"/>
      </contour>
      <contour>
        <pt x="403" y="226" on="1"/>
        <pt x="327" y="423" on="1"/>
        <pt x="292" y="516" on="1"/>
        <pt x="285" y="516" on="1"/>
        <pt x="250" y="422" on="1"/>
        <pt x="174" y="226" on="1"/>
      </contour>
      <contour>
        <pt x="255" y="622" on="1"/>
        <pt x="169" y="742" on="1"/>
        <pt x="253" y="742" on="1"/>
        <pt x="317" y="631" on="1"/>
      </contour>
    </TTGlyph>
    <TTGlyph name="Ainvertedbreve" xMin="7" yMin="0" xMax="631" yMax="966">
      <contour>
        <pt x="7" y="6" on="1"/>
        <pt x="256" y="740" on="1"/>
        <pt x="382" y="740" on="1"/>
        <pt x="631" y="6" on="1"/>
        <pt x="631" y="0" on="1"/>
        <pt x="548" y="0" on="1"/>
        <pt x="472" y="222" on="1"/>
        <pt x="165" y="222" on="1"/>
        <pt x="90" y="0" on="1"/>
        <pt x="7" y="0" on="1"/>
      </contour>
      <contour>
        <pt x="451" y="294" on="1"/>
        <pt x="363" y="550" on="1"/>
        <pt x="323" y="673" on="1"/>
        <pt x="315" y="673" on="1"/>
        <pt x="274" y="550" on="1"/>
        <pt x="187" y="294" on="1"/>
      </contour>
      <contour>
        <pt x="426" y="818" on="1"/>
        <pt x="426" y="915" on="0"/>
        <pt x="319" y="915" on="1"/>
        <pt x="212" y="915" on="0"/>
        <pt x="212" y="818" on="1"/>
        <pt x="149" y="818" on="1"/>
        <pt x="149" y="886" on="0"/>
        <pt x="234" y="966" on="0"/>
        <pt x="319" y="966" on="1"/>
        <pt x="404" y="966" on="0"/>
        <pt x="490" y="887" on="0"/>
        <pt x="490" y="818" on="1"/>
      </contour>
    </TTGlyph>
    <TTGlyph name="Ainvertedbreve.sc" xMin="12" yMin="0" xMax="566" yMax="758">
      <contour>
        <pt x="137" y="637" on="1"/>
        <pt x="137" y="692" on="0"/>
        <pt x="212" y="758" on="0"/>
        <pt x="289" y="758" on="1"/>
        <pt x="366" y="758" on="0"/>
        <pt x="442" y="693" on="0"/>
        <pt x="442" y="637" on="1"/>
        <pt x="382" y="637" on="1"/>
        <pt x="382" y="712" on="0"/>
        <pt x="289" y="712" on="1"/>
        <pt x="197" y="712" on="0"/>
        <pt x="197" y="637" on="1"/>
      </contour>
      <contour>
        <pt x="12" y="5" on="1"/>
        <pt x="228" y="577" on="1"/>
        <pt x="350" y="577" on="1"/>
        <pt x="566" y="5" on="1"/>
        <pt x="566" y="0" on="1"/>
        <pt x="486" y="0" on="1"/>
        <pt x="422" y="164" on="1"/>
        <pt x="155" y="164" on="1"/>
        <pt x="92" y="0" on="1"/>
        <pt x="12" y="0" on="1"/>
      </contour>
      <contour>
        <pt x="403" y="226" on="1"/>
        <pt x="327" y="423" on="1"/>
        <pt x="292" y="516" on="1"/>
        <pt x="285" y="516" on="1"/>
        <pt x="250" y="422" on="1"/>
        <pt x="174" y="226" on="1"/>
      </contour>
    </TTGlyph>
    <TTGlyph name="Amacron" xMin="7" yMin="0" xMax="631" yMax="904">
      <contour>
        <pt x="7" y="6" on="1"/>
        <pt x="256" y="740" on="1"/>
        <pt x="382" y="740" on="1"/>
        <pt x="631" y="6" on="1"/>
        <pt x="631" y="0" on="1"/>
        <pt x="548" y="0" on="1"/>
        <pt x="472" y="222" on="1"/>
        <pt x="165" y="222" on="1"/>
        <pt x="90" y="0" on="1"/>
        <pt x="7" y="0" on="1"/>
      </contour>
      <contour>
        <pt x="451" y="294" on="1"/>
        <pt x="363" y="550" on="1"/>
        <pt x="323" y="673" on="1"/>
        <pt x="315" y="673" on="1"/>
        <pt x="274" y="550" on="1"/>
        <pt x="187" y="294" on="1"/>
      </contour>
      <contour>
        <pt x="168" y="904" on="1"/>
        <pt x="464" y="904" on="1"/>
        <pt x="464" y="841" on="1"/>
        <pt x="168" y="841" on="1"/>
      </contour>
    </TTGlyph>
    <TTGlyph name="Amacron.sc" xMin="12" yMin="0" xMax="566" yMax="714">
      <contour>
        <pt x="12" y="5" on="1"/>
        <pt x="228" y="577" on="1"/>
        <pt x="350" y="577" on="1"/>
        <pt x="566" y="5" on="1"/>
        <pt x="566" y="0" on="1"/>
        <pt x="486" y="0" on="1"/>
        <pt x="422" y="164" on="1"/>
        <pt x="155" y="164" on="1"/>
        <pt x="92" y="0" on="1"/>
        <pt x="12" y="0" on="1"/>
      </contour>
      <contour>
        <pt x="403" y="226" on="1"/>
        <pt x="327" y="423" on="1"/>
        <pt x="292" y="516" on="1"/>
        <pt x="285" y="516" on="1"/>
        <pt x="250" y="422" on="1"/>
        <pt x="174" y="226" on="1"/>
      </contour>
      <contour>
        <pt x="154" y="714" on="1"/>
        <pt x="420" y="714" on="1"/>
        <pt x="420" y="656" on="1"/>
        <pt x="154" y="656" on="1"/>
      </contour>
    </TTGlyph>
    <TTGlyph name="Aogonek" xMin="7" yMin="-220" xMax="631" yMax="740">
      <contour>
        <pt x="562" y="-220" on="1"/>
        <pt x="460" y="-220" on="0"/>
        <pt x="460" y="-134" on="1"/>
        <pt x="460" y="-96" on="0"/>
        <pt x="507" y="-33" on="0"/>
        <pt x="561" y="0" on="1"/>
        <pt x="548" y="0" on="1"/>
        <pt x="472" y="222" on="1"/>
        <pt x="165" y="222" on="1"/>
        <pt x="90" y="0" on="1"/>
        <pt x="7" y="0" on="1"/>
        <pt x="7" y="6" on="1"/>
        <pt x="256" y="740" on="1"/>
        <pt x="382" y="740" on="1"/>
        <pt x="631" y="6" on="1"/>
        <pt x="631" y="-17" on="1"/>
        <pt x="574" y="-43" on="0"/>
        <pt x="521" y="-100" on="0"/>
        <pt x="521" y="-129" on="1"/>
        <pt x="521" y="-165" on="0"/>
        <pt x="566" y="-165" on="1"/>
        <pt x="580" y="-165" on="0"/>
        <pt x="615" y="-159" on="0"/>
        <pt x="630" y="-154" on="1"/>
        <pt x="630" y="-208" on="1"/>
        <pt x="600" y="-220" on="0"/>
      </contour>
      <contour>
        <pt x="451" y="294" on="1"/>
        <pt x="363" y="550" on="1"/>
        <pt x="323" y="673" on="1"/>
        <pt x="315" y="673" on="1"/>
        <pt x="274" y="550" on="1"/>
        <pt x="187" y="294" on="1"/>
      </contour>
    </TTGlyph>
    <TTGlyph name="Aogonek.sc" xMin="11" yMin="-170" xMax="565" yMax="577">
      <contour>
        <pt x="503" y="-170" on="1"/>
        <pt x="412" y="-170" on="0"/>
        <pt x="412" y="-102" on="1"/>
        <pt x="412" y="-73" on="0"/>
        <pt x="449" y="-25" on="0"/>
        <pt x="493" y="0" on="1"/>
        <pt x="485" y="0" on="1"/>
        <pt x="421" y="164" on="1"/>
        <pt x="155" y="164" on="1"/>
        <pt x="91" y="0" on="1"/>
        <pt x="11" y="0" on="1"/>
        <pt x="11" y="5" on="1"/>
        <pt x="227" y="577" on="1"/>
        <pt x="350" y="577" on="1"/>
        <pt x="565" y="5" on="1"/>
        <pt x="565" y="-10" on="1"/>
        <pt x="514" y="-30" on="0"/>
        <pt x="469" y="-70" on="0"/>
        <pt x="469" y="-92" on="1"/>
        <pt x="469" y="-108" on="0"/>
        <pt x="489" y="-120" on="0"/>
        <pt x="507" y="-120" on="1"/>
        <pt x="521" y="-120" on="0"/>
        <pt x="553" y="-116" on="0"/>
        <pt x="565" y="-111" on="1"/>
        <pt x="565" y="-160" on="1"/>
        <pt x="551" y="-165" on="0"/>
        <pt x="519" y="-170" on="0"/>
      </contour>
      <contour>
        <pt x="402" y="226" on="1"/>
        <pt x="327" y="426" on="1"/>
        <pt x="291" y="516" on="1"/>
        <pt x="284" y="516" on="1"/>
        <pt x="250" y="426" on="1"/>
        <pt x="172" y="226" on="1"/>
      </contour>
    </TTGlyph>
    <TTGlyph name="Aring" xMin="7" yMin="0" xMax="631" yMax="975">
      <contour>
        <pt x="7" y="6" on="1"/>
        <pt x="256" y="740" on="1"/>
        <pt x="382" y="740" on="1"/>
        <pt x="631" y="6" on="1"/>
        <pt x="631" y="0" on="1"/>
        <pt x="548" y="0" on="1"/>
        <pt x="472" y="222" on="1"/>
        <pt x="165" y="222" on="1"/>
        <pt x="90" y="0" on="1"/>
        <pt x="7" y="0" on="1"/>
      </contour>
      <contour>
        <pt x="451" y="294" on="1"/>
        <pt x="363" y="550" on="1"/>
        <pt x="323" y="673" on="1"/>
        <pt x="315" y="673" on="1"/>
        <pt x="274" y="550" on="1"/>
        <pt x="187" y="294" on="1"/>
      </contour>
      <contour>
        <pt x="320" y="761" on="1"/>
        <pt x="269" y="761" on="0"/>
        <pt x="207" y="822" on="0"/>
        <pt x="207" y="868" on="1"/>
        <pt x="207" y="914" on="0"/>
        <pt x="269" y="975" on="0"/>
        <pt x="320" y="975" on="1"/>
        <pt x="371" y="975" on="0"/>
        <pt x="432" y="914" on="0"/>
        <pt x="432" y="868" on="1"/>
        <pt x="432" y="822" on="0"/>
        <pt x="370" y="761" on="0"/>
      </contour>
      <contour>
        <pt x="320" y="804" on="1"/>
        <pt x="352" y="804" on="0"/>
        <pt x="386" y="839" on="0"/>
        <pt x="386" y="868" on="1"/>
        <pt x="386" y="898" on="0"/>
        <pt x="352" y="932" on="0"/>
        <pt x="320" y="932" on="1"/>
        <pt x="286" y="932" on="0"/>
        <pt x="253" y="898" on="0"/>
        <pt x="253" y="868" on="1"/>
        <pt x="253" y="839" on="0"/>
        <pt x="286" y="804" on="0"/>
      </contour>
    </TTGlyph>
    <TTGlyph name="Aring.sc" xMin="12" yMin="0" xMax="566" yMax="788">
      <contour>
        <pt x="12" y="5" on="1"/>
        <pt x="228" y="577" on="1"/>
        <pt x="350" y="577" on="1"/>
        <pt x="566" y="5" on="1"/>
        <pt x="566" y="0" on="1"/>
        <pt x="486" y="0" on="1"/>
        <pt x="422" y="164" on="1"/>
        <pt x="155" y="164" on="1"/>
        <pt x="92" y="0" on="1"/>
        <pt x="12" y="0" on="1"/>
      </contour>
      <contour>
        <pt x="403" y="226" on="1"/>
        <pt x="327" y="423" on="1"/>
        <pt x="292" y="516" on="1"/>
        <pt x="285" y="516" on="1"/>
        <pt x="250" y="422" on="1"/>
        <pt x="174" y="226" on="1"/>
      </contour>
      <contour>
        <pt x="289" y="618" on="1"/>
        <pt x="244" y="618" on="0"/>
        <pt x="189" y="666" on="0"/>
        <pt x="189" y="702" on="1"/>
        <pt x="189" y="739" on="0"/>
        <pt x="244" y="788" on="0"/>
        <pt x="289" y="788" on="1"/>
        <pt x="334" y="788" on="0"/>
        <pt x="389" y="739" on="0"/>
        <pt x="389" y="702" on="1"/>
        <pt x="389" y="666" on="0"/>
        <pt x="334" y="618" on="0"/>
      </contour>
      <contour>
        <pt x="289" y="654" on="1"/>
        <pt x="318" y="654" on="0"/>
        <pt x="347" y="679" on="0"/>
        <pt x="347" y="702" on="1"/>
        <pt x="347" y="751" on="0"/>
        <pt x="289" y="751" on="1"/>
        <pt x="231" y="751" on="0"/>
        <pt x="231" y="702" on="1"/>
        <pt x="231" y="679" on="0"/>
        <pt x="260" y="654" on="0"/>
      </contour>
    </TTGlyph>
    <TTGlyph name="Aringacute" xMin="7" yMin="0" xMax="631" yMax="962">
      <contour>
        <pt x="7" y="6" on="1"/>
        <pt x="230" y="657" on="1"/>
        <pt x="188" y="687" on="0"/>
        <pt x="188" y="743" on="1"/>
        <pt x="188" y="788" on="0"/>
        <pt x="244" y="851" on="0"/>
        <pt x="292" y="859" on="1"/>
        <pt x="352" y="962" on="1"/>
        <pt x="440" y="962" on="1"/>
        <pt x="367" y="853" on="1"/>
        <pt x="405" y="841" on="0"/>
        <pt x="449" y="782" on="0"/>
        <pt x="449" y="743" on="1"/>
        <pt x="449" y="717" on="0"/>
        <pt x="428" y="672" on="0"/>
        <pt x="409" y="658" on="1"/>
        <pt x="631" y="6" on="1"/>
        <pt x="631" y="0" on="1"/>
        <pt x="549" y="0" on="1"/>
        <pt x="473" y="221" on="1"/>
        <pt x="166" y="221" on="1"/>
        <pt x="90" y="0" on="1"/>
        <pt x="7" y="0" on="1"/>
      </contour>
      <contour>
        <pt x="318" y="676" on="1"/>
        <pt x="351" y="676" on="0"/>
        <pt x="391" y="714" on="0"/>
        <pt x="391" y="743" on="1"/>
        <pt x="391" y="773" on="0"/>
        <pt x="352" y="810" on="0"/>
        <pt x="318" y="810" on="1"/>
        <pt x="284" y="810" on="0"/>
        <pt x="247" y="773" on="0"/>
        <pt x="247" y="743" on="1"/>
        <pt x="247" y="714" on="0"/>
        <pt x="285" y="676" on="0"/>
      </contour>
      <contour>
        <pt x="450" y="295" on="1"/>
        <pt x="365" y="550" on="1"/>
        <pt x="340" y="623" on="1"/>
        <pt x="299" y="623" on="1"/>
        <pt x="274" y="550" on="1"/>
        <pt x="188" y="295" on="1"/>
      </contour>
    </TTGlyph>
    <TTGlyph name="Aringacute.sc" xMin="12" yMin="0" xMax="566" yMax="760">
      <contour>
        <pt x="12" y="5" on="1"/>
        <pt x="206" y="516" on="1"/>
        <pt x="171" y="539" on="0"/>
        <pt x="171" y="582" on="1"/>
        <pt x="171" y="619" on="0"/>
        <pt x="219" y="671" on="0"/>
        <pt x="263" y="676" on="1"/>
        <pt x="314" y="760" on="1"/>
        <pt x="398" y="760" on="1"/>
        <pt x="334" y="671" on="1"/>
        <pt x="368" y="661" on="0"/>
        <pt x="407" y="614" on="0"/>
        <pt x="407" y="582" on="1"/>
        <pt x="407" y="541" on="0"/>
        <pt x="372" y="516" on="1"/>
        <pt x="566" y="5" on="1"/>
        <pt x="566" y="0" on="1"/>
        <pt x="486" y="0" on="1"/>
        <pt x="422" y="164" on="1"/>
        <pt x="155" y="164" on="1"/>
        <pt x="92" y="0" on="1"/>
        <pt x="12" y="0" on="1"/>
      </contour>
      <contour>
        <pt x="288" y="532" on="1"/>
        <pt x="318" y="532" on="0"/>
        <pt x="352" y="560" on="0"/>
        <pt x="352" y="582" on="1"/>
        <pt x="352" y="606" on="0"/>
        <pt x="318" y="634" on="0"/>
        <pt x="288" y="634" on="1"/>
        <pt x="258" y="634" on="0"/>
        <pt x="225" y="606" on="0"/>
        <pt x="225" y="582" on="1"/>
        <pt x="225" y="559" on="0"/>
        <pt x="259" y="532" on="0"/>
      </contour>
      <contour>
        <pt x="404" y="226" on="1"/>
        <pt x="327" y="423" on="1"/>
        <pt x="306" y="483" on="1"/>
        <pt x="271" y="483" on="1"/>
        <pt x="251" y="422" on="1"/>
        <pt x="174" y="226" on="1"/>
      </contour>
    </TTGlyph>
    <TTGlyph name="Atilde" xMin="7" yMin="0" xMax="631" yMax="930">
      <contour>
        <pt x="7" y="6" on="1"/>
        <pt x="256" y="740" on="1"/>
        <pt x="382" y="740" on="1"/>
        <pt x="631" y="6" on="1"/>
        <pt x="631" y="0" on="1"/>
        <pt x="548" y="0" on="1"/>
        <pt x="472" y="222" on="1"/>
        <pt x="165" y="222" on="1"/>
        <pt x="90" y="0" on="1"/>
        <pt x="7" y="0" on="1"/>
      </contour>
      <contour>
        <pt x="451" y="294" on="1"/>
        <pt x="363" y="550" on="1"/>
        <pt x="323" y="673" on="1"/>
        <pt x="315" y="673" on="1"/>
        <pt x="274" y="550" on="1"/>
        <pt x="187" y="294" on="1"/>
      </contour>
      <contour>
        <pt x="138" y="856" on="1"/>
        <pt x="163" y="891" on="0"/>
        <pt x="226" y="930" on="0"/>
        <pt x="256" y="930" on="1"/>
        <pt x="278" y="930" on="0"/>
        <pt x="317" y="917" on="0"/>
        <pt x="354" y="901" on="0"/>
        <pt x="391" y="888" on="0"/>
        <pt x="412" y="888" on="1"/>
        <pt x="452" y="888" on="0"/>
        <pt x="491" y="927" on="1"/>
        <pt x="516" y="902" on="1"/>
        <pt x="493" y="866" on="0"/>
        <pt x="428" y="827" on="0"/>
        <pt x="396" y="827" on="1"/>
        <pt x="375" y="827" on="0"/>
        <pt x="337" y="839" on="0"/>
        <pt x="300" y="854" on="0"/>
        <pt x="262" y="867" on="0"/>
        <pt x="243" y="867" on="1"/>
        <pt x="200" y="867" on="0"/>
        <pt x="162" y="830" on="1"/>
      </contour>
    </TTGlyph>
    <TTGlyph name="Atilde.sc" xMin="12" yMin="0" xMax="566" yMax="733">
      <contour>
        <pt x="12" y="5" on="1"/>
        <pt x="228" y="577" on="1"/>
        <pt x="350" y="577" on="1"/>
        <pt x="566" y="5" on="1"/>
        <pt x="566" y="0" on="1"/>
        <pt x="486" y="0" on="1"/>
        <pt x="422" y="164" on="1"/>
        <pt x="155" y="164" on="1"/>
        <pt x="92" y="0" on="1"/>
        <pt x="12" y="0" on="1"/>
      </contour>
      <contour>
        <pt x="403" y="226" on="1"/>
        <pt x="327" y="423" on="1"/>
        <pt x="292" y="516" on="1"/>
        <pt x="285" y="516" on="1"/>
        <pt x="250" y="422" on="1"/>
        <pt x="174" y="226" on="1"/>
      </contour>
      <contour>
        <pt x="128" y="668" on="1"/>
        <pt x="150" y="699" on="0"/>
        <pt x="206" y="733" on="0"/>
        <pt x="234" y="733" on="1"/>
        <pt x="253" y="733" on="0"/>
        <pt x="288" y="723" on="0"/>
        <pt x="321" y="712" on="0"/>
        <pt x="354" y="702" on="0"/>
        <pt x="372" y="702" on="1"/>
        <pt x="408" y="702" on="0"/>
        <pt x="444" y="731" on="1"/>
        <pt x="465" y="711" on="1"/>
        <pt x="444" y="679" on="0"/>
        <pt x="386" y="644" on="0"/>
        <pt x="357" y="644" on="1"/>
        <pt x="339" y="644" on="0"/>
        <pt x="304" y="654" on="0"/>
        <pt x="270" y="666" on="0"/>
        <pt x="237" y="676" on="0"/>
        <pt x="220" y="676" on="1"/>
        <pt x="181" y="676" on="0"/>
        <pt x="148" y="646" on="1"/>
      </contour>
    </TTGlyph>
    <TTGlyph name="B" xMin="84" yMin="-10" xMax="584" yMax="749">
      <contour>
        <pt x="306" y="-10" on="1"/>
        <pt x="254" y="-10" on="0"/>
        <pt x="137" y="-2" on="0"/>
        <pt x="84" y="5" on="1"/>
        <pt x="84" y="736" on="1"/>
        <pt x="153" y="743" on="0"/>
        <pt x="249" y="749" on="0"/>
        <pt x="295" y="749" on="1"/>
        <pt x="434" y="749" on="0"/>
        <pt x="561" y="654" on="0"/>
        <pt x="561" y="549" on="1"/>
        <pt x="561" y="481" on="0"/>
        <pt x="496" y="392" on="0"/>
        <pt x="439" y="380" on="1"/>
        <pt x="439" y="376" on="1"/>
        <pt x="509" y="363" on="0"/>
        <pt x="584" y="270" on="0"/>
        <pt x="584" y="195" on="1"/>
        <pt x="584" y="-10" on="0"/>
      </contour>
      <contour>
        <pt x="309" y="56" on="1"/>
        <pt x="498" y="57" on="0"/>
        <pt x="498" y="200" on="1"/>
        <pt x="498" y="274" on="0"/>
        <pt x="409" y="342" on="0"/>
        <pt x="311" y="342" on="1"/>
        <pt x="165" y="342" on="1"/>
        <pt x="165" y="66" on="1"/>
        <pt x="185" y="61" on="0"/>
        <pt x="262" y="56" on="0"/>
      </contour>
      <contour>
        <pt x="307" y="407" on="1"/>
        <pt x="398" y="407" on="0"/>
        <pt x="474" y="470" on="0"/>
        <pt x="474" y="545" on="1"/>
        <pt x="474" y="618" on="0"/>
        <pt x="393" y="682" on="0"/>
        <pt x="300" y="682" on="1"/>
        <pt x="259" y="682" on="0"/>
        <pt x="196" y="679" on="0"/>
        <pt x="165" y="674" on="1"/>
        <pt x="165" y="407" on="1"/>
      </contour>
    </TTGlyph>
    <TTGlyph name="B.sc" xMin="79" yMin="-8" xMax="523" yMax="584">
      <contour>
        <pt x="277" y="-8" on="1"/>
        <pt x="231" y="-8" on="0"/>
        <pt x="128" y="-2" on="0"/>
        <pt x="79" y="4" on="1"/>
        <pt x="79" y="574" on="1"/>
        <pt x="140" y="579" on="0"/>
        <pt x="226" y="584" on="0"/>
        <pt x="267" y="584" on="1"/>
        <pt x="391" y="584" on="0"/>
        <pt x="503" y="509" on="0"/>
        <pt x="503" y="427" on="1"/>
        <pt x="503" y="375" on="0"/>
        <pt x="446" y="307" on="0"/>
        <pt x="394" y="296" on="1"/>
        <pt x="394" y="293" on="1"/>
        <pt x="457" y="282" on="0"/>
        <pt x="523" y="211" on="0"/>
        <pt x="523" y="153" on="1"/>
        <pt x="523" y="-8" on="0"/>
      </contour>
      <contour>
        <pt x="280" y="53" on="1"/>
        <pt x="441" y="53" on="0"/>
        <pt x="441" y="159" on="1"/>
        <pt x="441" y="213" on="0"/>
        <pt x="367" y="263" on="0"/>
        <pt x="284" y="263" on="1"/>
        <pt x="157" y="263" on="1"/>
        <pt x="157" y="60" on="1"/>
        <pt x="174" y="57" on="0"/>
        <pt x="238" y="53" on="0"/>
      </contour>
      <contour>
        <pt x="280" y="320" on="1"/>
        <pt x="357" y="320" on="0"/>
        <pt x="421" y="366" on="0"/>
        <pt x="421" y="423" on="1"/>
        <pt x="421" y="477" on="0"/>
        <pt x="352" y="523" on="0"/>
        <pt x="272" y="523" on="1"/>
        <pt x="238" y="523" on="0"/>
        <pt x="183" y="520" on="0"/>
        <pt x="157" y="517" on="1"/>
        <pt x="157" y="320" on="1"/>
      </contour>
    </TTGlyph>
    <TTGlyph name="C" xMin="48" yMin="-9" xMax="519" yMax="749">
      <contour>
        <pt x="373" y="-9" on="1"/>
        <pt x="208" y="-8" on="0"/>
        <pt x="48" y="176" on="0"/>
        <pt x="48" y="369" on="1"/>
        <pt x="48" y="565" on="0"/>
        <pt x="208" y="749" on="0"/>
        <pt x="372" y="749" on="1"/>
        <pt x="403" y="749" on="0"/>
        <pt x="480" y="742" on="0"/>
        <pt x="519" y="734" on="1"/>
        <pt x="519" y="662" on="1"/>
        <pt x="440" y="676" on="0"/>
        <pt x="382" y="676" on="1"/>
        <pt x="317" y="676" on="0"/>
        <pt x="224" y="641" on="0"/>
        <pt x="164" y="567" on="0"/>
        <pt x="136" y="451" on="0"/>
        <pt x="136" y="369" on="1"/>
        <pt x="136" y="209" on="0"/>
        <pt x="251" y="64" on="0"/>
        <pt x="376" y="64" on="1"/>
        <pt x="389" y="64" on="0"/>
        <pt x="427" y="66" on="0"/>
        <pt x="467" y="71" on="0"/>
        <pt x="505" y="77" on="0"/>
        <pt x="519" y="80" on="1"/>
        <pt x="519" y="9" on="1"/>
        <pt x="489" y="1" on="0"/>
        <pt x="409" y="-9" on="0"/>
      </contour>
    </TTGlyph>
    <TTGlyph name="C.sc" xMin="48" yMin="-8" xMax="463" yMax="585">
      <contour>
        <pt x="333" y="-8" on="1"/>
        <pt x="188" y="-7" on="0"/>
        <pt x="48" y="138" on="0"/>
        <pt x="48" y="288" on="1"/>
        <pt x="48" y="440" on="0"/>
        <pt x="187" y="585" on="0"/>
        <pt x="331" y="585" on="1"/>
        <pt x="360" y="585" on="0"/>
        <pt x="428" y="578" on="0"/>
        <pt x="463" y="573" on="1"/>
        <pt x="463" y="505" on="1"/>
        <pt x="430" y="510" on="0"/>
        <pt x="368" y="516" on="0"/>
        <pt x="341" y="516" on="1"/>
        <pt x="230" y="516" on="0"/>
        <pt x="132" y="410" on="0"/>
        <pt x="132" y="288" on="1"/>
        <pt x="132" y="168" on="0"/>
        <pt x="229" y="62" on="0"/>
        <pt x="336" y="62" on="1"/>
        <pt x="348" y="62" on="0"/>
        <pt x="382" y="64" on="0"/>
        <pt x="417" y="67" on="0"/>
        <pt x="450" y="72" on="0"/>
        <pt x="463" y="74" on="1"/>
        <pt x="463" y="8" on="1"/>
        <pt x="437" y="1" on="0"/>
        <pt x="365" y="-8" on="0"/>
      </contour>
    </TTGlyph>
    <TTGlyph name="Cacute" xMin="48" yMin="-9" xMax="519" yMax="942">
      <contour>
        <pt x="373" y="-9" on="1"/>
        <pt x="208" y="-8" on="0"/>
        <pt x="48" y="176" on="0"/>
        <pt x="48" y="369" on="1"/>
        <pt x="48" y="565" on="0"/>
        <pt x="208" y="749" on="0"/>
        <pt x="372" y="749" on="1"/>
        <pt x="403" y="749" on="0"/>
        <pt x="480" y="742" on="0"/>
        <pt x="519" y="734" on="1"/>
        <pt x="519" y="662" on="1"/>
        <pt x="440" y="676" on="0"/>
        <pt x="382" y="676" on="1"/>
        <pt x="317" y="676" on="0"/>
        <pt x="224" y="641" on="0"/>
        <pt x="164" y="567" on="0"/>
        <pt x="136" y="451" on="0"/>
        <pt x="136" y="369" on="1"/>
        <pt x="136" y="209" on="0"/>
        <pt x="251" y="64" on="0"/>
        <pt x="376" y="64" on="1"/>
        <pt x="389" y="64" on="0"/>
        <pt x="427" y="66" on="0"/>
        <pt x="467" y="71" on="0"/>
        <pt x="505" y="77" on="0"/>
        <pt x="519" y="80" on="1"/>
        <pt x="519" y="9" on="1"/>
        <pt x="489" y="1" on="0"/>
        <pt x="409" y="-9" on="0"/>
      </contour>
      <contour>
        <pt x="292" y="801" on="1"/>
        <pt x="366" y="942" on="1"/>
        <pt x="454" y="942" on="1"/>
        <pt x="357" y="795" on="1"/>
      </contour>
    </TTGlyph>
    <TTGlyph name="Cacute.sc" xMin="48" yMin="-8" xMax="463" yMax="742">
      <contour>
        <pt x="333" y="-8" on="1"/>
        <pt x="188" y="-7" on="0"/>
        <pt x="48" y="138" on="0"/>
        <pt x="48" y="288" on="1"/>
        <pt x="48" y="440" on="0"/>
        <pt x="187" y="585" on="0"/>
        <pt x="331" y="585" on="1"/>
        <pt x="358" y="585" on="0"/>
        <pt x="427" y="578" on="0"/>
        <pt x="463" y="573" on="1"/>
        <pt x="463" y="505" on="1"/>
        <pt x="426" y="510" on="0"/>
        <pt x="366" y="516" on="0"/>
        <pt x="340" y="516" on="1"/>
        <pt x="285" y="516" on="0"/>
        <pt x="207" y="491" on="0"/>
        <pt x="156" y="436" on="0"/>
        <pt x="132" y="349" on="0"/>
        <pt x="132" y="288" on="1"/>
        <pt x="132" y="168" on="0"/>
        <pt x="229" y="62" on="0"/>
        <pt x="336" y="62" on="1"/>
        <pt x="348" y="62" on="0"/>
        <pt x="381" y="64" on="0"/>
        <pt x="416" y="67" on="0"/>
        <pt x="450" y="72" on="0"/>
        <pt x="463" y="74" on="1"/>
        <pt x="463" y="8" on="1"/>
        <pt x="436" y="1" on="0"/>
        <pt x="365" y="-8" on="0"/>
      </contour>
      <contour>
        <pt x="258" y="627" on="1"/>
        <pt x="322" y="742" on="1"/>
        <pt x="406" y="742" on="1"/>
        <pt x="320" y="622" on="1"/>
      </contour>
    </TTGlyph>
    <TTGlyph name="Ccaron" xMin="48" yMin="-9" xMax="519" yMax="946">
      <contour>
        <pt x="373" y="-9" on="1"/>
        <pt x="208" y="-8" on="0"/>
        <pt x="48" y="176" on="0"/>
        <pt x="48" y="369" on="1"/>
        <pt x="48" y="565" on="0"/>
        <pt x="208" y="749" on="0"/>
        <pt x="372" y="749" on="1"/>
        <pt x="403" y="749" on="0"/>
        <pt x="480" y="742" on="0"/>
        <pt x="519" y="734" on="1"/>
        <pt x="519" y="662" on="1"/>
        <pt x="440" y="676" on="0"/>
        <pt x="382" y="676" on="1"/>
        <pt x="317" y="676" on="0"/>
        <pt x="224" y="641" on="0"/>
        <pt x="164" y="567" on="0"/>
        <pt x="136" y="451" on="0"/>
        <pt x="136" y="369" on="1"/>
        <pt x="136" y="209" on="0"/>
        <pt x="251" y="64" on="0"/>
        <pt x="376" y="64" on="1"/>
        <pt x="389" y="64" on="0"/>
        <pt x="427" y="66" on="0"/>
        <pt x="467" y="71" on="0"/>
        <pt x="505" y="77" on="0"/>
        <pt x="519" y="80" on="1"/>
        <pt x="519" y="9" on="1"/>
        <pt x="489" y="1" on="0"/>
        <pt x="409" y="-9" on="0"/>
      </contour>
      <contour>
        <pt x="178" y="946" on="1"/>
        <pt x="333" y="872" on="1"/>
        <pt x="488" y="946" on="1"/>
        <pt x="488" y="877" on="1"/>
        <pt x="332" y="804" on="1"/>
        <pt x="178" y="877" on="1"/>
      </contour>
    </TTGlyph>
    <TTGlyph name="Ccaron.sc" xMin="48" yMin="-8" xMax="463" yMax="745">
      <contour>
        <pt x="333" y="-8" on="1"/>
        <pt x="188" y="-7" on="0"/>
        <pt x="48" y="138" on="0"/>
        <pt x="48" y="288" on="1"/>
        <pt x="48" y="440" on="0"/>
        <pt x="187" y="585" on="0"/>
        <pt x="331" y="585" on="1"/>
        <pt x="358" y="585" on="0"/>
        <pt x="427" y="578" on="0"/>
        <pt x="463" y="573" on="1"/>
        <pt x="463" y="505" on="1"/>
        <pt x="426" y="510" on="0"/>
        <pt x="366" y="516" on="0"/>
        <pt x="340" y="516" on="1"/>
        <pt x="285" y="516" on="0"/>
        <pt x="207" y="491" on="0"/>
        <pt x="156" y="436" on="0"/>
        <pt x="132" y="349" on="0"/>
        <pt x="132" y="288" on="1"/>
        <pt x="132" y="168" on="0"/>
        <pt x="229" y="62" on="0"/>
        <pt x="336" y="62" on="1"/>
        <pt x="348" y="62" on="0"/>
        <pt x="381" y="64" on="0"/>
        <pt x="416" y="67" on="0"/>
        <pt x="450" y="72" on="0"/>
        <pt x="463" y="74" on="1"/>
        <pt x="463" y="8" on="1"/>
        <pt x="436" y="1" on="0"/>
        <pt x="365" y="-8" on="0"/>
      </contour>
      <contour>
        <pt x="158" y="745" on="1"/>
        <pt x="297" y="688" on="1"/>
        <pt x="436" y="745" on="1"/>
        <pt x="436" y="684" on="1"/>
        <pt x="296" y="626" on="1"/>
        <pt x="158" y="684" on="1"/>
      </contour>
    </TTGlyph>
    <TTGlyph name="Ccedilla" xMin="48" yMin="-220" xMax="519" yMax="749">
      <contour>
        <pt x="296" y="-220" on="1"/>
        <pt x="278" y="-220" on="0"/>
        <pt x="235" y="-214" on="0"/>
        <pt x="215" y="-209" on="1"/>
        <pt x="215" y="-150" on="1"/>
        <pt x="245" y="-161" on="0"/>
        <pt x="280" y="-161" on="1"/>
        <pt x="316" y="-161" on="0"/>
        <pt x="349" y="-133" on="0"/>
        <pt x="349" y="-102" on="1"/>
        <pt x="349" y="-80" on="0"/>
        <pt x="332" y="-34" on="0"/>
        <pt x="314" y="-5" on="1"/>
        <pt x="179" y="11" on="0"/>
        <pt x="48" y="194" on="0"/>
        <pt x="48" y="369" on="1"/>
        <pt x="48" y="565" on="0"/>
        <pt x="208" y="749" on="0"/>
        <pt x="372" y="749" on="1"/>
        <pt x="403" y="749" on="0"/>
        <pt x="480" y="742" on="0"/>
        <pt x="519" y="734" on="1"/>
        <pt x="519" y="662" on="1"/>
        <pt x="440" y="676" on="0"/>
        <pt x="382" y="676" on="1"/>
        <pt x="317" y="676" on="0"/>
        <pt x="224" y="641" on="0"/>
        <pt x="164" y="567" on="0"/>
        <pt x="136" y="451" on="0"/>
        <pt x="136" y="369" on="1"/>
        <pt x="136" y="209" on="0"/>
        <pt x="251" y="64" on="0"/>
        <pt x="376" y="64" on="1"/>
        <pt x="389" y="64" on="0"/>
        <pt x="427" y="66" on="0"/>
        <pt x="467" y="71" on="0"/>
        <pt x="505" y="77" on="0"/>
        <pt x="519" y="80" on="1"/>
        <pt x="519" y="9" on="1"/>
        <pt x="490" y="1" on="0"/>
        <pt x="414" y="-8" on="0"/>
        <pt x="379" y="-9" on="1"/>
        <pt x="398" y="-40" on="0"/>
        <pt x="412" y="-86" on="0"/>
        <pt x="412" y="-109" on="1"/>
        <pt x="412" y="-163" on="0"/>
        <pt x="352" y="-220" on="0"/>
      </contour>
    </TTGlyph>
    <TTGlyph name="Ccedilla.sc" xMin="48" yMin="-172" xMax="463" yMax="585">
      <contour>
        <pt x="267" y="-172" on="1"/>
        <pt x="252" y="-172" on="0"/>
        <pt x="214" y="-168" on="0"/>
        <pt x="194" y="-163" on="1"/>
        <pt x="194" y="-110" on="1"/>
        <pt x="226" y="-118" on="0"/>
        <pt x="254" y="-118" on="1"/>
        <pt x="285" y="-118" on="0"/>
        <pt x="310" y="-96" on="0"/>
        <pt x="310" y="-73" on="1"/>
        <pt x="310" y="-48" on="0"/>
        <pt x="284" y="-5" on="1"/>
        <pt x="48" y="16" on="0"/>
        <pt x="48" y="288" on="1"/>
        <pt x="48" y="440" on="0"/>
        <pt x="187" y="585" on="0"/>
        <pt x="331" y="585" on="1"/>
        <pt x="358" y="585" on="0"/>
        <pt x="427" y="578" on="0"/>
        <pt x="463" y="573" on="1"/>
        <pt x="463" y="505" on="1"/>
        <pt x="426" y="510" on="0"/>
        <pt x="366" y="516" on="0"/>
        <pt x="341" y="516" on="1"/>
        <pt x="231" y="516" on="0"/>
        <pt x="132" y="411" on="0"/>
        <pt x="132" y="288" on="1"/>
        <pt x="132" y="168" on="0"/>
        <pt x="229" y="62" on="0"/>
        <pt x="336" y="62" on="1"/>
        <pt x="348" y="62" on="0"/>
        <pt x="382" y="64" on="0"/>
        <pt x="417" y="67" on="0"/>
        <pt x="450" y="72" on="0"/>
        <pt x="463" y="74" on="1"/>
        <pt x="463" y="8" on="1"/>
        <pt x="437" y="1" on="0"/>
        <pt x="373" y="-7" on="0"/>
        <pt x="344" y="-7" on="1"/>
        <pt x="358" y="-31" on="0"/>
        <pt x="369" y="-67" on="0"/>
        <pt x="369" y="-84" on="1"/>
        <pt x="369" y="-126" on="0"/>
        <pt x="317" y="-172" on="0"/>
      </contour>
    </TTGlyph>
    <TTGlyph name="Ccircumflex" xMin="48" yMin="-9" xMax="519" yMax="953">
      <contour>
        <pt x="373" y="-9" on="1"/>
        <pt x="208" y="-8" on="0"/>
        <pt x="48" y="176" on="0"/>
        <pt x="48" y="369" on="1"/>
        <pt x="48" y="565" on="0"/>
        <pt x="208" y="749" on="0"/>
        <pt x="372" y="749" on="1"/>
        <pt x="403" y="749" on="0"/>
        <pt x="480" y="742" on="0"/>
        <pt x="519" y="734" on="1"/>
        <pt x="519" y="662" on="1"/>
        <pt x="440" y="676" on="0"/>
        <pt x="382" y="676" on="1"/>
        <pt x="317" y="676" on="0"/>
        <pt x="224" y="641" on="0"/>
        <pt x="164" y="567" on="0"/>
        <pt x="136" y="451" on="0"/>
        <pt x="136" y="369" on="1"/>
        <pt x="136" y="209" on="0"/>
        <pt x="251" y="64" on="0"/>
        <pt x="376" y="64" on="1"/>
        <pt x="389" y="64" on="0"/>
        <pt x="427" y="66" on="0"/>
        <pt x="467" y="71" on="0"/>
        <pt x="505" y="77" on="0"/>
        <pt x="519" y="80" on="1"/>
        <pt x="519" y="9" on="1"/>
        <pt x="489" y="1" on="0"/>
        <pt x="409" y="-9" on="0"/>
      </contour>
      <contour>
        <pt x="175" y="879" on="1"/>
        <pt x="330" y="953" on="1"/>
        <pt x="485" y="879" on="1"/>
        <pt x="485" y="811" on="1"/>
        <pt x="330" y="884" on="1"/>
        <pt x="175" y="811" on="1"/>
      </contour>
    </TTGlyph>
    <TTGlyph name="Ccircumflex.sc" xMin="48" yMin="-8" xMax="463" yMax="749">
      <contour>
        <pt x="333" y="-8" on="1"/>
        <pt x="188" y="-7" on="0"/>
        <pt x="48" y="138" on="0"/>
        <pt x="48" y="288" on="1"/>
        <pt x="48" y="440" on="0"/>
        <pt x="187" y="585" on="0"/>
        <pt x="331" y="585" on="1"/>
        <pt x="358" y="585" on="0"/>
        <pt x="427" y="578" on="0"/>
        <pt x="463" y="573" on="1"/>
        <pt x="463" y="505" on="1"/>
        <pt x="426" y="510" on="0"/>
        <pt x="366" y="516" on="0"/>
        <pt x="340" y="516" on="1"/>
        <pt x="285" y="516" on="0"/>
        <pt x="207" y="491" on="0"/>
        <pt x="156" y="436" on="0"/>
        <pt x="132" y="349" on="0"/>
        <pt x="132" y="288" on="1"/>
        <pt x="132" y="168" on="0"/>
        <pt x="229" y="62" on="0"/>
        <pt x="336" y="62" on="1"/>
        <pt x="348" y="62" on="0"/>
        <pt x="381" y="64" on="0"/>
        <pt x="416" y="67" on="0"/>
        <pt x="450" y="72" on="0"/>
        <pt x="463" y="74" on="1"/>
        <pt x="463" y="8" on="1"/>
        <pt x="436" y="1" on="0"/>
        <pt x="365" y="-8" on="0"/>
      </contour>
      <contour>
        <pt x="155" y="691" on="1"/>
        <pt x="294" y="749" on="1"/>
        <pt x="433" y="691" on="1"/>
        <pt x="433" y="630" on="1"/>
        <pt x="294" y="688" on="1"/>
        <pt x="155" y="630" on="1"/>
      </contour>
    </TTGlyph>
    <TTGlyph name="Cdotaccent" xMin="48" yMin="-9" xMax="519" yMax="915">
      <contour>
        <pt x="333" y="809" on="1"/>
        <pt x="307" y="809" on="0"/>
        <pt x="279" y="833" on="0"/>
        <pt x="279" y="861" on="1"/>
        <pt x="279" y="890" on="0"/>
        <pt x="307" y="915" on="0"/>
        <pt x="333" y="915" on="1"/>
        <pt x="359" y="915" on="0"/>
        <pt x="388" y="890" on="0"/>
        <pt x="388" y="861" on="1"/>
        <pt x="388" y="809" on="0"/>
      </contour>
      <contour>
        <pt x="373" y="-9" on="1"/>
        <pt x="208" y="-8" on="0"/>
        <pt x="48" y="176" on="0"/>
        <pt x="48" y="369" on="1"/>
        <pt x="48" y="565" on="0"/>
        <pt x="208" y="749" on="0"/>
        <pt x="372" y="749" on="1"/>
        <pt x="403" y="749" on="0"/>
        <pt x="480" y="742" on="0"/>
        <pt x="519" y="734" on="1"/>
        <pt x="519" y="662" on="1"/>
        <pt x="440" y="676" on="0"/>
        <pt x="382" y="676" on="1"/>
        <pt x="317" y="676" on="0"/>
        <pt x="224" y="641" on="0"/>
        <pt x="164" y="567" on="0"/>
        <pt x="136" y="451" on="0"/>
        <pt x="136" y="369" on="1"/>
        <pt x="136" y="209" on="0"/>
        <pt x="251" y="64" on="0"/>
        <pt x="376" y="64" on="1"/>
        <pt x="389" y="64" on="0"/>
        <pt x="427" y="66" on="0"/>
        <pt x="467" y="71" on="0"/>
        <pt x="505" y="77" on="0"/>
        <pt x="519" y="80" on="1"/>
        <pt x="519" y="9" on="1"/>
        <pt x="489" y="1" on="0"/>
        <pt x="409" y="-9" on="0"/>
      </contour>
    </TTGlyph>
    <TTGlyph name="Cdotaccent.sc" xMin="48" yMin="-8" xMax="463" yMax="726">
      <contour>
        <pt x="333" y="-8" on="1"/>
        <pt x="188" y="-7" on="0"/>
        <pt x="48" y="138" on="0"/>
        <pt x="48" y="288" on="1"/>
        <pt x="48" y="440" on="0"/>
        <pt x="187" y="585" on="0"/>
        <pt x="331" y="585" on="1"/>
        <pt x="358" y="585" on="0"/>
        <pt x="427" y="578" on="0"/>
        <pt x="463" y="573" on="1"/>
        <pt x="463" y="505" on="1"/>
        <pt x="426" y="510" on="0"/>
        <pt x="366" y="516" on="0"/>
        <pt x="340" y="516" on="1"/>
        <pt x="285" y="516" on="0"/>
        <pt x="207" y="491" on="0"/>
        <pt x="156" y="436" on="0"/>
        <pt x="132" y="349" on="0"/>
        <pt x="132" y="288" on="1"/>
        <pt x="132" y="168" on="0"/>
        <pt x="229" y="62" on="0"/>
        <pt x="336" y="62" on="1"/>
        <pt x="348" y="62" on="0"/>
        <pt x="381" y="64" on="0"/>
        <pt x="416" y="67" on="0"/>
        <pt x="450" y="72" on="0"/>
        <pt x="463" y="74" on="1"/>
        <pt x="463" y="8" on="1"/>
        <pt x="436" y="1" on="0"/>
        <pt x="365" y="-8" on="0"/>
      </contour>
      <contour>
        <pt x="299" y="630" on="1"/>
        <pt x="273" y="630" on="0"/>
        <pt x="248" y="653" on="0"/>
        <pt x="248" y="679" on="1"/>
        <pt x="248" y="726" on="0"/>
        <pt x="299" y="726" on="1"/>
        <pt x="350" y="726" on="0"/>
        <pt x="350" y="679" on="1"/>
        <pt x="350" y="630" on="0"/>
      </contour>
    </TTGlyph>
    <TTGlyph name="D" xMin="84" yMin="-13" xMax="633" yMax="749">
      <contour>
        <pt x="251" y="-13" on="1"/>
        <pt x="202" y="-13" on="0"/>
        <pt x="114" y="-7" on="0"/>
        <pt x="84" y="-1" on="1"/>
        <pt x="84" y="736" on="1"/>
        <pt x="135" y="742" on="0"/>
        <pt x="238" y="749" on="0"/>
        <pt x="275" y="749" on="1"/>
        <pt x="461" y="749" on="0"/>
        <pt x="633" y="566" on="0"/>
        <pt x="633" y="370" on="1"/>
        <pt x="633" y="270" on="0"/>
        <pt x="589" y="125" on="0"/>
        <pt x="496" y="32" on="0"/>
        <pt x="351" y="-13" on="0"/>
      </contour>
      <contour>
        <pt x="275" y="60" on="1"/>
        <pt x="415" y="60" on="0"/>
        <pt x="546" y="207" on="0"/>
        <pt x="546" y="370" on="1"/>
        <pt x="546" y="532" on="0"/>
        <pt x="421" y="677" on="0"/>
        <pt x="283" y="677" on="1"/>
        <pt x="257" y="677" on="0"/>
        <pt x="196" y="673" on="0"/>
        <pt x="168" y="669" on="1"/>
        <pt x="168" y="68" on="1"/>
        <pt x="200" y="63" on="0"/>
        <pt x="248" y="60" on="0"/>
      </contour>
    </TTGlyph>
    <TTGlyph name="D.sc" xMin="79" yMin="-10" xMax="568" yMax="584">
      <contour>
        <pt x="238" y="-10" on="1"/>
        <pt x="193" y="-10" on="0"/>
        <pt x="108" y="-4" on="0"/>
        <pt x="79" y="1" on="1"/>
        <pt x="79" y="575" on="1"/>
        <pt x="124" y="580" on="0"/>
        <pt x="217" y="584" on="0"/>
        <pt x="250" y="584" on="1"/>
        <pt x="414" y="584" on="0"/>
        <pt x="568" y="442" on="0"/>
        <pt x="568" y="288" on="1"/>
        <pt x="568" y="133" on="0"/>
        <pt x="410" y="-10" on="0"/>
      </contour>
      <contour>
        <pt x="255" y="59" on="1"/>
        <pt x="315" y="59" on="0"/>
        <pt x="401" y="85" on="0"/>
        <pt x="456" y="140" on="0"/>
        <pt x="483" y="227" on="0"/>
        <pt x="483" y="288" on="1"/>
        <pt x="483" y="410" on="0"/>
        <pt x="378" y="516" on="0"/>
        <pt x="259" y="516" on="1"/>
        <pt x="237" y="516" on="0"/>
        <pt x="183" y="513" on="0"/>
        <pt x="160" y="511" on="1"/>
        <pt x="160" y="65" on="1"/>
        <pt x="188" y="61" on="0"/>
        <pt x="230" y="59" on="0"/>
      </contour>
    </TTGlyph>
    <TTGlyph name="Dcaron" xMin="84" yMin="-13" xMax="633" yMax="946">
      <contour>
        <pt x="162" y="946" on="1"/>
        <pt x="317" y="872" on="1"/>
        <pt x="472" y="946" on="1"/>
        <pt x="472" y="877" on="1"/>
        <pt x="316" y="804" on="1"/>
        <pt x="162" y="877" on="1"/>
      </contour>
      <contour>
        <pt x="251" y="-13" on="1"/>
        <pt x="202" y="-13" on="0"/>
        <pt x="114" y="-7" on="0"/>
        <pt x="84" y="-1" on="1"/>
        <pt x="84" y="736" on="1"/>
        <pt x="135" y="742" on="0"/>
        <pt x="238" y="749" on="0"/>
        <pt x="275" y="749" on="1"/>
        <pt x="461" y="749" on="0"/>
        <pt x="633" y="566" on="0"/>
        <pt x="633" y="370" on="1"/>
        <pt x="633" y="270" on="0"/>
        <pt x="589" y="125" on="0"/>
        <pt x="496" y="32" on="0"/>
        <pt x="351" y="-13" on="0"/>
      </contour>
      <contour>
        <pt x="275" y="60" on="1"/>
        <pt x="415" y="60" on="0"/>
        <pt x="546" y="207" on="0"/>
        <pt x="546" y="370" on="1"/>
        <pt x="546" y="532" on="0"/>
        <pt x="421" y="677" on="0"/>
        <pt x="283" y="677" on="1"/>
        <pt x="257" y="677" on="0"/>
        <pt x="196" y="673" on="0"/>
        <pt x="168" y="669" on="1"/>
        <pt x="168" y="68" on="1"/>
        <pt x="200" y="63" on="0"/>
        <pt x="248" y="60" on="0"/>
      </contour>
    </TTGlyph>
    <TTGlyph name="Dcaron.sc" xMin="79" yMin="-10" xMax="568" yMax="745">
      <contour>
        <pt x="238" y="-10" on="1"/>
        <pt x="193" y="-10" on="0"/>
        <pt x="108" y="-4" on="0"/>
        <pt x="79" y="1" on="1"/>
        <pt x="79" y="575" on="1"/>
        <pt x="124" y="580" on="0"/>
        <pt x="217" y="584" on="0"/>
        <pt x="250" y="584" on="1"/>
        <pt x="414" y="584" on="0"/>
        <pt x="568" y="442" on="0"/>
        <pt x="568" y="288" on="1"/>
        <pt x="568" y="133" on="0"/>
        <pt x="410" y="-10" on="0"/>
      </contour>
      <contour>
        <pt x="255" y="59" on="1"/>
        <pt x="315" y="59" on="0"/>
        <pt x="401" y="85" on="0"/>
        <pt x="456" y="140" on="0"/>
        <pt x="483" y="227" on="0"/>
        <pt x="483" y="288" on="1"/>
        <pt x="483" y="410" on="0"/>
        <pt x="378" y="516" on="0"/>
        <pt x="259" y="516" on="1"/>
        <pt x="237" y="516" on="0"/>
        <pt x="183" y="513" on="0"/>
        <pt x="160" y="511" on="1"/>
        <pt x="160" y="65" on="1"/>
        <pt x="188" y="61" on="0"/>
        <pt x="230" y="59" on="0"/>
      </contour>
      <contour>
        <pt x="149" y="684" on="1"/>
        <pt x="149" y="745" on="1"/>
        <pt x="289" y="688" on="1"/>
        <pt x="427" y="745" on="1"/>
        <pt x="427" y="684" on="1"/>
        <pt x="288" y="626" on="1"/>
      </contour>
    </TTGlyph>
    <TTGlyph name="Dcroat" xMin="3" yMin="-13" xMax="645" yMax="749">
      <contour>
        <pt x="3" y="404" on="1"/>
        <pt x="96" y="404" on="1"/>
        <pt x="96" y="736" on="1"/>
        <pt x="147" y="742" on="0"/>
        <pt x="250" y="749" on="0"/>
        <pt x="287" y="749" on="1"/>
        <pt x="473" y="749" on="0"/>
        <pt x="645" y="566" on="0"/>
        <pt x="645" y="370" on="1"/>
        <pt x="645" y="270" on="0"/>
        <pt x="601" y="125" on="0"/>
        <pt x="508" y="32" on="0"/>
        <pt x="363" y="-13" on="0"/>
        <pt x="263" y="-13" on="1"/>
        <pt x="214" y="-13" on="0"/>
        <pt x="126" y="-7" on="0"/>
        <pt x="96" y="-1" on="1"/>
        <pt x="96" y="335" on="1"/>
        <pt x="3" y="335" on="1"/>
      </contour>
      <contour>
        <pt x="287" y="60" on="1"/>
        <pt x="427" y="60" on="0"/>
        <pt x="558" y="207" on="0"/>
        <pt x="558" y="370" on="1"/>
        <pt x="558" y="532" on="0"/>
        <pt x="433" y="677" on="0"/>
        <pt x="295" y="677" on="1"/>
        <pt x="269" y="677" on="0"/>
        <pt x="208" y="673" on="0"/>
        <pt x="180" y="669" on="1"/>
        <pt x="180" y="404" on="1"/>
        <pt x="347" y="404" on="1"/>
        <pt x="347" y="335" on="1"/>
        <pt x="180" y="335" on="1"/>
        <pt x="180" y="68" on="1"/>
        <pt x="212" y="63" on="0"/>
        <pt x="260" y="60" on="0"/>
      </contour>
    </TTGlyph>
    <TTGlyph name="Dcroat.sc" xMin="11" yMin="-10" xMax="580" yMax="584">
      <contour>
        <pt x="11" y="321" on="1"/>
        <pt x="91" y="321" on="1"/>
        <pt x="91" y="575" on="1"/>
        <pt x="137" y="580" on="0"/>
        <pt x="230" y="584" on="0"/>
        <pt x="262" y="584" on="1"/>
        <pt x="427" y="584" on="0"/>
        <pt x="580" y="442" on="0"/>
        <pt x="580" y="288" on="1"/>
        <pt x="580" y="210" on="0"/>
        <pt x="541" y="97" on="0"/>
        <pt x="458" y="24" on="0"/>
        <pt x="330" y="-10" on="0"/>
        <pt x="241" y="-10" on="1"/>
        <pt x="198" y="-10" on="0"/>
        <pt x="118" y="-4" on="0"/>
        <pt x="91" y="1" on="1"/>
        <pt x="91" y="256" on="1"/>
        <pt x="11" y="256" on="1"/>
      </contour>
      <contour>
        <pt x="267" y="59" on="1"/>
        <pt x="387" y="59" on="0"/>
        <pt x="496" y="166" on="0"/>
        <pt x="496" y="288" on="1"/>
        <pt x="496" y="410" on="0"/>
        <pt x="390" y="516" on="0"/>
        <pt x="271" y="516" on="1"/>
        <pt x="249" y="516" on="0"/>
        <pt x="196" y="513" on="0"/>
        <pt x="172" y="511" on="1"/>
        <pt x="172" y="321" on="1"/>
        <pt x="313" y="321" on="1"/>
        <pt x="313" y="256" on="1"/>
        <pt x="172" y="256" on="1"/>
        <pt x="172" y="65" on="1"/>
        <pt x="200" y="61" on="0"/>
        <pt x="243" y="59" on="0"/>
      </contour>
    </TTGlyph>
    <TTGlyph name="Ddotbelow" xMin="84" yMin="-181" xMax="633" yMax="749">
      <contour>
        <pt x="321" y="-181" on="1"/>
        <pt x="271" y="-181" on="0"/>
        <pt x="271" y="-131" on="1"/>
        <pt x="271" y="-105" on="0"/>
        <pt x="296" y="-82" on="0"/>
        <pt x="321" y="-82" on="1"/>
        <pt x="346" y="-82" on="0"/>
        <pt x="371" y="-105" on="0"/>
        <pt x="371" y="-131" on="1"/>
        <pt x="371" y="-181" on="0"/>
      </contour>
      <contour>
        <pt x="251" y="-13" on="1"/>
        <pt x="202" y="-13" on="0"/>
        <pt x="114" y="-7" on="0"/>
        <pt x="84" y="-1" on="1"/>
        <pt x="84" y="736" on="1"/>
        <pt x="135" y="742" on="0"/>
        <pt x="238" y="749" on="0"/>
        <pt x="275" y="749" on="1"/>
        <pt x="461" y="749" on="0"/>
        <pt x="633" y="566" on="0"/>
        <pt x="633" y="370" on="1"/>
        <pt x="633" y="270" on="0"/>
        <pt x="589" y="125" on="0"/>
        <pt x="496" y="32" on="0"/>
        <pt x="351" y="-13" on="0"/>
      </contour>
      <contour>
        <pt x="275" y="60" on="1"/>
        <pt x="415" y="60" on="0"/>
        <pt x="546" y="207" on="0"/>
        <pt x="546" y="370" on="1"/>
        <pt x="546" y="532" on="0"/>
        <pt x="421" y="677" on="0"/>
        <pt x="283" y="677" on="1"/>
        <pt x="257" y="677" on="0"/>
        <pt x="196" y="673" on="0"/>
        <pt x="168" y="669" on="1"/>
        <pt x="168" y="68" on="1"/>
        <pt x="200" y="63" on="0"/>
        <pt x="248" y="60" on="0"/>
      </contour>
    </TTGlyph>
    <TTGlyph name="Ddotbelow.sc" xMin="79" yMin="-146" xMax="568" yMax="584">
      <contour>
        <pt x="238" y="-10" on="1"/>
        <pt x="193" y="-10" on="0"/>
        <pt x="108" y="-4" on="0"/>
        <pt x="79" y="1" on="1"/>
        <pt x="79" y="575" on="1"/>
        <pt x="124" y="580" on="0"/>
        <pt x="217" y="584" on="0"/>
        <pt x="250" y="584" on="1"/>
        <pt x="414" y="584" on="0"/>
        <pt x="568" y="442" on="0"/>
        <pt x="568" y="288" on="1"/>
        <pt x="568" y="133" on="0"/>
        <pt x="410" y="-10" on="0"/>
      </contour>
      <contour>
        <pt x="255" y="59" on="1"/>
        <pt x="315" y="59" on="0"/>
        <pt x="401" y="85" on="0"/>
        <pt x="456" y="140" on="0"/>
        <pt x="483" y="227" on="0"/>
        <pt x="483" y="288" on="1"/>
        <pt x="483" y="410" on="0"/>
        <pt x="378" y="516" on="0"/>
        <pt x="259" y="516" on="1"/>
        <pt x="237" y="516" on="0"/>
        <pt x="183" y="513" on="0"/>
        <pt x="160" y="511" on="1"/>
        <pt x="160" y="65" on="1"/>
        <pt x="188" y="61" on="0"/>
        <pt x="230" y="59" on="0"/>
      </contour>
      <contour>
        <pt x="292" y="-146" on="1"/>
        <pt x="247" y="-146" on="0"/>
        <pt x="247" y="-104" on="1"/>
        <pt x="247" y="-81" on="0"/>
        <pt x="269" y="-61" on="0"/>
        <pt x="292" y="-61" on="1"/>
        <pt x="315" y="-61" on="0"/>
        <pt x="338" y="-81" on="0"/>
        <pt x="338" y="-104" on="1"/>
        <pt x="338" y="-146" on="0"/>
      </contour>
    </TTGlyph>
    <TTGlyph name="Delta" xMin="23" yMin="0" xMax="674" yMax="740">
      <contour>
        <pt x="296" y="740" on="1"/>
        <pt x="401" y="740" on="1"/>
        <pt x="674" y="0" on="1"/>
        <pt x="23" y="0" on="1"/>
      </contour>
      <contour>
        <pt x="566" y="72" on="1"/>
        <pt x="348" y="663" on="1"/>
        <pt x="130" y="72" on="1"/>
      </contour>
    </TTGlyph>
    <TTGlyph name="E" xMin="84" yMin="0" xMax="535" yMax="740">
      <contour>
        <pt x="84" y="740" on="1"/>
        <pt x="526" y="740" on="1"/>
        <pt x="526" y="668" on="1"/>
        <pt x="169" y="668" on="1"/>
        <pt x="169" y="411" on="1"/>
        <pt x="498" y="411" on="1"/>
        <pt x="498" y="339" on="1"/>
        <pt x="169" y="339" on="1"/>
        <pt x="169" y="72" on="1"/>
        <pt x="535" y="72" on="1"/>
        <pt x="535" y="0" on="1"/>
        <pt x="84" y="0" on="1"/>
      </contour>
    </TTGlyph>
    <TTGlyph name="E.sc" xMin="79" yMin="0" xMax="480" yMax="577">
      <contour>
        <pt x="79" y="577" on="1"/>
        <pt x="473" y="577" on="1"/>
        <pt x="473" y="511" on="1"/>
        <pt x="161" y="511" on="1"/>
        <pt x="161" y="324" on="1"/>
        <pt x="449" y="324" on="1"/>
        <pt x="449" y="261" on="1"/>
        <pt x="161" y="261" on="1"/>
        <pt x="161" y="66" on="1"/>
        <pt x="480" y="66" on="1"/>
        <pt x="480" y="0" on="1"/>
        <pt x="79" y="0" on="1"/>
      </contour>
    </TTGlyph>
    <TTGlyph name="Eacute" xMin="84" yMin="0" xMax="535" yMax="942">
      <contour>
        <pt x="267" y="801" on="1"/>
        <pt x="341" y="942" on="1"/>
        <pt x="429" y="942" on="1"/>
        <pt x="332" y="795" on="1"/>
      </contour>
      <contour>
        <pt x="84" y="740" on="1"/>
        <pt x="526" y="740" on="1"/>
        <pt x="526" y="668" on="1"/>
        <pt x="169" y="668" on="1"/>
        <pt x="169" y="411" on="1"/>
        <pt x="498" y="411" on="1"/>
        <pt x="498" y="339" on="1"/>
        <pt x="169" y="339" on="1"/>
        <pt x="169" y="72" on="1"/>
        <pt x="535" y="72" on="1"/>
        <pt x="535" y="0" on="1"/>
        <pt x="84" y="0" on="1"/>
      </contour>
    </TTGlyph>
    <TTGlyph name="Eacute.sc" xMin="79" yMin="0" xMax="480" yMax="742">
      <contour>
        <pt x="79" y="577" on="1"/>
        <pt x="473" y="577" on="1"/>
        <pt x="473" y="511" on="1"/>
        <pt x="161" y="511" on="1"/>
        <pt x="161" y="324" on="1"/>
        <pt x="449" y="324" on="1"/>
        <pt x="449" y="261" on="1"/>
        <pt x="161" y="261" on="1"/>
        <pt x="161" y="66" on="1"/>
        <pt x="480" y="66" on="1"/>
        <pt x="480" y="0" on="1"/>
        <pt x="79" y="0" on="1"/>
      </contour>
      <contour>
        <pt x="240" y="627" on="1"/>
        <pt x="303" y="742" on="1"/>
        <pt x="388" y="742" on="1"/>
        <pt x="302" y="622" on="1"/>
      </contour>
    </TTGlyph>
    <TTGlyph name="Ebreve" xMin="84" yMin="0" xMax="535" yMax="960">
      <contour>
        <pt x="305" y="812" on="1"/>
        <pt x="220" y="812" on="0"/>
        <pt x="134" y="892" on="0"/>
        <pt x="134" y="960" on="1"/>
        <pt x="198" y="960" on="1"/>
        <pt x="198" y="913" on="0"/>
        <pt x="251" y="863" on="0"/>
        <pt x="305" y="863" on="1"/>
        <pt x="358" y="863" on="0"/>
        <pt x="412" y="913" on="0"/>
        <pt x="412" y="960" on="1"/>
        <pt x="476" y="960" on="1"/>
        <pt x="476" y="892" on="0"/>
        <pt x="390" y="812" on="0"/>
      </contour>
      <contour>
        <pt x="84" y="740" on="1"/>
        <pt x="526" y="740" on="1"/>
        <pt x="526" y="668" on="1"/>
        <pt x="169" y="668" on="1"/>
        <pt x="169" y="411" on="1"/>
        <pt x="498" y="411" on="1"/>
        <pt x="498" y="339" on="1"/>
        <pt x="169" y="339" on="1"/>
        <pt x="169" y="72" on="1"/>
        <pt x="535" y="72" on="1"/>
        <pt x="535" y="0" on="1"/>
        <pt x="84" y="0" on="1"/>
      </contour>
    </TTGlyph>
    <TTGlyph name="Ebreve.sc" xMin="79" yMin="0" xMax="480" yMax="753">
      <contour>
        <pt x="276" y="632" on="1"/>
        <pt x="200" y="632" on="0"/>
        <pt x="124" y="698" on="0"/>
        <pt x="124" y="753" on="1"/>
        <pt x="183" y="753" on="1"/>
        <pt x="183" y="678" on="0"/>
        <pt x="276" y="678" on="1"/>
        <pt x="369" y="678" on="0"/>
        <pt x="369" y="753" on="1"/>
        <pt x="428" y="753" on="1"/>
        <pt x="428" y="698" on="0"/>
        <pt x="352" y="632" on="0"/>
      </contour>
      <contour>
        <pt x="79" y="577" on="1"/>
        <pt x="473" y="577" on="1"/>
        <pt x="473" y="511" on="1"/>
        <pt x="161" y="511" on="1"/>
        <pt x="161" y="324" on="1"/>
        <pt x="449" y="324" on="1"/>
        <pt x="449" y="261" on="1"/>
        <pt x="161" y="261" on="1"/>
        <pt x="161" y="66" on="1"/>
        <pt x="480" y="66" on="1"/>
        <pt x="480" y="0" on="1"/>
        <pt x="79" y="0" on="1"/>
      </contour>
    </TTGlyph>
    <TTGlyph name="Ecaron" xMin="84" yMin="0" xMax="535" yMax="946">
      <contour>
        <pt x="154" y="946" on="1"/>
        <pt x="309" y="872" on="1"/>
        <pt x="464" y="946" on="1"/>
        <pt x="464" y="877" on="1"/>
        <pt x="308" y="804" on="1"/>
        <pt x="154" y="877" on="1"/>
      </contour>
      <contour>
        <pt x="84" y="740" on="1"/>
        <pt x="526" y="740" on="1"/>
        <pt x="526" y="668" on="1"/>
        <pt x="169" y="668" on="1"/>
        <pt x="169" y="411" on="1"/>
        <pt x="498" y="411" on="1"/>
        <pt x="498" y="339" on="1"/>
        <pt x="169" y="339" on="1"/>
        <pt x="169" y="72" on="1"/>
        <pt x="535" y="72" on="1"/>
        <pt x="535" y="0" on="1"/>
        <pt x="84" y="0" on="1"/>
      </contour>
    </TTGlyph>
    <TTGlyph name="Ecaron.sc" xMin="79" yMin="0" xMax="480" yMax="745">
      <contour>
        <pt x="79" y="577" on="1"/>
        <pt x="473" y="577" on="1"/>
        <pt x="473" y="511" on="1"/>
        <pt x="161" y="511" on="1"/>
        <pt x="161" y="324" on="1"/>
        <pt x="449" y="324" on="1"/>
        <pt x="449" y="261" on="1"/>
        <pt x="161" y="261" on="1"/>
        <pt x="161" y="66" on="1"/>
        <pt x="480" y="66" on="1"/>
        <pt x="480" y="0" on="1"/>
        <pt x="79" y="0" on="1"/>
      </contour>
      <contour>
        <pt x="141" y="684" on="1"/>
        <pt x="141" y="745" on="1"/>
        <pt x="279" y="688" on="1"/>
        <pt x="418" y="745" on="1"/>
        <pt x="418" y="684" on="1"/>
        <pt x="279" y="626" on="1"/>
      </contour>
    </TTGlyph>
    <TTGlyph name="Ecircumflex" xMin="84" yMin="0" xMax="535" yMax="953">
      <contour>
        <pt x="84" y="740" on="1"/>
        <pt x="526" y="740" on="1"/>
        <pt x="526" y="668" on="1"/>
        <pt x="169" y="668" on="1"/>
        <pt x="169" y="411" on="1"/>
        <pt x="498" y="411" on="1"/>
        <pt x="498" y="339" on="1"/>
        <pt x="169" y="339" on="1"/>
        <pt x="169" y="72" on="1"/>
        <pt x="535" y="72" on="1"/>
        <pt x="535" y="0" on="1"/>
        <pt x="84" y="0" on="1"/>
      </contour>
      <contour>
        <pt x="154" y="879" on="1"/>
        <pt x="309" y="953" on="1"/>
        <pt x="464" y="879" on="1"/>
        <pt x="464" y="811" on="1"/>
        <pt x="309" y="884" on="1"/>
        <pt x="154" y="811" on="1"/>
      </contour>
    </TTGlyph>
    <TTGlyph name="Ecircumflex.sc" xMin="79" yMin="0" xMax="480" yMax="749">
      <contour>
        <pt x="79" y="577" on="1"/>
        <pt x="473" y="577" on="1"/>
        <pt x="473" y="511" on="1"/>
        <pt x="161" y="511" on="1"/>
        <pt x="161" y="324" on="1"/>
        <pt x="449" y="324" on="1"/>
        <pt x="449" y="261" on="1"/>
        <pt x="161" y="261" on="1"/>
        <pt x="161" y="66" on="1"/>
        <pt x="480" y="66" on="1"/>
        <pt x="480" y="0" on="1"/>
        <pt x="79" y="0" on="1"/>
      </contour>
      <contour>
        <pt x="142" y="691" on="1"/>
        <pt x="280" y="749" on="1"/>
        <pt x="419" y="691" on="1"/>
        <pt x="419" y="630" on="1"/>
        <pt x="281" y="688" on="1"/>
        <pt x="142" y="630" on="1"/>
      </contour>
    </TTGlyph>
    <TTGlyph name="Edblgrave" xMin="84" yMin="0" xMax="535" yMax="938">
      <contour>
        <pt x="84" y="740" on="1"/>
        <pt x="526" y="740" on="1"/>
        <pt x="526" y="668" on="1"/>
        <pt x="169" y="668" on="1"/>
        <pt x="169" y="411" on="1"/>
        <pt x="498" y="411" on="1"/>
        <pt x="498" y="339" on="1"/>
        <pt x="169" y="339" on="1"/>
        <pt x="169" y="72" on="1"/>
        <pt x="535" y="72" on="1"/>
        <pt x="535" y="0" on="1"/>
        <pt x="84" y="0" on="1"/>
      </contour>
      <contour>
        <pt x="200" y="792" on="1"/>
        <pt x="103" y="938" on="1"/>
        <pt x="185" y="938" on="1"/>
        <pt x="259" y="805" on="1"/>
      </contour>
      <contour>
        <pt x="355" y="792" on="1"/>
        <pt x="257" y="938" on="1"/>
        <pt x="340" y="938" on="1"/>
        <pt x="414" y="805" on="1"/>
      </contour>
    </TTGlyph>
    <TTGlyph name="Edblgrave.sc" xMin="79" yMin="0" xMax="480" yMax="740">
      <contour>
        <pt x="79" y="577" on="1"/>
        <pt x="473" y="577" on="1"/>
        <pt x="473" y="511" on="1"/>
        <pt x="161" y="511" on="1"/>
        <pt x="161" y="324" on="1"/>
        <pt x="449" y="324" on="1"/>
        <pt x="449" y="261" on="1"/>
        <pt x="161" y="261" on="1"/>
        <pt x="161" y="66" on="1"/>
        <pt x="480" y="66" on="1"/>
        <pt x="480" y="0" on="1"/>
        <pt x="79" y="0" on="1"/>
      </contour>
      <contour>
        <pt x="95" y="740" on="1"/>
        <pt x="174" y="740" on="1"/>
        <pt x="237" y="629" on="1"/>
        <pt x="180" y="619" on="1"/>
      </contour>
      <contour>
        <pt x="233" y="740" on="1"/>
        <pt x="312" y="740" on="1"/>
        <pt x="376" y="629" on="1"/>
        <pt x="319" y="619" on="1"/>
      </contour>
    </TTGlyph>
    <TTGlyph name="Edieresis" xMin="84" yMin="0" xMax="535" yMax="922">
      <contour>
        <pt x="188" y="816" on="1"/>
        <pt x="134" y="816" on="0"/>
        <pt x="134" y="870" on="1"/>
        <pt x="134" y="922" on="0"/>
        <pt x="188" y="922" on="1"/>
        <pt x="242" y="922" on="0"/>
        <pt x="242" y="870" on="1"/>
        <pt x="242" y="841" on="0"/>
        <pt x="214" y="816" on="0"/>
      </contour>
      <contour>
        <pt x="426" y="816" on="1"/>
        <pt x="372" y="816" on="0"/>
        <pt x="372" y="870" on="1"/>
        <pt x="372" y="922" on="0"/>
        <pt x="426" y="922" on="1"/>
        <pt x="452" y="922" on="0"/>
        <pt x="481" y="897" on="0"/>
        <pt x="481" y="870" on="1"/>
        <pt x="481" y="841" on="0"/>
        <pt x="452" y="816" on="0"/>
      </contour>
      <contour>
        <pt x="84" y="740" on="1"/>
        <pt x="526" y="740" on="1"/>
        <pt x="526" y="668" on="1"/>
        <pt x="169" y="668" on="1"/>
        <pt x="169" y="411" on="1"/>
        <pt x="498" y="411" on="1"/>
        <pt x="498" y="339" on="1"/>
        <pt x="169" y="339" on="1"/>
        <pt x="169" y="72" on="1"/>
        <pt x="535" y="72" on="1"/>
        <pt x="535" y="0" on="1"/>
        <pt x="84" y="0" on="1"/>
      </contour>
    </TTGlyph>
    <TTGlyph name="Edieresis.sc" xMin="79" yMin="0" xMax="480" yMax="731">
      <contour>
        <pt x="173" y="635" on="1"/>
        <pt x="122" y="635" on="0"/>
        <pt x="122" y="683" on="1"/>
        <pt x="122" y="709" on="0"/>
        <pt x="147" y="731" on="0"/>
        <pt x="173" y="731" on="1"/>
        <pt x="197" y="731" on="0"/>
        <pt x="224" y="708" on="0"/>
        <pt x="224" y="683" on="1"/>
        <pt x="224" y="658" on="0"/>
        <pt x="197" y="635" on="0"/>
      </contour>
      <contour>
        <pt x="385" y="635" on="1"/>
        <pt x="335" y="635" on="0"/>
        <pt x="335" y="683" on="1"/>
        <pt x="335" y="709" on="0"/>
        <pt x="360" y="731" on="0"/>
        <pt x="385" y="731" on="1"/>
        <pt x="436" y="731" on="0"/>
        <pt x="436" y="683" on="1"/>
        <pt x="436" y="635" on="0"/>
      </contour>
      <contour>
        <pt x="79" y="577" on="1"/>
        <pt x="473" y="577" on="1"/>
        <pt x="473" y="511" on="1"/>
        <pt x="161" y="511" on="1"/>
        <pt x="161" y="324" on="1"/>
        <pt x="449" y="324" on="1"/>
        <pt x="449" y="261" on="1"/>
        <pt x="161" y="261" on="1"/>
        <pt x="161" y="66" on="1"/>
        <pt x="480" y="66" on="1"/>
        <pt x="480" y="0" on="1"/>
        <pt x="79" y="0" on="1"/>
      </contour>
    </TTGlyph>
    <TTGlyph name="Edotaccent" xMin="84" yMin="0" xMax="535" yMax="915">
      <contour>
        <pt x="304" y="809" on="1"/>
        <pt x="278" y="809" on="0"/>
        <pt x="250" y="833" on="0"/>
        <pt x="250" y="861" on="1"/>
        <pt x="250" y="890" on="0"/>
        <pt x="278" y="915" on="0"/>
        <pt x="304" y="915" on="1"/>
        <pt x="330" y="915" on="0"/>
        <pt x="359" y="890" on="0"/>
        <pt x="359" y="861" on="1"/>
        <pt x="359" y="809" on="0"/>
      </contour>
      <contour>
        <pt x="84" y="740" on="1"/>
        <pt x="526" y="740" on="1"/>
        <pt x="526" y="668" on="1"/>
        <pt x="169" y="668" on="1"/>
        <pt x="169" y="411" on="1"/>
        <pt x="498" y="411" on="1"/>
        <pt x="498" y="339" on="1"/>
        <pt x="169" y="339" on="1"/>
        <pt x="169" y="72" on="1"/>
        <pt x="535" y="72" on="1"/>
        <pt x="535" y="0" on="1"/>
        <pt x="84" y="0" on="1"/>
      </contour>
    </TTGlyph>
    <TTGlyph name="Edotaccent.sc" xMin="79" yMin="0" xMax="480" yMax="726">
      <contour>
        <pt x="276" y="630" on="1"/>
        <pt x="250" y="630" on="0"/>
        <pt x="226" y="653" on="0"/>
        <pt x="226" y="679" on="1"/>
        <pt x="226" y="726" on="0"/>
        <pt x="276" y="726" on="1"/>
        <pt x="300" y="726" on="0"/>
        <pt x="327" y="704" on="0"/>
        <pt x="327" y="679" on="1"/>
        <pt x="327" y="653" on="0"/>
        <pt x="300" y="630" on="0"/>
      </contour>
      <contour>
        <pt x="79" y="577" on="1"/>
        <pt x="473" y="577" on="1"/>
        <pt x="473" y="511" on="1"/>
        <pt x="161" y="511" on="1"/>
        <pt x="161" y="324" on="1"/>
        <pt x="449" y="324" on="1"/>
        <pt x="449" y="261" on="1"/>
        <pt x="161" y="261" on="1"/>
        <pt x="161" y="66" on="1"/>
        <pt x="480" y="66" on="1"/>
        <pt x="480" y="0" on="1"/>
        <pt x="79" y="0" on="1"/>
      </contour>
    </TTGlyph>
    <TTGlyph name="Edotbelow" xMin="84" yMin="-181" xMax="535" yMax="740">
      <contour>
        <pt x="84" y="740" on="1"/>
        <pt x="526" y="740" on="1"/>
        <pt x="526" y="668" on="1"/>
        <pt x="169" y="668" on="1"/>
        <pt x="169" y="411" on="1"/>
        <pt x="498" y="411" on="1"/>
        <pt x="498" y="339" on="1"/>
        <pt x="169" y="339" on="1"/>
        <pt x="169" y="72" on="1"/>
        <pt x="535" y="72" on="1"/>
        <pt x="535" y="0" on="1"/>
        <pt x="84" y="0" on="1"/>
      </contour>
      <contour>
        <pt x="322" y="-181" on="1"/>
        <pt x="272" y="-181" on="0"/>
        <pt x="272" y="-131" on="1"/>
        <pt x="272" y="-105" on="0"/>
        <pt x="297" y="-82" on="0"/>
        <pt x="322" y="-82" on="1"/>
        <pt x="347" y="-82" on="0"/>
        <pt x="372" y="-105" on="0"/>
        <pt x="372" y="-131" on="1"/>
        <pt x="372" y="-181" on="0"/>
      </contour>
    </TTGlyph>
    <TTGlyph name="Edotbelow.sc" xMin="79" yMin="-146" xMax="480" yMax="577">
      <contour>
        <pt x="291" y="-146" on="1"/>
        <pt x="246" y="-146" on="0"/>
        <pt x="246" y="-104" on="1"/>
        <pt x="246" y="-81" on="0"/>
        <pt x="268" y="-61" on="0"/>
        <pt x="291" y="-61" on="1"/>
        <pt x="314" y="-61" on="0"/>
        <pt x="338" y="-81" on="0"/>
        <pt x="338" y="-104" on="1"/>
        <pt x="338" y="-146" on="0"/>
      </contour>
      <contour>
        <pt x="79" y="577" on="1"/>
        <pt x="473" y="577" on="1"/>
        <pt x="473" y="511" on="1"/>
        <pt x="161" y="511" on="1"/>
        <pt x="161" y="324" on="1"/>
        <pt x="449" y="324" on="1"/>
        <pt x="449" y="261" on="1"/>
        <pt x="161" y="261" on="1"/>
        <pt x="161" y="66" on="1"/>
        <pt x="480" y="66" on="1"/>
        <pt x="480" y="0" on="1"/>
        <pt x="79" y="0" on="1"/>
      </contour>
    </TTGlyph>
    <TTGlyph name="Egrave" xMin="84" yMin="0" xMax="535" yMax="942">
      <contour>
        <pt x="277" y="795" on="1"/>
        <pt x="180" y="942" on="1"/>
        <pt x="268" y="942" on="1"/>
        <pt x="342" y="808" on="1"/>
      </contour>
      <contour>
        <pt x="84" y="740" on="1"/>
        <pt x="526" y="740" on="1"/>
        <pt x="526" y="668" on="1"/>
        <pt x="169" y="668" on="1"/>
        <pt x="169" y="411" on="1"/>
        <pt x="498" y="411" on="1"/>
        <pt x="498" y="339" on="1"/>
        <pt x="169" y="339" on="1"/>
        <pt x="169" y="72" on="1"/>
        <pt x="535" y="72" on="1"/>
        <pt x="535" y="0" on="1"/>
        <pt x="84" y="0" on="1"/>
      </contour>
    </TTGlyph>
    <TTGlyph name="Egrave.sc" xMin="79" yMin="0" xMax="480" yMax="742">
      <contour>
        <pt x="79" y="577" on="1"/>
        <pt x="473" y="577" on="1"/>
        <pt x="473" y="511" on="1"/>
        <pt x="161" y="511" on="1"/>
        <pt x="161" y="324" on="1"/>
        <pt x="449" y="324" on="1"/>
        <pt x="449" y="261" on="1"/>
        <pt x="161" y="261" on="1"/>
        <pt x="161" y="66" on="1"/>
        <pt x="480" y="66" on="1"/>
        <pt x="480" y="0" on="1"/>
        <pt x="79" y="0" on="1"/>
      </contour>
      <contour>
        <pt x="165" y="742" on="1"/>
        <pt x="249" y="742" on="1"/>
        <pt x="313" y="631" on="1"/>
        <pt x="251" y="622" on="1"/>
      </contour>
    </TTGlyph>
    <TTGlyph name="Einvertedbreve" xMin="84" yMin="0" xMax="535" yMax="966">
      <contour>
        <pt x="84" y="740" on="1"/>
        <pt x="526" y="740" on="1"/>
        <pt x="526" y="668" on="1"/>
        <pt x="169" y="668" on="1"/>
        <pt x="169" y="411" on="1"/>
        <pt x="498" y="411" on="1"/>
        <pt x="498" y="339" on="1"/>
        <pt x="169" y="339" on="1"/>
        <pt x="169" y="72" on="1"/>
        <pt x="535" y="72" on="1"/>
        <pt x="535" y="0" on="1"/>
        <pt x="84" y="0" on="1"/>
      </contour>
      <contour>
        <pt x="413" y="818" on="1"/>
        <pt x="413" y="915" on="0"/>
        <pt x="306" y="915" on="1"/>
        <pt x="199" y="915" on="0"/>
        <pt x="199" y="818" on="1"/>
        <pt x="136" y="818" on="1"/>
        <pt x="136" y="886" on="0"/>
        <pt x="221" y="966" on="0"/>
        <pt x="306" y="966" on="1"/>
        <pt x="391" y="966" on="0"/>
        <pt x="477" y="887" on="0"/>
        <pt x="477" y="818" on="1"/>
      </contour>
    </TTGlyph>
    <TTGlyph name="Einvertedbreve.sc" xMin="79" yMin="0" xMax="480" yMax="758">
      <contour>
        <pt x="125" y="637" on="1"/>
        <pt x="125" y="692" on="0"/>
        <pt x="200" y="758" on="0"/>
        <pt x="277" y="758" on="1"/>
        <pt x="353" y="758" on="0"/>
        <pt x="430" y="693" on="0"/>
        <pt x="430" y="637" on="1"/>
        <pt x="370" y="637" on="1"/>
        <pt x="370" y="712" on="0"/>
        <pt x="277" y="712" on="1"/>
        <pt x="184" y="712" on="0"/>
        <pt x="184" y="637" on="1"/>
      </contour>
      <contour>
        <pt x="79" y="577" on="1"/>
        <pt x="473" y="577" on="1"/>
        <pt x="473" y="511" on="1"/>
        <pt x="161" y="511" on="1"/>
        <pt x="161" y="324" on="1"/>
        <pt x="449" y="324" on="1"/>
        <pt x="449" y="261" on="1"/>
        <pt x="161" y="261" on="1"/>
        <pt x="161" y="66" on="1"/>
        <pt x="480" y="66" on="1"/>
        <pt x="480" y="0" on="1"/>
        <pt x="79" y="0" on="1"/>
      </contour>
    </TTGlyph>
    <TTGlyph name="Emacron" xMin="84" yMin="0" xMax="535" yMax="904">
      <contour>
        <pt x="155" y="904" on="1"/>
        <pt x="451" y="904" on="1"/>
        <pt x="451" y="841" on="1"/>
        <pt x="155" y="841" on="1"/>
      </contour>
      <contour>
        <pt x="84" y="740" on="1"/>
        <pt x="526" y="740" on="1"/>
        <pt x="526" y="668" on="1"/>
        <pt x="169" y="668" on="1"/>
        <pt x="169" y="411" on="1"/>
        <pt x="498" y="411" on="1"/>
        <pt x="498" y="339" on="1"/>
        <pt x="169" y="339" on="1"/>
        <pt x="169" y="72" on="1"/>
        <pt x="535" y="72" on="1"/>
        <pt x="535" y="0" on="1"/>
        <pt x="84" y="0" on="1"/>
      </contour>
    </TTGlyph>
    <TTGlyph name="Emacron.sc" xMin="79" yMin="0" xMax="480" yMax="714">
      <contour>
        <pt x="79" y="577" on="1"/>
        <pt x="473" y="577" on="1"/>
        <pt x="473" y="511" on="1"/>
        <pt x="161" y="511" on="1"/>
        <pt x="161" y="324" on="1"/>
        <pt x="449" y="324" on="1"/>
        <pt x="449" y="261" on="1"/>
        <pt x="161" y="261" on="1"/>
        <pt x="161" y="66" on="1"/>
        <pt x="480" y="66" on="1"/>
        <pt x="480" y="0" on="1"/>
        <pt x="79" y="0" on="1"/>
      </contour>
      <contour>
        <pt x="142" y="714" on="1"/>
        <pt x="409" y="714" on="1"/>
        <pt x="409" y="656" on="1"/>
        <pt x="142" y="656" on="1"/>
      </contour>
    </TTGlyph>
    <TTGlyph name="Eng" xMin="84" yMin="-189" xMax="655" yMax="740">
      <contour>
        <pt x="496" y="-171" on="1"/>
        <pt x="521" y="-121" on="0"/>
        <pt x="557" y="-20" on="0"/>
        <pt x="564" y="22" on="1"/>
        <pt x="222" y="517" on="1"/>
        <pt x="168" y="604" on="1"/>
        <pt x="161" y="604" on="1"/>
        <pt x="161" y="0" on="1"/>
        <pt x="84" y="0" on="1"/>
        <pt x="84" y="740" on="1"/>
        <pt x="157" y="740" on="1"/>
        <pt x="516" y="222" on="1"/>
        <pt x="570" y="135" on="1"/>
        <pt x="576" y="135" on="1"/>
        <pt x="576" y="740" on="1"/>
        <pt x="655" y="740" on="1"/>
        <pt x="655" y="81" on="1"/>
        <pt x="655" y="54" on="0"/>
        <pt x="640" y="-14" on="0"/>
        <pt x="613" y="-87" on="0"/>
        <pt x="578" y="-159" on="0"/>
        <pt x="557" y="-189" on="1"/>
      </contour>
    </TTGlyph>
    <TTGlyph name="Eng.sc" xMin="80" yMin="-151" xMax="580" yMax="577">
      <contour>
        <pt x="439" y="-134" on="1"/>
        <pt x="461" y="-92" on="0"/>
        <pt x="491" y="-13" on="0"/>
        <pt x="497" y="19" on="1"/>
        <pt x="207" y="382" on="1"/>
        <pt x="159" y="450" on="1"/>
        <pt x="154" y="450" on="1"/>
        <pt x="154" y="0" on="1"/>
        <pt x="80" y="0" on="1"/>
        <pt x="80" y="577" on="1"/>
        <pt x="148" y="577" on="1"/>
        <pt x="452" y="194" on="1"/>
        <pt x="500" y="126" on="1"/>
        <pt x="506" y="127" on="1"/>
        <pt x="506" y="577" on="1"/>
        <pt x="580" y="577" on="1"/>
        <pt x="580" y="70" on="1"/>
        <pt x="580" y="48" on="0"/>
        <pt x="567" y="-8" on="0"/>
        <pt x="545" y="-67" on="0"/>
        <pt x="513" y="-126" on="0"/>
        <pt x="495" y="-151" on="1"/>
      </contour>
    </TTGlyph>
    <TTGlyph name="Eogonek" xMin="84" yMin="-220" xMax="535" yMax="740">
      <contour>
        <pt x="84" y="740" on="1"/>
        <pt x="526" y="740" on="1"/>
        <pt x="526" y="668" on="1"/>
        <pt x="169" y="668" on="1"/>
        <pt x="169" y="411" on="1"/>
        <pt x="498" y="411" on="1"/>
        <pt x="498" y="339" on="1"/>
        <pt x="169" y="339" on="1"/>
        <pt x="169" y="72" on="1"/>
        <pt x="535" y="72" on="1"/>
        <pt x="535" y="-17" on="1"/>
        <pt x="478" y="-43" on="0"/>
        <pt x="425" y="-100" on="0"/>
        <pt x="425" y="-129" on="1"/>
        <pt x="425" y="-165" on="0"/>
        <pt x="470" y="-165" on="1"/>
        <pt x="484" y="-165" on="0"/>
        <pt x="519" y="-159" on="0"/>
        <pt x="534" y="-154" on="1"/>
        <pt x="534" y="-208" on="1"/>
        <pt x="504" y="-220" on="0"/>
        <pt x="466" y="-220" on="1"/>
        <pt x="364" y="-220" on="0"/>
        <pt x="364" y="-134" on="1"/>
        <pt x="364" y="-96" on="0"/>
        <pt x="411" y="-33" on="0"/>
        <pt x="465" y="0" on="1"/>
        <pt x="84" y="0" on="1"/>
      </contour>
    </TTGlyph>
    <TTGlyph name="Eogonek.sc" xMin="80" yMin="-172" xMax="480" yMax="577">
      <contour>
        <pt x="418" y="-172" on="1"/>
        <pt x="327" y="-172" on="0"/>
        <pt x="327" y="-104" on="1"/>
        <pt x="327" y="-74" on="0"/>
        <pt x="365" y="-26" on="0"/>
        <pt x="412" y="0" on="1"/>
        <pt x="80" y="0" on="1"/>
        <pt x="80" y="577" on="1"/>
        <pt x="473" y="577" on="1"/>
        <pt x="473" y="511" on="1"/>
        <pt x="161" y="511" on="1"/>
        <pt x="161" y="324" on="1"/>
        <pt x="449" y="324" on="1"/>
        <pt x="449" y="261" on="1"/>
        <pt x="161" y="261" on="1"/>
        <pt x="161" y="66" on="1"/>
        <pt x="480" y="66" on="1"/>
        <pt x="480" y="-12" on="1"/>
        <pt x="430" y="-31" on="0"/>
        <pt x="385" y="-72" on="0"/>
        <pt x="385" y="-95" on="1"/>
        <pt x="385" y="-123" on="0"/>
        <pt x="423" y="-123" on="1"/>
        <pt x="436" y="-123" on="0"/>
        <pt x="468" y="-118" on="0"/>
        <pt x="480" y="-114" on="1"/>
        <pt x="480" y="-162" on="1"/>
        <pt x="466" y="-167" on="0"/>
        <pt x="435" y="-172" on="0"/>
      </contour>
    </TTGlyph>
    <TTGlyph name="Eth" xMin="3" yMin="-13" xMax="645" yMax="749">
      <contour>
        <pt x="3" y="404" on="1"/>
        <pt x="96" y="404" on="1"/>
        <pt x="96" y="736" on="1"/>
        <pt x="147" y="742" on="0"/>
        <pt x="250" y="749" on="0"/>
        <pt x="287" y="749" on="1"/>
        <pt x="473" y="749" on="0"/>
        <pt x="645" y="566" on="0"/>
        <pt x="645" y="370" on="1"/>
        <pt x="645" y="270" on="0"/>
        <pt x="601" y="125" on="0"/>
        <pt x="508" y="32" on="0"/>
        <pt x="363" y="-13" on="0"/>
        <pt x="263" y="-13" on="1"/>
        <pt x="214" y="-13" on="0"/>
        <pt x="126" y="-7" on="0"/>
        <pt x="96" y="-1" on="1"/>
        <pt x="96" y="335" on="1"/>
        <pt x="3" y="335" on="1"/>
      </contour>
      <contour>
        <pt x="287" y="60" on="1"/>
        <pt x="427" y="60" on="0"/>
        <pt x="558" y="207" on="0"/>
        <pt x="558" y="370" on="1"/>
        <pt x="558" y="532" on="0"/>
        <pt x="433" y="677" on="0"/>
        <pt x="295" y="677" on="1"/>
        <pt x="269" y="677" on="0"/>
        <pt x="208" y="673" on="0"/>
        <pt x="180" y="669" on="1"/>
        <pt x="180" y="404" on="1"/>
        <pt x="347" y="404" on="1"/>
        <pt x="347" y="335" on="1"/>
        <pt x="180" y="335" on="1"/>
        <pt x="180" y="68" on="1"/>
        <pt x="212" y="63" on="0"/>
        <pt x="260" y="60" on="0"/>
      </contour>
    </TTGlyph>
    <TTGlyph name="Eth.sc" xMin="10" yMin="-10" xMax="579" yMax="584">
      <contour>
        <pt x="10" y="320" on="1"/>
        <pt x="90" y="320" on="1"/>
        <pt x="90" y="575" on="1"/>
        <pt x="137" y="580" on="0"/>
        <pt x="230" y="584" on="0"/>
        <pt x="262" y="584" on="1"/>
        <pt x="427" y="584" on="0"/>
        <pt x="579" y="442" on="0"/>
        <pt x="579" y="288" on="1"/>
        <pt x="579" y="210" on="0"/>
        <pt x="540" y="97" on="0"/>
        <pt x="458" y="24" on="0"/>
        <pt x="330" y="-10" on="0"/>
        <pt x="241" y="-10" on="1"/>
        <pt x="197" y="-10" on="0"/>
        <pt x="118" y="-4" on="0"/>
        <pt x="90" y="1" on="1"/>
        <pt x="90" y="257" on="1"/>
        <pt x="10" y="257" on="1"/>
      </contour>
      <contour>
        <pt x="267" y="59" on="1"/>
        <pt x="327" y="59" on="0"/>
        <pt x="413" y="85" on="0"/>
        <pt x="468" y="140" on="0"/>
        <pt x="495" y="227" on="0"/>
        <pt x="495" y="288" on="1"/>
        <pt x="495" y="410" on="0"/>
        <pt x="389" y="516" on="0"/>
        <pt x="271" y="516" on="1"/>
        <pt x="249" y="516" on="0"/>
        <pt x="196" y="513" on="0"/>
        <pt x="172" y="511" on="1"/>
        <pt x="172" y="320" on="1"/>
        <pt x="313" y="320" on="1"/>
        <pt x="313" y="257" on="1"/>
        <pt x="172" y="257" on="1"/>
        <pt x="172" y="65" on="1"/>
        <pt x="199" y="61" on="0"/>
        <pt x="242" y="59" on="0"/>
      </contour>
    </TTGlyph>
    <TTGlyph name="Etilde" xMin="84" yMin="0" xMax="535" yMax="930">
      <contour>
        <pt x="124" y="856" on="1"/>
        <pt x="149" y="891" on="0"/>
        <pt x="212" y="930" on="0"/>
        <pt x="242" y="930" on="1"/>
        <pt x="264" y="930" on="0"/>
        <pt x="303" y="917" on="0"/>
        <pt x="340" y="901" on="0"/>
        <pt x="377" y="888" on="0"/>
        <pt x="398" y="888" on="1"/>
        <pt x="438" y="888" on="0"/>
        <pt x="477" y="927" on="1"/>
        <pt x="502" y="902" on="1"/>
        <pt x="479" y="866" on="0"/>
        <pt x="414" y="827" on="0"/>
        <pt x="382" y="827" on="1"/>
        <pt x="361" y="827" on="0"/>
        <pt x="323" y="839" on="0"/>
        <pt x="286" y="854" on="0"/>
        <pt x="248" y="867" on="0"/>
        <pt x="229" y="867" on="1"/>
        <pt x="186" y="867" on="0"/>
        <pt x="148" y="830" on="1"/>
      </contour>
      <contour>
        <pt x="84" y="740" on="1"/>
        <pt x="526" y="740" on="1"/>
        <pt x="526" y="668" on="1"/>
        <pt x="169" y="668" on="1"/>
        <pt x="169" y="411" on="1"/>
        <pt x="498" y="411" on="1"/>
        <pt x="498" y="339" on="1"/>
        <pt x="169" y="339" on="1"/>
        <pt x="169" y="72" on="1"/>
        <pt x="535" y="72" on="1"/>
        <pt x="535" y="0" on="1"/>
        <pt x="84" y="0" on="1"/>
      </contour>
    </TTGlyph>
    <TTGlyph name="Etilde.sc" xMin="79" yMin="0" xMax="480" yMax="733">
      <contour>
        <pt x="115" y="668" on="1"/>
        <pt x="138" y="699" on="0"/>
        <pt x="194" y="733" on="0"/>
        <pt x="221" y="733" on="1"/>
        <pt x="241" y="733" on="0"/>
        <pt x="275" y="723" on="0"/>
        <pt x="308" y="712" on="0"/>
        <pt x="342" y="702" on="0"/>
        <pt x="360" y="702" on="1"/>
        <pt x="398" y="702" on="0"/>
        <pt x="431" y="731" on="1"/>
        <pt x="452" y="711" on="1"/>
        <pt x="432" y="679" on="0"/>
        <pt x="373" y="644" on="0"/>
        <pt x="345" y="644" on="1"/>
        <pt x="326" y="644" on="0"/>
        <pt x="291" y="654" on="0"/>
        <pt x="258" y="666" on="0"/>
        <pt x="224" y="676" on="0"/>
        <pt x="207" y="676" on="1"/>
        <pt x="169" y="676" on="0"/>
        <pt x="135" y="646" on="1"/>
      </contour>
      <contour>
        <pt x="79" y="577" on="1"/>
        <pt x="473" y="577" on="1"/>
        <pt x="473" y="511" on="1"/>
        <pt x="161" y="511" on="1"/>
        <pt x="161" y="324" on="1"/>
        <pt x="449" y="324" on="1"/>
        <pt x="449" y="261" on="1"/>
        <pt x="161" y="261" on="1"/>
        <pt x="161" y="66" on="1"/>
        <pt x="480" y="66" on="1"/>
        <pt x="480" y="0" on="1"/>
        <pt x="79" y="0" on="1"/>
      </contour>
    </TTGlyph>
    <TTGlyph name="Euro" xMin="41" yMin="-10" xMax="553" yMax="749">
      <contour>
        <pt x="41" y="482" on="1"/>
        <pt x="127" y="482" on="1"/>
        <pt x="147" y="622" on="0"/>
        <pt x="307" y="749" on="0"/>
        <pt x="459" y="749" on="1"/>
        <pt x="491" y="749" on="0"/>
        <pt x="534" y="744" on="0"/>
        <pt x="553" y="741" on="1"/>
        <pt x="528" y="670" on="1"/>
        <pt x="517" y="672" on="0"/>
        <pt x="490" y="674" on="0"/>
        <pt x="473" y="674" on="1"/>
        <pt x="412" y="674" on="0"/>
        <pt x="322" y="653" on="0"/>
        <pt x="259" y="608" on="0"/>
        <pt x="222" y="534" on="0"/>
        <pt x="213" y="482" on="1"/>
        <pt x="474" y="482" on="1"/>
        <pt x="456" y="426" on="1"/>
        <pt x="207" y="426" on="1"/>
        <pt x="206" y="412" on="0"/>
        <pt x="206" y="385" on="0"/>
        <pt x="206" y="370" on="1"/>
        <pt x="206" y="355" on="0"/>
        <pt x="206" y="327" on="0"/>
        <pt x="207" y="314" on="1"/>
        <pt x="439" y="314" on="1"/>
        <pt x="420" y="258" on="1"/>
        <pt x="214" y="258" on="1"/>
        <pt x="223" y="206" on="0"/>
        <pt x="260" y="133" on="0"/>
        <pt x="322" y="86" on="0"/>
        <pt x="411" y="65" on="0"/>
        <pt x="470" y="65" on="1"/>
        <pt x="484" y="65" on="0"/>
        <pt x="521" y="68" on="0"/>
        <pt x="541" y="71" on="1"/>
        <pt x="541" y="-3" on="1"/>
        <pt x="514" y="-10" on="0"/>
        <pt x="463" y="-10" on="1"/>
        <pt x="311" y="-8" on="0"/>
        <pt x="148" y="120" on="0"/>
        <pt x="127" y="258" on="1"/>
        <pt x="41" y="258" on="1"/>
        <pt x="41" y="314" on="1"/>
        <pt x="122" y="314" on="1"/>
        <pt x="121" y="327" on="0"/>
        <pt x="120" y="355" on="0"/>
        <pt x="120" y="369" on="1"/>
        <pt x="120" y="384" on="0"/>
        <pt x="120" y="412" on="0"/>
        <pt x="121" y="426" on="1"/>
        <pt x="41" y="426" on="1"/>
      </contour>
    </TTGlyph>
    <TTGlyph name="Euro.tab" xMin="23" yMin="-10" xMax="524" yMax="749">
      <contour>
        <pt x="23" y="482" on="1"/>
        <pt x="108" y="482" on="1"/>
        <pt x="128" y="622" on="0"/>
        <pt x="284" y="749" on="0"/>
        <pt x="431" y="749" on="1"/>
        <pt x="463" y="749" on="0"/>
        <pt x="505" y="744" on="0"/>
        <pt x="524" y="741" on="1"/>
        <pt x="500" y="670" on="1"/>
        <pt x="489" y="672" on="0"/>
        <pt x="462" y="674" on="0"/>
        <pt x="445" y="674" on="1"/>
        <pt x="387" y="674" on="0"/>
        <pt x="301" y="653" on="0"/>
        <pt x="240" y="607" on="0"/>
        <pt x="203" y="534" on="0"/>
        <pt x="195" y="482" on="1"/>
        <pt x="447" y="482" on="1"/>
        <pt x="429" y="426" on="1"/>
        <pt x="187" y="426" on="1"/>
        <pt x="186" y="414" on="0"/>
        <pt x="185" y="383" on="0"/>
        <pt x="185" y="370" on="1"/>
        <pt x="185" y="356" on="0"/>
        <pt x="186" y="325" on="0"/>
        <pt x="187" y="314" on="1"/>
        <pt x="412" y="314" on="1"/>
        <pt x="394" y="258" on="1"/>
        <pt x="195" y="258" on="1"/>
        <pt x="212" y="157" on="0"/>
        <pt x="331" y="65" on="0"/>
        <pt x="442" y="65" on="1"/>
        <pt x="473" y="65" on="0"/>
        <pt x="512" y="71" on="1"/>
        <pt x="512" y="-3" on="1"/>
        <pt x="487" y="-10" on="0"/>
        <pt x="435" y="-10" on="1"/>
        <pt x="288" y="-9" on="0"/>
        <pt x="129" y="121" on="0"/>
        <pt x="108" y="258" on="1"/>
        <pt x="23" y="258" on="1"/>
        <pt x="23" y="314" on="1"/>
        <pt x="101" y="314" on="1"/>
        <pt x="100" y="327" on="0"/>
        <pt x="100" y="355" on="0"/>
        <pt x="100" y="369" on="1"/>
        <pt x="100" y="383" on="0"/>
        <pt x="100" y="413" on="0"/>
        <pt x="101" y="426" on="1"/>
        <pt x="23" y="426" on="1"/>
      </contour>
    </TTGlyph>
    <TTGlyph name="F" xMin="84" yMin="0" xMax="518" yMax="740">
      <contour>
        <pt x="84" y="740" on="1"/>
        <pt x="518" y="740" on="1"/>
        <pt x="518" y="668" on="1"/>
        <pt x="169" y="668" on="1"/>
        <pt x="169" y="404" on="1"/>
        <pt x="488" y="404" on="1"/>
        <pt x="488" y="332" on="1"/>
        <pt x="169" y="332" on="1"/>
        <pt x="169" y="0" on="1"/>
        <pt x="84" y="0" on="1"/>
      </contour>
    </TTGlyph>
    <TTGlyph name="F.sc" xMin="79" yMin="0" xMax="466" yMax="577">
      <contour>
        <pt x="79" y="577" on="1"/>
        <pt x="466" y="577" on="1"/>
        <pt x="466" y="510" on="1"/>
        <pt x="161" y="510" on="1"/>
        <pt x="161" y="317" on="1"/>
        <pt x="440" y="317" on="1"/>
        <pt x="440" y="252" on="1"/>
        <pt x="161" y="252" on="1"/>
        <pt x="161" y="0" on="1"/>
        <pt x="79" y="0" on="1"/>
      </contour>
    </TTGlyph>
    <TTGlyph name="F_B.sc" xMin="79" yMin="-8" xMax="1008" yMax="584">
      <contour>
        <pt x="79" y="577" on="1"/>
        <pt x="466" y="577" on="1"/>
        <pt x="466" y="510" on="1"/>
        <pt x="161" y="510" on="1"/>
        <pt x="161" y="317" on="1"/>
        <pt x="440" y="317" on="1"/>
        <pt x="440" y="252" on="1"/>
        <pt x="161" y="252" on="1"/>
        <pt x="161" y="0" on="1"/>
        <pt x="79" y="0" on="1"/>
      </contour>
      <contour>
        <pt x="762" y="-8" on="1"/>
        <pt x="716" y="-8" on="0"/>
        <pt x="613" y="-2" on="0"/>
        <pt x="564" y="4" on="1"/>
        <pt x="564" y="574" on="1"/>
        <pt x="625" y="579" on="0"/>
        <pt x="711" y="584" on="0"/>
        <pt x="752" y="584" on="1"/>
        <pt x="876" y="584" on="0"/>
        <pt x="988" y="509" on="0"/>
        <pt x="988" y="427" on="1"/>
        <pt x="988" y="375" on="0"/>
        <pt x="931" y="307" on="0"/>
        <pt x="879" y="296" on="1"/>
        <pt x="879" y="293" on="1"/>
        <pt x="942" y="282" on="0"/>
        <pt x="1008" y="211" on="0"/>
        <pt x="1008" y="153" on="1"/>
        <pt x="1008" y="-8" on="0"/>
      </contour>
      <contour>
        <pt x="765" y="53" on="1"/>
        <pt x="926" y="53" on="0"/>
        <pt x="926" y="159" on="1"/>
        <pt x="926" y="213" on="0"/>
        <pt x="852" y="263" on="0"/>
        <pt x="769" y="263" on="1"/>
        <pt x="642" y="263" on="1"/>
        <pt x="642" y="60" on="1"/>
        <pt x="659" y="57" on="0"/>
        <pt x="723" y="53" on="0"/>
      </contour>
      <contour>
        <pt x="765" y="320" on="1"/>
        <pt x="842" y="320" on="0"/>
        <pt x="906" y="366" on="0"/>
        <pt x="906" y="423" on="1"/>
        <pt x="906" y="477" on="0"/>
        <pt x="837" y="523" on="0"/>
        <pt x="757" y="523" on="1"/>
        <pt x="723" y="523" on="0"/>
        <pt x="668" y="520" on="0"/>
        <pt x="642" y="517" on="1"/>
        <pt x="642" y="320" on="1"/>
      </contour>
    </TTGlyph>
    <TTGlyph name="F_F.sc" xMin="79" yMin="0" xMax="950" yMax="577">
      <contour>
        <pt x="79" y="577" on="1"/>
        <pt x="466" y="577" on="1"/>
        <pt x="466" y="510" on="1"/>
        <pt x="161" y="510" on="1"/>
        <pt x="161" y="317" on="1"/>
        <pt x="440" y="317" on="1"/>
        <pt x="440" y="252" on="1"/>
        <pt x="161" y="252" on="1"/>
        <pt x="161" y="0" on="1"/>
        <pt x="79" y="0" on="1"/>
      </contour>
      <contour>
        <pt x="563" y="577" on="1"/>
        <pt x="950" y="577" on="1"/>
        <pt x="950" y="510" on="1"/>
        <pt x="645" y="510" on="1"/>
        <pt x="645" y="317" on="1"/>
        <pt x="924" y="317" on="1"/>
        <pt x="924" y="252" on="1"/>
        <pt x="645" y="252" on="1"/>
        <pt x="645" y="0" on="1"/>
        <pt x="563" y="0" on="1"/>
      </contour>
    </TTGlyph>
    <TTGlyph name="F_F_B.sc" xMin="79" yMin="-8" xMax="1491" yMax="584">
      <contour>
        <pt x="79" y="577" on="1"/>
        <pt x="466" y="577" on="1"/>
        <pt x="466" y="510" on="1"/>
        <pt x="161" y="510" on="1"/>
        <pt x="161" y="317" on="1"/>
        <pt x="440" y="317" on="1"/>
        <pt x="440" y="252" on="1"/>
        <pt x="161" y="252" on="1"/>
        <pt x="161" y="0" on="1"/>
        <pt x="79" y="0" on="1"/>
      </contour>
      <contour>
        <pt x="563" y="577" on="1"/>
        <pt x="950" y="577" on="1"/>
        <pt x="950" y="510" on="1"/>
        <pt x="645" y="510" on="1"/>
        <pt x="645" y="317" on="1"/>
        <pt x="924" y="317" on="1"/>
        <pt x="924" y="252" on="1"/>
        <pt x="645" y="252" on="1"/>
        <pt x="645" y="0" on="1"/>
        <pt x="563" y="0" on="1"/>
      </contour>
      <contour>
        <pt x="1245" y="-8" on="1"/>
        <pt x="1199" y="-8" on="0"/>
        <pt x="1096" y="-2" on="0"/>
        <pt x="1047" y="4" on="1"/>
        <pt x="1047" y="574" on="1"/>
        <pt x="1108" y="579" on="0"/>
        <pt x="1194" y="584" on="0"/>
        <pt x="1235" y="584" on="1"/>
        <pt x="1359" y="584" on="0"/>
        <pt x="1471" y="509" on="0"/>
        <pt x="1471" y="427" on="1"/>
        <pt x="1471" y="375" on="0"/>
        <pt x="1414" y="307" on="0"/>
        <pt x="1362" y="296" on="1"/>
        <pt x="1362" y="293" on="1"/>
        <pt x="1425" y="282" on="0"/>
        <pt x="1491" y="211" on="0"/>
        <pt x="1491" y="153" on="1"/>
        <pt x="1491" y="-8" on="0"/>
      </contour>
      <contour>
        <pt x="1248" y="53" on="1"/>
        <pt x="1409" y="53" on="0"/>
        <pt x="1409" y="159" on="1"/>
        <pt x="1409" y="213" on="0"/>
        <pt x="1335" y="263" on="0"/>
        <pt x="1252" y="263" on="1"/>
        <pt x="1125" y="263" on="1"/>
        <pt x="1125" y="60" on="1"/>
        <pt x="1142" y="57" on="0"/>
        <pt x="1206" y="53" on="0"/>
      </contour>
      <contour>
        <pt x="1248" y="320" on="1"/>
        <pt x="1325" y="320" on="0"/>
        <pt x="1389" y="366" on="0"/>
        <pt x="1389" y="423" on="1"/>
        <pt x="1389" y="477" on="0"/>
        <pt x="1320" y="523" on="0"/>
        <pt x="1240" y="523" on="1"/>
        <pt x="1206" y="523" on="0"/>
        <pt x="1151" y="520" on="0"/>
        <pt x="1125" y="517" on="1"/>
        <pt x="1125" y="320" on="1"/>
      </contour>
    </TTGlyph>
    <TTGlyph name="F_F_H.sc" xMin="79" yMin="0" xMax="1538" yMax="577">
      <contour>
        <pt x="79" y="577" on="1"/>
        <pt x="466" y="577" on="1"/>
        <pt x="466" y="510" on="1"/>
        <pt x="161" y="510" on="1"/>
        <pt x="161" y="317" on="1"/>
        <pt x="440" y="317" on="1"/>
        <pt x="440" y="252" on="1"/>
        <pt x="161" y="252" on="1"/>
        <pt x="161" y="0" on="1"/>
        <pt x="79" y="0" on="1"/>
      </contour>
      <contour>
        <pt x="563" y="577" on="1"/>
        <pt x="950" y="577" on="1"/>
        <pt x="950" y="510" on="1"/>
        <pt x="645" y="510" on="1"/>
        <pt x="645" y="317" on="1"/>
        <pt x="924" y="317" on="1"/>
        <pt x="924" y="252" on="1"/>
        <pt x="645" y="252" on="1"/>
        <pt x="645" y="0" on="1"/>
        <pt x="563" y="0" on="1"/>
      </contour>
      <contour>
        <pt x="1046" y="577" on="1"/>
        <pt x="1128" y="577" on="1"/>
        <pt x="1128" y="329" on="1"/>
        <pt x="1456" y="329" on="1"/>
        <pt x="1456" y="577" on="1"/>
        <pt x="1538" y="577" on="1"/>
        <pt x="1538" y="0" on="1"/>
        <pt x="1456" y="0" on="1"/>
        <pt x="1456" y="262" on="1"/>
        <pt x="1128" y="262" on="1"/>
        <pt x="1128" y="0" on="1"/>
        <pt x="1046" y="0" on="1"/>
      </contour>
    </TTGlyph>
    <TTGlyph name="F_F_I.sc" xMin="79" yMin="0" xMax="1128" yMax="577">
      <contour>
        <pt x="79" y="577" on="1"/>
        <pt x="466" y="577" on="1"/>
        <pt x="466" y="510" on="1"/>
        <pt x="161" y="510" on="1"/>
        <pt x="161" y="317" on="1"/>
        <pt x="440" y="317" on="1"/>
        <pt x="440" y="252" on="1"/>
        <pt x="161" y="252" on="1"/>
        <pt x="161" y="0" on="1"/>
        <pt x="79" y="0" on="1"/>
      </contour>
      <contour>
        <pt x="563" y="577" on="1"/>
        <pt x="950" y="577" on="1"/>
        <pt x="950" y="510" on="1"/>
        <pt x="645" y="510" on="1"/>
        <pt x="645" y="317" on="1"/>
        <pt x="924" y="317" on="1"/>
        <pt x="924" y="252" on="1"/>
        <pt x="645" y="252" on="1"/>
        <pt x="645" y="0" on="1"/>
        <pt x="563" y="0" on="1"/>
      </contour>
      <contour>
        <pt x="1046" y="577" on="1"/>
        <pt x="1128" y="577" on="1"/>
        <pt x="1128" y="0" on="1"/>
        <pt x="1046" y="0" on="1"/>
      </contour>
    </TTGlyph>
    <TTGlyph name="F_F_J.sc" xMin="79" yMin="-150" xMax="1139" yMax="577">
      <contour>
        <pt x="79" y="577" on="1"/>
        <pt x="466" y="577" on="1"/>
        <pt x="466" y="510" on="1"/>
        <pt x="161" y="510" on="1"/>
        <pt x="161" y="317" on="1"/>
        <pt x="440" y="317" on="1"/>
        <pt x="440" y="252" on="1"/>
        <pt x="161" y="252" on="1"/>
        <pt x="161" y="0" on="1"/>
        <pt x="79" y="0" on="1"/>
      </contour>
      <contour>
        <pt x="563" y="577" on="1"/>
        <pt x="950" y="577" on="1"/>
        <pt x="950" y="510" on="1"/>
        <pt x="645" y="510" on="1"/>
        <pt x="645" y="317" on="1"/>
        <pt x="924" y="317" on="1"/>
        <pt x="924" y="252" on="1"/>
        <pt x="645" y="252" on="1"/>
        <pt x="645" y="0" on="1"/>
        <pt x="563" y="0" on="1"/>
      </contour>
      <contour>
        <pt x="989" y="-124" on="1"/>
        <pt x="1009" y="-85" on="0"/>
        <pt x="1035" y="-21" on="0"/>
        <pt x="1051" y="41" on="0"/>
        <pt x="1057" y="107" on="0"/>
        <pt x="1057" y="146" on="1"/>
        <pt x="1057" y="577" on="1"/>
        <pt x="1139" y="577" on="1"/>
        <pt x="1139" y="141" on="1"/>
        <pt x="1139" y="102" on="0"/>
        <pt x="1129" y="33" on="0"/>
        <pt x="1107" y="-36" on="0"/>
        <pt x="1070" y="-108" on="0"/>
        <pt x="1043" y="-150" on="1"/>
      </contour>
    </TTGlyph>
    <TTGlyph name="F_F_K.sc" xMin="79" yMin="0" xMax="1531" yMax="577">
      <contour>
        <pt x="79" y="577" on="1"/>
        <pt x="466" y="577" on="1"/>
        <pt x="466" y="510" on="1"/>
        <pt x="161" y="510" on="1"/>
        <pt x="161" y="317" on="1"/>
        <pt x="440" y="317" on="1"/>
        <pt x="440" y="252" on="1"/>
        <pt x="161" y="252" on="1"/>
        <pt x="161" y="0" on="1"/>
        <pt x="79" y="0" on="1"/>
      </contour>
      <contour>
        <pt x="563" y="577" on="1"/>
        <pt x="950" y="577" on="1"/>
        <pt x="950" y="510" on="1"/>
        <pt x="645" y="510" on="1"/>
        <pt x="645" y="317" on="1"/>
        <pt x="924" y="317" on="1"/>
        <pt x="924" y="252" on="1"/>
        <pt x="645" y="252" on="1"/>
        <pt x="645" y="0" on="1"/>
        <pt x="563" y="0" on="1"/>
      </contour>
      <contour>
        <pt x="1046" y="577" on="1"/>
        <pt x="1128" y="577" on="1"/>
        <pt x="1128" y="327" on="1"/>
        <pt x="1234" y="327" on="1"/>
        <pt x="1421" y="577" on="1"/>
        <pt x="1515" y="577" on="1"/>
        <pt x="1322" y="319" on="1"/>
        <pt x="1289" y="299" on="1"/>
        <pt x="1289" y="294" on="1"/>
        <pt x="1323" y="275" on="1"/>
        <pt x="1531" y="0" on="1"/>
        <pt x="1438" y="0" on="1"/>
        <pt x="1240" y="260" on="1"/>
        <pt x="1128" y="260" on="1"/>
        <pt x="1128" y="0" on="1"/>
        <pt x="1046" y="0" on="1"/>
      </contour>
    </TTGlyph>
    <TTGlyph name="F_F_L.sc" xMin="79" yMin="0" xMax="1398" yMax="577">
      <contour>
        <pt x="1046" y="577" on="1"/>
        <pt x="1128" y="577" on="1"/>
        <pt x="1128" y="68" on="1"/>
        <pt x="1398" y="68" on="1"/>
        <pt x="1398" y="0" on="1"/>
        <pt x="1046" y="0" on="1"/>
      </contour>
      <contour>
        <pt x="79" y="577" on="1"/>
        <pt x="466" y="577" on="1"/>
        <pt x="466" y="510" on="1"/>
        <pt x="161" y="510" on="1"/>
        <pt x="161" y="317" on="1"/>
        <pt x="440" y="317" on="1"/>
        <pt x="440" y="252" on="1"/>
        <pt x="161" y="252" on="1"/>
        <pt x="161" y="0" on="1"/>
        <pt x="79" y="0" on="1"/>
      </contour>
      <contour>
        <pt x="563" y="577" on="1"/>
        <pt x="950" y="577" on="1"/>
        <pt x="950" y="510" on="1"/>
        <pt x="645" y="510" on="1"/>
        <pt x="645" y="317" on="1"/>
        <pt x="924" y="317" on="1"/>
        <pt x="924" y="252" on="1"/>
        <pt x="645" y="252" on="1"/>
        <pt x="645" y="0" on="1"/>
        <pt x="563" y="0" on="1"/>
      </contour>
    </TTGlyph>
    <TTGlyph name="F_F_T.sc" xMin="79" yMin="0" xMax="1440" yMax="577">
      <contour>
        <pt x="1166" y="509" on="1"/>
        <pt x="973" y="509" on="1"/>
        <pt x="973" y="577" on="1"/>
        <pt x="1440" y="577" on="1"/>
        <pt x="1440" y="509" on="1"/>
        <pt x="1248" y="509" on="1"/>
        <pt x="1248" y="0" on="1"/>
        <pt x="1166" y="0" on="1"/>
      </contour>
      <contour>
        <pt x="79" y="577" on="1"/>
        <pt x="466" y="577" on="1"/>
        <pt x="466" y="510" on="1"/>
        <pt x="161" y="510" on="1"/>
        <pt x="161" y="317" on="1"/>
        <pt x="440" y="317" on="1"/>
        <pt x="440" y="252" on="1"/>
        <pt x="161" y="252" on="1"/>
        <pt x="161" y="0" on="1"/>
        <pt x="79" y="0" on="1"/>
      </contour>
      <contour>
        <pt x="563" y="577" on="1"/>
        <pt x="950" y="577" on="1"/>
        <pt x="950" y="510" on="1"/>
        <pt x="645" y="510" on="1"/>
        <pt x="645" y="317" on="1"/>
        <pt x="924" y="317" on="1"/>
        <pt x="924" y="252" on="1"/>
        <pt x="645" y="252" on="1"/>
        <pt x="645" y="0" on="1"/>
        <pt x="563" y="0" on="1"/>
      </contour>
    </TTGlyph>
    <TTGlyph name="F_H.sc" xMin="79" yMin="0" xMax="1055" yMax="577">
      <contour>
        <pt x="79" y="577" on="1"/>
        <pt x="466" y="577" on="1"/>
        <pt x="466" y="510" on="1"/>
        <pt x="161" y="510" on="1"/>
        <pt x="161" y="317" on="1"/>
        <pt x="440" y="317" on="1"/>
        <pt x="440" y="252" on="1"/>
        <pt x="161" y="252" on="1"/>
        <pt x="161" y="0" on="1"/>
        <pt x="79" y="0" on="1"/>
      </contour>
      <contour>
        <pt x="563" y="577" on="1"/>
        <pt x="645" y="577" on="1"/>
        <pt x="645" y="329" on="1"/>
        <pt x="973" y="329" on="1"/>
        <pt x="973" y="577" on="1"/>
        <pt x="1055" y="577" on="1"/>
        <pt x="1055" y="0" on="1"/>
        <pt x="973" y="0" on="1"/>
        <pt x="973" y="262" on="1"/>
        <pt x="645" y="262" on="1"/>
        <pt x="645" y="0" on="1"/>
        <pt x="563" y="0" on="1"/>
      </contour>
    </TTGlyph>
    <TTGlyph name="F_I.sc" xMin="79" yMin="0" xMax="645" yMax="577">
      <contour>
        <pt x="79" y="577" on="1"/>
        <pt x="466" y="577" on="1"/>
        <pt x="466" y="510" on="1"/>
        <pt x="161" y="510" on="1"/>
        <pt x="161" y="317" on="1"/>
        <pt x="440" y="317" on="1"/>
        <pt x="440" y="252" on="1"/>
        <pt x="161" y="252" on="1"/>
        <pt x="161" y="0" on="1"/>
        <pt x="79" y="0" on="1"/>
      </contour>
      <contour>
        <pt x="563" y="577" on="1"/>
        <pt x="645" y="577" on="1"/>
        <pt x="645" y="0" on="1"/>
        <pt x="563" y="0" on="1"/>
      </contour>
    </TTGlyph>
    <TTGlyph name="F_J.sc" xMin="79" yMin="-150" xMax="655" yMax="577">
      <contour>
        <pt x="79" y="577" on="1"/>
        <pt x="466" y="577" on="1"/>
        <pt x="466" y="510" on="1"/>
        <pt x="161" y="510" on="1"/>
        <pt x="161" y="317" on="1"/>
        <pt x="440" y="317" on="1"/>
        <pt x="440" y="252" on="1"/>
        <pt x="161" y="252" on="1"/>
        <pt x="161" y="0" on="1"/>
        <pt x="79" y="0" on="1"/>
      </contour>
      <contour>
        <pt x="505" y="-124" on="1"/>
        <pt x="525" y="-85" on="0"/>
        <pt x="551" y="-21" on="0"/>
        <pt x="567" y="41" on="0"/>
        <pt x="573" y="107" on="0"/>
        <pt x="573" y="146" on="1"/>
        <pt x="573" y="577" on="1"/>
        <pt x="655" y="577" on="1"/>
        <pt x="655" y="141" on="1"/>
        <pt x="655" y="102" on="0"/>
        <pt x="645" y="33" on="0"/>
        <pt x="623" y="-36" on="0"/>
        <pt x="586" y="-108" on="0"/>
        <pt x="559" y="-150" on="1"/>
      </contour>
    </TTGlyph>
    <TTGlyph name="F_K.sc" xMin="79" yMin="0" xMax="1048" yMax="577">
      <contour>
        <pt x="79" y="577" on="1"/>
        <pt x="466" y="577" on="1"/>
        <pt x="466" y="510" on="1"/>
        <pt x="161" y="510" on="1"/>
        <pt x="161" y="317" on="1"/>
        <pt x="440" y="317" on="1"/>
        <pt x="440" y="252" on="1"/>
        <pt x="161" y="252" on="1"/>
        <pt x="161" y="0" on="1"/>
        <pt x="79" y="0" on="1"/>
      </contour>
      <contour>
        <pt x="563" y="577" on="1"/>
        <pt x="645" y="577" on="1"/>
        <pt x="645" y="327" on="1"/>
        <pt x="751" y="327" on="1"/>
        <pt x="938" y="577" on="1"/>
        <pt x="1032" y="577" on="1"/>
        <pt x="839" y="319" on="1"/>
        <pt x="806" y="299" on="1"/>
        <pt x="806" y="294" on="1"/>
        <pt x="840" y="275" on="1"/>
        <pt x="1048" y="0" on="1"/>
        <pt x="955" y="0" on="1"/>
        <pt x="757" y="260" on="1"/>
        <pt x="645" y="260" on="1"/>
        <pt x="645" y="0" on="1"/>
        <pt x="563" y="0" on="1"/>
      </contour>
    </TTGlyph>
    <TTGlyph name="F_L.sc" xMin="79" yMin="0" xMax="915" yMax="577">
      <contour>
        <pt x="563" y="577" on="1"/>
        <pt x="645" y="577" on="1"/>
        <pt x="645" y="68" on="1"/>
        <pt x="915" y="68" on="1"/>
        <pt x="915" y="0" on="1"/>
        <pt x="563" y="0" on="1"/>
      </contour>
      <contour>
        <pt x="79" y="577" on="1"/>
        <pt x="466" y="577" on="1"/>
        <pt x="466" y="510" on="1"/>
        <pt x="161" y="510" on="1"/>
        <pt x="161" y="317" on="1"/>
        <pt x="440" y="317" on="1"/>
        <pt x="440" y="252" on="1"/>
        <pt x="161" y="252" on="1"/>
        <pt x="161" y="0" on="1"/>
        <pt x="79" y="0" on="1"/>
      </contour>
    </TTGlyph>
    <TTGlyph name="F_T.sc" xMin="79" yMin="0" xMax="956" yMax="577">
      <contour>
        <pt x="682" y="509" on="1"/>
        <pt x="489" y="509" on="1"/>
        <pt x="489" y="577" on="1"/>
        <pt x="956" y="577" on="1"/>
        <pt x="956" y="509" on="1"/>
        <pt x="764" y="509" on="1"/>
        <pt x="764" y="0" on="1"/>
        <pt x="682" y="0" on="1"/>
      </contour>
      <contour>
        <pt x="79" y="577" on="1"/>
        <pt x="466" y="577" on="1"/>
        <pt x="466" y="510" on="1"/>
        <pt x="161" y="510" on="1"/>
        <pt x="161" y="317" on="1"/>
        <pt x="440" y="317" on="1"/>
        <pt x="440" y="252" on="1"/>
        <pt x="161" y="252" on="1"/>
        <pt x="161" y="0" on="1"/>
        <pt x="79" y="0" on="1"/>
      </contour>
    </TTGlyph>
    <TTGlyph name="G" xMin="48" yMin="-9" xMax="566" yMax="749">
      <contour>
        <pt x="378" y="-9" on="1"/>
        <pt x="210" y="-8" on="0"/>
        <pt x="48" y="177" on="0"/>
        <pt x="48" y="369" on="1"/>
        <pt x="48" y="564" on="0"/>
        <pt x="215" y="749" on="0"/>
        <pt x="389" y="749" on="1"/>
        <pt x="427" y="749" on="0"/>
        <pt x="517" y="739" on="0"/>
        <pt x="561" y="728" on="1"/>
        <pt x="561" y="655" on="1"/>
        <pt x="508" y="666" on="0"/>
        <pt x="431" y="676" on="0"/>
        <pt x="396" y="676" on="1"/>
        <pt x="327" y="676" on="0"/>
        <pt x="229" y="641" on="0"/>
        <pt x="166" y="566" on="0"/>
        <pt x="136" y="450" on="0"/>
        <pt x="136" y="369" on="1"/>
        <pt x="136" y="210" on="0"/>
        <pt x="253" y="64" on="0"/>
        <pt x="381" y="64" on="1"/>
        <pt x="401" y="64" on="0"/>
        <pt x="458" y="69" on="0"/>
        <pt x="486" y="73" on="1"/>
        <pt x="486" y="376" on="1"/>
        <pt x="566" y="376" on="1"/>
        <pt x="566" y="16" on="1"/>
        <pt x="516" y="4" on="0"/>
        <pt x="418" y="-9" on="0"/>
      </contour>
    </TTGlyph>
    <TTGlyph name="G.sc" xMin="48" yMin="-8" xMax="506" yMax="585">
      <contour>
        <pt x="337" y="-8" on="1"/>
        <pt x="190" y="-7" on="0"/>
        <pt x="48" y="139" on="0"/>
        <pt x="48" y="288" on="1"/>
        <pt x="48" y="439" on="0"/>
        <pt x="195" y="585" on="0"/>
        <pt x="348" y="585" on="1"/>
        <pt x="382" y="585" on="0"/>
        <pt x="464" y="576" on="0"/>
        <pt x="502" y="567" on="1"/>
        <pt x="502" y="500" on="1"/>
        <pt x="454" y="508" on="0"/>
        <pt x="386" y="516" on="0"/>
        <pt x="355" y="516" on="1"/>
        <pt x="295" y="516" on="0"/>
        <pt x="211" y="490" on="0"/>
        <pt x="157" y="435" on="0"/>
        <pt x="132" y="348" on="0"/>
        <pt x="132" y="288" on="1"/>
        <pt x="132" y="169" on="0"/>
        <pt x="230" y="62" on="0"/>
        <pt x="341" y="62" on="1"/>
        <pt x="348" y="62" on="0"/>
        <pt x="370" y="63" on="0"/>
        <pt x="395" y="65" on="0"/>
        <pt x="420" y="69" on="0"/>
        <pt x="430" y="71" on="1"/>
        <pt x="430" y="293" on="1"/>
        <pt x="506" y="293" on="1"/>
        <pt x="506" y="14" on="1"/>
        <pt x="461" y="4" on="0"/>
        <pt x="373" y="-8" on="0"/>
      </contour>
    </TTGlyph>
    <TTGlyph name="Gacute" xMin="48" yMin="-9" xMax="566" yMax="942">
      <contour>
        <pt x="313" y="801" on="1"/>
        <pt x="387" y="942" on="1"/>
        <pt x="475" y="942" on="1"/>
        <pt x="378" y="795" on="1"/>
      </contour>
      <contour>
        <pt x="378" y="-9" on="1"/>
        <pt x="210" y="-8" on="0"/>
        <pt x="48" y="177" on="0"/>
        <pt x="48" y="369" on="1"/>
        <pt x="48" y="564" on="0"/>
        <pt x="215" y="749" on="0"/>
        <pt x="389" y="749" on="1"/>
        <pt x="427" y="749" on="0"/>
        <pt x="517" y="739" on="0"/>
        <pt x="561" y="728" on="1"/>
        <pt x="561" y="655" on="1"/>
        <pt x="508" y="666" on="0"/>
        <pt x="431" y="676" on="0"/>
        <pt x="396" y="676" on="1"/>
        <pt x="327" y="676" on="0"/>
        <pt x="229" y="641" on="0"/>
        <pt x="166" y="566" on="0"/>
        <pt x="136" y="450" on="0"/>
        <pt x="136" y="369" on="1"/>
        <pt x="136" y="210" on="0"/>
        <pt x="253" y="64" on="0"/>
        <pt x="381" y="64" on="1"/>
        <pt x="401" y="64" on="0"/>
        <pt x="458" y="69" on="0"/>
        <pt x="486" y="73" on="1"/>
        <pt x="486" y="376" on="1"/>
        <pt x="566" y="376" on="1"/>
        <pt x="566" y="16" on="1"/>
        <pt x="516" y="4" on="0"/>
        <pt x="418" y="-9" on="0"/>
      </contour>
    </TTGlyph>
    <TTGlyph name="Gacute.sc" xMin="48" yMin="-8" xMax="506" yMax="742">
      <contour>
        <pt x="337" y="-8" on="1"/>
        <pt x="190" y="-7" on="0"/>
        <pt x="48" y="138" on="0"/>
        <pt x="48" y="288" on="1"/>
        <pt x="48" y="440" on="0"/>
        <pt x="195" y="585" on="0"/>
        <pt x="348" y="585" on="1"/>
        <pt x="383" y="585" on="0"/>
        <pt x="464" y="576" on="0"/>
        <pt x="502" y="567" on="1"/>
        <pt x="502" y="499" on="1"/>
        <pt x="454" y="508" on="0"/>
        <pt x="386" y="516" on="0"/>
        <pt x="355" y="516" on="1"/>
        <pt x="296" y="516" on="0"/>
        <pt x="211" y="490" on="0"/>
        <pt x="157" y="435" on="0"/>
        <pt x="132" y="349" on="0"/>
        <pt x="132" y="288" on="1"/>
        <pt x="132" y="169" on="0"/>
        <pt x="231" y="62" on="0"/>
        <pt x="341" y="62" on="1"/>
        <pt x="348" y="62" on="0"/>
        <pt x="370" y="63" on="0"/>
        <pt x="395" y="65" on="0"/>
        <pt x="420" y="69" on="0"/>
        <pt x="430" y="71" on="1"/>
        <pt x="430" y="293" on="1"/>
        <pt x="506" y="293" on="1"/>
        <pt x="506" y="14" on="1"/>
        <pt x="462" y="4" on="0"/>
        <pt x="373" y="-8" on="0"/>
      </contour>
      <contour>
        <pt x="277" y="627" on="1"/>
        <pt x="340" y="742" on="1"/>
        <pt x="424" y="742" on="1"/>
        <pt x="338" y="622" on="1"/>
      </contour>
    </TTGlyph>
    <TTGlyph name="Gbreve" xMin="48" yMin="-9" xMax="566" yMax="960">
      <contour>
        <pt x="354" y="812" on="1"/>
        <pt x="269" y="812" on="0"/>
        <pt x="183" y="892" on="0"/>
        <pt x="183" y="960" on="1"/>
        <pt x="247" y="960" on="1"/>
        <pt x="247" y="913" on="0"/>
        <pt x="300" y="863" on="0"/>
        <pt x="354" y="863" on="1"/>
        <pt x="407" y="863" on="0"/>
        <pt x="461" y="913" on="0"/>
        <pt x="461" y="960" on="1"/>
        <pt x="525" y="960" on="1"/>
        <pt x="525" y="892" on="0"/>
        <pt x="439" y="812" on="0"/>
      </contour>
      <contour>
        <pt x="378" y="-9" on="1"/>
        <pt x="210" y="-8" on="0"/>
        <pt x="48" y="177" on="0"/>
        <pt x="48" y="369" on="1"/>
        <pt x="48" y="564" on="0"/>
        <pt x="215" y="749" on="0"/>
        <pt x="389" y="749" on="1"/>
        <pt x="427" y="749" on="0"/>
        <pt x="517" y="739" on="0"/>
        <pt x="561" y="728" on="1"/>
        <pt x="561" y="655" on="1"/>
        <pt x="508" y="666" on="0"/>
        <pt x="431" y="676" on="0"/>
        <pt x="396" y="676" on="1"/>
        <pt x="327" y="676" on="0"/>
        <pt x="229" y="641" on="0"/>
        <pt x="166" y="566" on="0"/>
        <pt x="136" y="450" on="0"/>
        <pt x="136" y="369" on="1"/>
        <pt x="136" y="210" on="0"/>
        <pt x="253" y="64" on="0"/>
        <pt x="381" y="64" on="1"/>
        <pt x="401" y="64" on="0"/>
        <pt x="458" y="69" on="0"/>
        <pt x="486" y="73" on="1"/>
        <pt x="486" y="376" on="1"/>
        <pt x="566" y="376" on="1"/>
        <pt x="566" y="16" on="1"/>
        <pt x="516" y="4" on="0"/>
        <pt x="418" y="-9" on="0"/>
      </contour>
    </TTGlyph>
    <TTGlyph name="Gbreve.sc" xMin="48" yMin="-8" xMax="506" yMax="753">
      <contour>
        <pt x="337" y="-8" on="1"/>
        <pt x="190" y="-7" on="0"/>
        <pt x="48" y="138" on="0"/>
        <pt x="48" y="288" on="1"/>
        <pt x="48" y="440" on="0"/>
        <pt x="195" y="585" on="0"/>
        <pt x="348" y="585" on="1"/>
        <pt x="383" y="585" on="0"/>
        <pt x="464" y="576" on="0"/>
        <pt x="502" y="567" on="1"/>
        <pt x="502" y="499" on="1"/>
        <pt x="454" y="508" on="0"/>
        <pt x="386" y="516" on="0"/>
        <pt x="355" y="516" on="1"/>
        <pt x="296" y="516" on="0"/>
        <pt x="211" y="490" on="0"/>
        <pt x="157" y="435" on="0"/>
        <pt x="132" y="349" on="0"/>
        <pt x="132" y="288" on="1"/>
        <pt x="132" y="169" on="0"/>
        <pt x="231" y="62" on="0"/>
        <pt x="341" y="62" on="1"/>
        <pt x="348" y="62" on="0"/>
        <pt x="370" y="63" on="0"/>
        <pt x="395" y="65" on="0"/>
        <pt x="420" y="69" on="0"/>
        <pt x="430" y="71" on="1"/>
        <pt x="430" y="293" on="1"/>
        <pt x="506" y="293" on="1"/>
        <pt x="506" y="14" on="1"/>
        <pt x="462" y="4" on="0"/>
        <pt x="373" y="-8" on="0"/>
      </contour>
      <contour>
        <pt x="316" y="632" on="1"/>
        <pt x="239" y="632" on="0"/>
        <pt x="164" y="698" on="0"/>
        <pt x="164" y="753" on="1"/>
        <pt x="223" y="753" on="1"/>
        <pt x="223" y="678" on="0"/>
        <pt x="316" y="678" on="1"/>
        <pt x="408" y="678" on="0"/>
        <pt x="408" y="753" on="1"/>
        <pt x="468" y="753" on="1"/>
        <pt x="468" y="698" on="0"/>
        <pt x="392" y="632" on="0"/>
      </contour>
    </TTGlyph>
    <TTGlyph name="Gcircumflex" xMin="48" yMin="-9" xMax="566" yMax="953">
      <contour>
        <pt x="378" y="-9" on="1"/>
        <pt x="210" y="-8" on="0"/>
        <pt x="48" y="177" on="0"/>
        <pt x="48" y="369" on="1"/>
        <pt x="48" y="564" on="0"/>
        <pt x="215" y="749" on="0"/>
        <pt x="389" y="749" on="1"/>
        <pt x="427" y="749" on="0"/>
        <pt x="517" y="739" on="0"/>
        <pt x="561" y="728" on="1"/>
        <pt x="561" y="655" on="1"/>
        <pt x="508" y="666" on="0"/>
        <pt x="431" y="676" on="0"/>
        <pt x="396" y="676" on="1"/>
        <pt x="327" y="676" on="0"/>
        <pt x="229" y="641" on="0"/>
        <pt x="166" y="566" on="0"/>
        <pt x="136" y="450" on="0"/>
        <pt x="136" y="369" on="1"/>
        <pt x="136" y="210" on="0"/>
        <pt x="253" y="64" on="0"/>
        <pt x="381" y="64" on="1"/>
        <pt x="401" y="64" on="0"/>
        <pt x="458" y="69" on="0"/>
        <pt x="486" y="73" on="1"/>
        <pt x="486" y="376" on="1"/>
        <pt x="566" y="376" on="1"/>
        <pt x="566" y="16" on="1"/>
        <pt x="516" y="4" on="0"/>
        <pt x="418" y="-9" on="0"/>
      </contour>
      <contour>
        <pt x="196" y="879" on="1"/>
        <pt x="351" y="953" on="1"/>
        <pt x="506" y="879" on="1"/>
        <pt x="506" y="811" on="1"/>
        <pt x="351" y="884" on="1"/>
        <pt x="196" y="811" on="1"/>
      </contour>
    </TTGlyph>
    <TTGlyph name="Gcircumflex.sc" xMin="48" yMin="-8" xMax="506" yMax="749">
      <contour>
        <pt x="337" y="-8" on="1"/>
        <pt x="190" y="-7" on="0"/>
        <pt x="48" y="138" on="0"/>
        <pt x="48" y="288" on="1"/>
        <pt x="48" y="440" on="0"/>
        <pt x="195" y="585" on="0"/>
        <pt x="348" y="585" on="1"/>
        <pt x="383" y="585" on="0"/>
        <pt x="464" y="576" on="0"/>
        <pt x="502" y="567" on="1"/>
        <pt x="502" y="499" on="1"/>
        <pt x="454" y="508" on="0"/>
        <pt x="386" y="516" on="0"/>
        <pt x="355" y="516" on="1"/>
        <pt x="296" y="516" on="0"/>
        <pt x="211" y="490" on="0"/>
        <pt x="157" y="435" on="0"/>
        <pt x="132" y="349" on="0"/>
        <pt x="132" y="288" on="1"/>
        <pt x="132" y="169" on="0"/>
        <pt x="231" y="62" on="0"/>
        <pt x="341" y="62" on="1"/>
        <pt x="348" y="62" on="0"/>
        <pt x="370" y="63" on="0"/>
        <pt x="395" y="65" on="0"/>
        <pt x="420" y="69" on="0"/>
        <pt x="430" y="71" on="1"/>
        <pt x="430" y="293" on="1"/>
        <pt x="506" y="293" on="1"/>
        <pt x="506" y="14" on="1"/>
        <pt x="462" y="4" on="0"/>
        <pt x="373" y="-8" on="0"/>
      </contour>
      <contour>
        <pt x="174" y="691" on="1"/>
        <pt x="312" y="749" on="1"/>
        <pt x="451" y="691" on="1"/>
        <pt x="451" y="630" on="1"/>
        <pt x="313" y="688" on="1"/>
        <pt x="174" y="630" on="1"/>
      </contour>
    </TTGlyph>
    <TTGlyph name="Gcommaaccent" xMin="48" yMin="-220" xMax="566" yMax="749">
      <contour>
        <pt x="319" y="-68" on="1"/>
        <pt x="406" y="-68" on="1"/>
        <pt x="340" y="-220" on="1"/>
        <pt x="271" y="-220" on="1"/>
      </contour>
      <contour>
        <pt x="378" y="-9" on="1"/>
        <pt x="210" y="-8" on="0"/>
        <pt x="48" y="177" on="0"/>
        <pt x="48" y="369" on="1"/>
        <pt x="48" y="564" on="0"/>
        <pt x="215" y="749" on="0"/>
        <pt x="389" y="749" on="1"/>
        <pt x="427" y="749" on="0"/>
        <pt x="517" y="739" on="0"/>
        <pt x="561" y="728" on="1"/>
        <pt x="561" y="655" on="1"/>
        <pt x="508" y="666" on="0"/>
        <pt x="431" y="676" on="0"/>
        <pt x="396" y="676" on="1"/>
        <pt x="327" y="676" on="0"/>
        <pt x="229" y="641" on="0"/>
        <pt x="166" y="566" on="0"/>
        <pt x="136" y="450" on="0"/>
        <pt x="136" y="369" on="1"/>
        <pt x="136" y="210" on="0"/>
        <pt x="253" y="64" on="0"/>
        <pt x="381" y="64" on="1"/>
        <pt x="401" y="64" on="0"/>
        <pt x="458" y="69" on="0"/>
        <pt x="486" y="73" on="1"/>
        <pt x="486" y="376" on="1"/>
        <pt x="566" y="376" on="1"/>
        <pt x="566" y="16" on="1"/>
        <pt x="516" y="4" on="0"/>
        <pt x="418" y="-9" on="0"/>
      </contour>
    </TTGlyph>
    <TTGlyph name="Gcommaaccent.sc" xMin="48" yMin="-172" xMax="506" yMax="585">
      <contour>
        <pt x="337" y="-8" on="1"/>
        <pt x="190" y="-7" on="0"/>
        <pt x="48" y="138" on="0"/>
        <pt x="48" y="288" on="1"/>
        <pt x="48" y="440" on="0"/>
        <pt x="195" y="585" on="0"/>
        <pt x="348" y="585" on="1"/>
        <pt x="383" y="585" on="0"/>
        <pt x="464" y="576" on="0"/>
        <pt x="502" y="567" on="1"/>
        <pt x="502" y="499" on="1"/>
        <pt x="454" y="508" on="0"/>
        <pt x="386" y="516" on="0"/>
        <pt x="355" y="516" on="1"/>
        <pt x="296" y="516" on="0"/>
        <pt x="211" y="490" on="0"/>
        <pt x="157" y="435" on="0"/>
        <pt x="132" y="349" on="0"/>
        <pt x="132" y="288" on="1"/>
        <pt x="132" y="169" on="0"/>
        <pt x="231" y="62" on="0"/>
        <pt x="341" y="62" on="1"/>
        <pt x="348" y="62" on="0"/>
        <pt x="370" y="63" on="0"/>
        <pt x="395" y="65" on="0"/>
        <pt x="420" y="69" on="0"/>
        <pt x="430" y="71" on="1"/>
        <pt x="430" y="293" on="1"/>
        <pt x="506" y="293" on="1"/>
        <pt x="506" y="14" on="1"/>
        <pt x="462" y="4" on="0"/>
        <pt x="373" y="-8" on="0"/>
      </contour>
      <contour>
        <pt x="281" y="-54" on="1"/>
        <pt x="365" y="-54" on="1"/>
        <pt x="305" y="-172" on="1"/>
        <pt x="240" y="-172" on="1"/>
      </contour>
    </TTGlyph>
    <TTGlyph name="Gdotaccent" xMin="48" yMin="-9" xMax="566" yMax="915">
      <contour>
        <pt x="353" y="809" on="1"/>
        <pt x="327" y="809" on="0"/>
        <pt x="299" y="833" on="0"/>
        <pt x="299" y="861" on="1"/>
        <pt x="299" y="890" on="0"/>
        <pt x="327" y="915" on="0"/>
        <pt x="353" y="915" on="1"/>
        <pt x="379" y="915" on="0"/>
        <pt x="408" y="890" on="0"/>
        <pt x="408" y="861" on="1"/>
        <pt x="408" y="809" on="0"/>
      </contour>
      <contour>
        <pt x="378" y="-9" on="1"/>
        <pt x="210" y="-8" on="0"/>
        <pt x="48" y="177" on="0"/>
        <pt x="48" y="369" on="1"/>
        <pt x="48" y="564" on="0"/>
        <pt x="215" y="749" on="0"/>
        <pt x="389" y="749" on="1"/>
        <pt x="427" y="749" on="0"/>
        <pt x="517" y="739" on="0"/>
        <pt x="561" y="728" on="1"/>
        <pt x="561" y="655" on="1"/>
        <pt x="508" y="666" on="0"/>
        <pt x="431" y="676" on="0"/>
        <pt x="396" y="676" on="1"/>
        <pt x="327" y="676" on="0"/>
        <pt x="229" y="641" on="0"/>
        <pt x="166" y="566" on="0"/>
        <pt x="136" y="450" on="0"/>
        <pt x="136" y="369" on="1"/>
        <pt x="136" y="210" on="0"/>
        <pt x="253" y="64" on="0"/>
        <pt x="381" y="64" on="1"/>
        <pt x="401" y="64" on="0"/>
        <pt x="458" y="69" on="0"/>
        <pt x="486" y="73" on="1"/>
        <pt x="486" y="376" on="1"/>
        <pt x="566" y="376" on="1"/>
        <pt x="566" y="16" on="1"/>
        <pt x="516" y="4" on="0"/>
        <pt x="418" y="-9" on="0"/>
      </contour>
    </TTGlyph>
    <TTGlyph name="Gdotaccent.sc" xMin="48" yMin="-8" xMax="506" yMax="726">
      <contour>
        <pt x="337" y="-8" on="1"/>
        <pt x="190" y="-7" on="0"/>
        <pt x="48" y="138" on="0"/>
        <pt x="48" y="288" on="1"/>
        <pt x="48" y="440" on="0"/>
        <pt x="195" y="585" on="0"/>
        <pt x="348" y="585" on="1"/>
        <pt x="383" y="585" on="0"/>
        <pt x="464" y="576" on="0"/>
        <pt x="502" y="567" on="1"/>
        <pt x="502" y="499" on="1"/>
        <pt x="454" y="508" on="0"/>
        <pt x="386" y="516" on="0"/>
        <pt x="355" y="516" on="1"/>
        <pt x="296" y="516" on="0"/>
        <pt x="211" y="490" on="0"/>
        <pt x="157" y="435" on="0"/>
        <pt x="132" y="349" on="0"/>
        <pt x="132" y="288" on="1"/>
        <pt x="132" y="169" on="0"/>
        <pt x="231" y="62" on="0"/>
        <pt x="341" y="62" on="1"/>
        <pt x="348" y="62" on="0"/>
        <pt x="370" y="63" on="0"/>
        <pt x="395" y="65" on="0"/>
        <pt x="420" y="69" on="0"/>
        <pt x="430" y="71" on="1"/>
        <pt x="430" y="293" on="1"/>
        <pt x="506" y="293" on="1"/>
        <pt x="506" y="14" on="1"/>
        <pt x="462" y="4" on="0"/>
        <pt x="373" y="-8" on="0"/>
      </contour>
      <contour>
        <pt x="316" y="630" on="1"/>
        <pt x="291" y="630" on="0"/>
        <pt x="266" y="653" on="0"/>
        <pt x="266" y="679" on="1"/>
        <pt x="266" y="726" on="0"/>
        <pt x="316" y="726" on="1"/>
        <pt x="367" y="726" on="0"/>
        <pt x="367" y="679" on="1"/>
        <pt x="367" y="630" on="0"/>
      </contour>
    </TTGlyph>
    <TTGlyph name="H" xMin="84" yMin="0" xMax="636" yMax="740">
      <contour>
        <pt x="84" y="740" on="1"/>
        <pt x="169" y="740" on="1"/>
        <pt x="169" y="415" on="1"/>
        <pt x="551" y="415" on="1"/>
        <pt x="551" y="740" on="1"/>
        <pt x="636" y="740" on="1"/>
        <pt x="636" y="0" on="1"/>
        <pt x="551" y="0" on="1"/>
        <pt x="551" y="343" on="1"/>
        <pt x="169" y="343" on="1"/>
        <pt x="169" y="0" on="1"/>
        <pt x="84" y="0" on="1"/>
      </contour>
    </TTGlyph>
    <TTGlyph name="H.sc" xMin="79" yMin="0" xMax="571" yMax="577">
      <contour>
        <pt x="79" y="577" on="1"/>
        <pt x="161" y="577" on="1"/>
        <pt x="161" y="329" on="1"/>
        <pt x="489" y="329" on="1"/>
        <pt x="489" y="577" on="1"/>
        <pt x="571" y="577" on="1"/>
        <pt x="571" y="0" on="1"/>
        <pt x="489" y="0" on="1"/>
        <pt x="489" y="262" on="1"/>
        <pt x="161" y="262" on="1"/>
        <pt x="161" y="0" on="1"/>
        <pt x="79" y="0" on="1"/>
      </contour>
    </TTGlyph>
    <TTGlyph name="Hbar" xMin="5" yMin="0" xMax="739" yMax="740">
      <contour>
        <pt x="5" y="594" on="1"/>
        <pt x="95" y="594" on="1"/>
        <pt x="95" y="740" on="1"/>
        <pt x="180" y="740" on="1"/>
        <pt x="180" y="594" on="1"/>
        <pt x="562" y="594" on="1"/>
        <pt x="562" y="740" on="1"/>
        <pt x="647" y="740" on="1"/>
        <pt x="647" y="594" on="1"/>
        <pt x="739" y="594" on="1"/>
        <pt x="739" y="546" on="1"/>
        <pt x="647" y="546" on="1"/>
        <pt x="647" y="0" on="1"/>
        <pt x="562" y="0" on="1"/>
        <pt x="562" y="343" on="1"/>
        <pt x="180" y="343" on="1"/>
        <pt x="180" y="0" on="1"/>
        <pt x="95" y="0" on="1"/>
        <pt x="95" y="546" on="1"/>
        <pt x="5" y="546" on="1"/>
      </contour>
      <contour>
        <pt x="562" y="415" on="1"/>
        <pt x="562" y="546" on="1"/>
        <pt x="180" y="546" on="1"/>
        <pt x="180" y="415" on="1"/>
      </contour>
    </TTGlyph>
    <TTGlyph name="Hbar.sc" xMin="11" yMin="0" xMax="657" yMax="577">
      <contour>
        <pt x="11" y="468" on="1"/>
        <pt x="88" y="468" on="1"/>
        <pt x="88" y="577" on="1"/>
        <pt x="169" y="577" on="1"/>
        <pt x="169" y="468" on="1"/>
        <pt x="497" y="468" on="1"/>
        <pt x="497" y="577" on="1"/>
        <pt x="579" y="577" on="1"/>
        <pt x="579" y="468" on="1"/>
        <pt x="657" y="468" on="1"/>
        <pt x="657" y="424" on="1"/>
        <pt x="579" y="424" on="1"/>
        <pt x="579" y="0" on="1"/>
        <pt x="497" y="0" on="1"/>
        <pt x="497" y="259" on="1"/>
        <pt x="169" y="259" on="1"/>
        <pt x="169" y="0" on="1"/>
        <pt x="88" y="0" on="1"/>
        <pt x="88" y="424" on="1"/>
        <pt x="11" y="424" on="1"/>
      </contour>
      <contour>
        <pt x="497" y="327" on="1"/>
        <pt x="497" y="424" on="1"/>
        <pt x="169" y="424" on="1"/>
        <pt x="169" y="327" on="1"/>
      </contour>
    </TTGlyph>
    <TTGlyph name="Hcircumflex" xMin="84" yMin="0" xMax="636" yMax="953">
      <contour>
        <pt x="84" y="740" on="1"/>
        <pt x="169" y="740" on="1"/>
        <pt x="169" y="415" on="1"/>
        <pt x="551" y="415" on="1"/>
        <pt x="551" y="740" on="1"/>
        <pt x="636" y="740" on="1"/>
        <pt x="636" y="0" on="1"/>
        <pt x="551" y="0" on="1"/>
        <pt x="551" y="343" on="1"/>
        <pt x="169" y="343" on="1"/>
        <pt x="169" y="0" on="1"/>
        <pt x="84" y="0" on="1"/>
      </contour>
      <contour>
        <pt x="198" y="879" on="1"/>
        <pt x="353" y="953" on="1"/>
        <pt x="508" y="879" on="1"/>
        <pt x="508" y="811" on="1"/>
        <pt x="353" y="884" on="1"/>
        <pt x="198" y="811" on="1"/>
      </contour>
    </TTGlyph>
    <TTGlyph name="Hcircumflex.sc" xMin="79" yMin="0" xMax="571" yMax="749">
      <contour>
        <pt x="79" y="577" on="1"/>
        <pt x="161" y="577" on="1"/>
        <pt x="161" y="329" on="1"/>
        <pt x="489" y="329" on="1"/>
        <pt x="489" y="577" on="1"/>
        <pt x="571" y="577" on="1"/>
        <pt x="571" y="0" on="1"/>
        <pt x="489" y="0" on="1"/>
        <pt x="489" y="262" on="1"/>
        <pt x="161" y="262" on="1"/>
        <pt x="161" y="0" on="1"/>
        <pt x="79" y="0" on="1"/>
      </contour>
      <contour>
        <pt x="181" y="691" on="1"/>
        <pt x="319" y="749" on="1"/>
        <pt x="458" y="691" on="1"/>
        <pt x="458" y="630" on="1"/>
        <pt x="320" y="688" on="1"/>
        <pt x="181" y="630" on="1"/>
      </contour>
    </TTGlyph>
    <TTGlyph name="Hdotbelow" xMin="84" yMin="-181" xMax="636" yMax="740">
      <contour>
        <pt x="84" y="740" on="1"/>
        <pt x="169" y="740" on="1"/>
        <pt x="169" y="415" on="1"/>
        <pt x="551" y="415" on="1"/>
        <pt x="551" y="740" on="1"/>
        <pt x="636" y="740" on="1"/>
        <pt x="636" y="0" on="1"/>
        <pt x="551" y="0" on="1"/>
        <pt x="551" y="343" on="1"/>
        <pt x="169" y="343" on="1"/>
        <pt x="169" y="0" on="1"/>
        <pt x="84" y="0" on="1"/>
      </contour>
      <contour>
        <pt x="366" y="-181" on="1"/>
        <pt x="316" y="-181" on="0"/>
        <pt x="316" y="-131" on="1"/>
        <pt x="316" y="-105" on="0"/>
        <pt x="341" y="-82" on="0"/>
        <pt x="366" y="-82" on="1"/>
        <pt x="391" y="-82" on="0"/>
        <pt x="416" y="-105" on="0"/>
        <pt x="416" y="-131" on="1"/>
        <pt x="416" y="-181" on="0"/>
      </contour>
    </TTGlyph>
    <TTGlyph name="Hdotbelow.sc" xMin="79" yMin="-146" xMax="571" yMax="577">
      <contour>
        <pt x="79" y="577" on="1"/>
        <pt x="161" y="577" on="1"/>
        <pt x="161" y="329" on="1"/>
        <pt x="489" y="329" on="1"/>
        <pt x="489" y="577" on="1"/>
        <pt x="571" y="577" on="1"/>
        <pt x="571" y="0" on="1"/>
        <pt x="489" y="0" on="1"/>
        <pt x="489" y="262" on="1"/>
        <pt x="161" y="262" on="1"/>
        <pt x="161" y="0" on="1"/>
        <pt x="79" y="0" on="1"/>
      </contour>
      <contour>
        <pt x="331" y="-146" on="1"/>
        <pt x="285" y="-146" on="0"/>
        <pt x="285" y="-104" on="1"/>
        <pt x="285" y="-81" on="0"/>
        <pt x="308" y="-61" on="0"/>
        <pt x="331" y="-61" on="1"/>
        <pt x="353" y="-61" on="0"/>
        <pt x="376" y="-81" on="0"/>
        <pt x="376" y="-104" on="1"/>
        <pt x="376" y="-146" on="0"/>
      </contour>
    </TTGlyph>
    <TTGlyph name="I" xMin="84" yMin="0" xMax="169" yMax="740">
      <contour>
        <pt x="84" y="740" on="1"/>
        <pt x="169" y="740" on="1"/>
        <pt x="169" y="0" on="1"/>
        <pt x="84" y="0" on="1"/>
      </contour>
    </TTGlyph>
    <TTGlyph name="I.sc" xMin="79" yMin="0" xMax="161" yMax="577">
      <contour>
        <pt x="79" y="577" on="1"/>
        <pt x="161" y="577" on="1"/>
        <pt x="161" y="0" on="1"/>
        <pt x="79" y="0" on="1"/>
      </contour>
    </TTGlyph>
    <TTGlyph name="IJ" xMin="84" yMin="-188" xMax="423" yMax="740">
      <contour>
        <pt x="84" y="740" on="1"/>
        <pt x="169" y="740" on="1"/>
        <pt x="169" y="0" on="1"/>
        <pt x="84" y="0" on="1"/>
      </contour>
      <contour>
        <pt x="257" y="-160" on="1"/>
        <pt x="281" y="-110" on="0"/>
        <pt x="312" y="-27" on="0"/>
        <pt x="330" y="52" on="0"/>
        <pt x="338" y="135" on="0"/>
        <pt x="338" y="186" on="1"/>
        <pt x="338" y="740" on="1"/>
        <pt x="423" y="740" on="1"/>
        <pt x="423" y="180" on="1"/>
        <pt x="423" y="131" on="0"/>
        <pt x="411" y="43" on="0"/>
        <pt x="386" y="-44" on="0"/>
        <pt x="345" y="-135" on="0"/>
        <pt x="315" y="-188" on="1"/>
      </contour>
    </TTGlyph>
    <TTGlyph name="Iacute" xMin="84" yMin="0" xMax="253" yMax="942">
      <contour>
        <pt x="84" y="740" on="1"/>
        <pt x="169" y="740" on="1"/>
        <pt x="169" y="0" on="1"/>
        <pt x="84" y="0" on="1"/>
      </contour>
      <contour>
        <pt x="91" y="801" on="1"/>
        <pt x="165" y="942" on="1"/>
        <pt x="253" y="942" on="1"/>
        <pt x="156" y="795" on="1"/>
      </contour>
    </TTGlyph>
    <TTGlyph name="Iacute.sc" xMin="79" yMin="0" xMax="233" yMax="742">
      <contour>
        <pt x="79" y="577" on="1"/>
        <pt x="161" y="577" on="1"/>
        <pt x="161" y="0" on="1"/>
        <pt x="79" y="0" on="1"/>
      </contour>
      <contour>
        <pt x="86" y="627" on="1"/>
        <pt x="150" y="742" on="1"/>
        <pt x="233" y="742" on="1"/>
        <pt x="148" y="622" on="1"/>
      </contour>
    </TTGlyph>
    <TTGlyph name="Ibreve" xMin="-43" yMin="0" xMax="299" yMax="960">
      <contour>
        <pt x="84" y="740" on="1"/>
        <pt x="169" y="740" on="1"/>
        <pt x="169" y="0" on="1"/>
        <pt x="84" y="0" on="1"/>
      </contour>
      <contour>
        <pt x="128" y="812" on="1"/>
        <pt x="43" y="812" on="0"/>
        <pt x="-43" y="892" on="0"/>
        <pt x="-43" y="960" on="1"/>
        <pt x="21" y="960" on="1"/>
        <pt x="21" y="913" on="0"/>
        <pt x="74" y="863" on="0"/>
        <pt x="128" y="863" on="1"/>
        <pt x="181" y="863" on="0"/>
        <pt x="235" y="913" on="0"/>
        <pt x="235" y="960" on="1"/>
        <pt x="299" y="960" on="1"/>
        <pt x="299" y="892" on="0"/>
        <pt x="213" y="812" on="0"/>
      </contour>
    </TTGlyph>
    <TTGlyph name="Ibreve.sc" xMin="-31" yMin="0" xMax="273" yMax="753">
      <contour>
        <pt x="79" y="577" on="1"/>
        <pt x="161" y="577" on="1"/>
        <pt x="161" y="0" on="1"/>
        <pt x="79" y="0" on="1"/>
      </contour>
      <contour>
        <pt x="122" y="632" on="1"/>
        <pt x="44" y="632" on="0"/>
        <pt x="-31" y="698" on="0"/>
        <pt x="-31" y="753" on="1"/>
        <pt x="28" y="753" on="1"/>
        <pt x="28" y="678" on="0"/>
        <pt x="122" y="678" on="1"/>
        <pt x="214" y="678" on="0"/>
        <pt x="214" y="753" on="1"/>
        <pt x="273" y="753" on="1"/>
        <pt x="273" y="698" on="0"/>
        <pt x="197" y="632" on="0"/>
      </contour>
    </TTGlyph>
    <TTGlyph name="Icircumflex" xMin="-27" yMin="0" xMax="283" yMax="953">
      <contour>
        <pt x="84" y="740" on="1"/>
        <pt x="169" y="740" on="1"/>
        <pt x="169" y="0" on="1"/>
        <pt x="84" y="0" on="1"/>
      </contour>
      <contour>
        <pt x="-27" y="879" on="1"/>
        <pt x="128" y="953" on="1"/>
        <pt x="283" y="879" on="1"/>
        <pt x="283" y="811" on="1"/>
        <pt x="128" y="884" on="1"/>
        <pt x="-27" y="811" on="1"/>
      </contour>
    </TTGlyph>
    <TTGlyph name="Icircumflex.sc" xMin="-17" yMin="0" xMax="260" yMax="749">
      <contour>
        <pt x="79" y="577" on="1"/>
        <pt x="161" y="577" on="1"/>
        <pt x="161" y="0" on="1"/>
        <pt x="79" y="0" on="1"/>
      </contour>
      <contour>
        <pt x="-17" y="691" on="1"/>
        <pt x="122" y="749" on="1"/>
        <pt x="260" y="691" on="1"/>
        <pt x="260" y="630" on="1"/>
        <pt x="122" y="688" on="1"/>
        <pt x="-17" y="630" on="1"/>
      </contour>
    </TTGlyph>
    <TTGlyph name="Idblgrave" xMin="-72" yMin="0" xMax="239" yMax="938">
      <contour>
        <pt x="84" y="740" on="1"/>
        <pt x="169" y="740" on="1"/>
        <pt x="169" y="0" on="1"/>
        <pt x="84" y="0" on="1"/>
      </contour>
      <contour>
        <pt x="25" y="792" on="1"/>
        <pt x="-72" y="938" on="1"/>
        <pt x="10" y="938" on="1"/>
        <pt x="84" y="805" on="1"/>
      </contour>
      <contour>
        <pt x="180" y="792" on="1"/>
        <pt x="82" y="938" on="1"/>
        <pt x="165" y="938" on="1"/>
        <pt x="239" y="805" on="1"/>
      </contour>
    </TTGlyph>
    <TTGlyph name="Idblgrave.sc" xMin="-57" yMin="0" xMax="224" yMax="740">
      <contour>
        <pt x="79" y="577" on="1"/>
        <pt x="161" y="577" on="1"/>
        <pt x="161" y="0" on="1"/>
        <pt x="79" y="0" on="1"/>
      </contour>
      <contour>
        <pt x="29" y="619" on="1"/>
        <pt x="-57" y="740" on="1"/>
        <pt x="21" y="740" on="1"/>
        <pt x="85" y="629" on="1"/>
      </contour>
      <contour>
        <pt x="168" y="619" on="1"/>
        <pt x="82" y="740" on="1"/>
        <pt x="160" y="740" on="1"/>
        <pt x="224" y="629" on="1"/>
      </contour>
    </TTGlyph>
    <TTGlyph name="Idieresis" xMin="-45" yMin="0" xMax="302" yMax="922">
      <contour>
        <pt x="84" y="740" on="1"/>
        <pt x="169" y="740" on="1"/>
        <pt x="169" y="0" on="1"/>
        <pt x="84" y="0" on="1"/>
      </contour>
      <contour>
        <pt x="9" y="816" on="1"/>
        <pt x="-45" y="816" on="0"/>
        <pt x="-45" y="870" on="1"/>
        <pt x="-45" y="922" on="0"/>
        <pt x="9" y="922" on="1"/>
        <pt x="63" y="922" on="0"/>
        <pt x="63" y="870" on="1"/>
        <pt x="63" y="841" on="0"/>
        <pt x="35" y="816" on="0"/>
      </contour>
      <contour>
        <pt x="247" y="816" on="1"/>
        <pt x="193" y="816" on="0"/>
        <pt x="193" y="870" on="1"/>
        <pt x="193" y="922" on="0"/>
        <pt x="247" y="922" on="1"/>
        <pt x="273" y="922" on="0"/>
        <pt x="302" y="897" on="0"/>
        <pt x="302" y="870" on="1"/>
        <pt x="302" y="841" on="0"/>
        <pt x="273" y="816" on="0"/>
      </contour>
    </TTGlyph>
    <TTGlyph name="Idieresis.sc" xMin="-35" yMin="0" xMax="279" yMax="731">
      <contour>
        <pt x="79" y="577" on="1"/>
        <pt x="161" y="577" on="1"/>
        <pt x="161" y="0" on="1"/>
        <pt x="79" y="0" on="1"/>
      </contour>
      <contour>
        <pt x="16" y="635" on="1"/>
        <pt x="-35" y="635" on="0"/>
        <pt x="-35" y="683" on="1"/>
        <pt x="-35" y="709" on="0"/>
        <pt x="-10" y="731" on="0"/>
        <pt x="16" y="731" on="1"/>
        <pt x="66" y="731" on="0"/>
        <pt x="66" y="683" on="1"/>
        <pt x="66" y="635" on="0"/>
      </contour>
      <contour>
        <pt x="228" y="635" on="1"/>
        <pt x="178" y="635" on="0"/>
        <pt x="178" y="683" on="1"/>
        <pt x="178" y="709" on="0"/>
        <pt x="203" y="731" on="0"/>
        <pt x="228" y="731" on="1"/>
        <pt x="279" y="731" on="0"/>
        <pt x="279" y="683" on="1"/>
        <pt x="279" y="635" on="0"/>
      </contour>
    </TTGlyph>
    <TTGlyph name="Idotaccent" xMin="73" yMin="0" xMax="182" yMax="915">
      <contour>
        <pt x="84" y="740" on="1"/>
        <pt x="169" y="740" on="1"/>
        <pt x="169" y="0" on="1"/>
        <pt x="84" y="0" on="1"/>
      </contour>
      <contour>
        <pt x="127" y="809" on="1"/>
        <pt x="101" y="809" on="0"/>
        <pt x="73" y="833" on="0"/>
        <pt x="73" y="861" on="1"/>
        <pt x="73" y="890" on="0"/>
        <pt x="101" y="915" on="0"/>
        <pt x="127" y="915" on="1"/>
        <pt x="153" y="915" on="0"/>
        <pt x="182" y="890" on="0"/>
        <pt x="182" y="861" on="1"/>
        <pt x="182" y="809" on="0"/>
      </contour>
    </TTGlyph>
    <TTGlyph name="Idotaccent.sc" xMin="71" yMin="0" xMax="172" yMax="726">
      <contour>
        <pt x="79" y="577" on="1"/>
        <pt x="161" y="577" on="1"/>
        <pt x="161" y="0" on="1"/>
        <pt x="79" y="0" on="1"/>
      </contour>
      <contour>
        <pt x="121" y="630" on="1"/>
        <pt x="96" y="630" on="0"/>
        <pt x="71" y="653" on="0"/>
        <pt x="71" y="679" on="1"/>
        <pt x="71" y="726" on="0"/>
        <pt x="121" y="726" on="1"/>
        <pt x="172" y="726" on="0"/>
        <pt x="172" y="679" on="1"/>
        <pt x="172" y="630" on="0"/>
      </contour>
    </TTGlyph>
    <TTGlyph name="Idotbelow" xMin="77" yMin="-181" xMax="177" yMax="740">
      <contour>
        <pt x="84" y="740" on="1"/>
        <pt x="169" y="740" on="1"/>
        <pt x="169" y="0" on="1"/>
        <pt x="84" y="0" on="1"/>
      </contour>
      <contour>
        <pt x="127" y="-181" on="1"/>
        <pt x="77" y="-181" on="0"/>
        <pt x="77" y="-131" on="1"/>
        <pt x="77" y="-105" on="0"/>
        <pt x="102" y="-82" on="0"/>
        <pt x="127" y="-82" on="1"/>
        <pt x="152" y="-82" on="0"/>
        <pt x="177" y="-105" on="0"/>
        <pt x="177" y="-131" on="1"/>
        <pt x="177" y="-181" on="0"/>
      </contour>
    </TTGlyph>
    <TTGlyph name="Idotbelow.sc" xMin="76" yMin="-146" xMax="167" yMax="577">
      <contour>
        <pt x="79" y="577" on="1"/>
        <pt x="161" y="577" on="1"/>
        <pt x="161" y="0" on="1"/>
        <pt x="79" y="0" on="1"/>
      </contour>
      <contour>
        <pt x="121" y="-146" on="1"/>
        <pt x="76" y="-146" on="0"/>
        <pt x="76" y="-104" on="1"/>
        <pt x="76" y="-81" on="0"/>
        <pt x="98" y="-61" on="0"/>
        <pt x="121" y="-61" on="1"/>
        <pt x="144" y="-61" on="0"/>
        <pt x="167" y="-81" on="0"/>
        <pt x="167" y="-104" on="1"/>
        <pt x="167" y="-146" on="0"/>
      </contour>
    </TTGlyph>
    <TTGlyph name="Igrave" xMin="1" yMin="0" xMax="169" yMax="942">
      <contour>
        <pt x="84" y="740" on="1"/>
        <pt x="169" y="740" on="1"/>
        <pt x="169" y="0" on="1"/>
        <pt x="84" y="0" on="1"/>
      </contour>
      <contour>
        <pt x="98" y="795" on="1"/>
        <pt x="1" y="942" on="1"/>
        <pt x="89" y="942" on="1"/>
        <pt x="163" y="808" on="1"/>
      </contour>
    </TTGlyph>
    <TTGlyph name="Igrave.sc" xMin="8" yMin="0" xMax="162" yMax="742">
      <contour>
        <pt x="79" y="577" on="1"/>
        <pt x="162" y="577" on="1"/>
        <pt x="162" y="0" on="1"/>
        <pt x="79" y="0" on="1"/>
      </contour>
      <contour>
        <pt x="93" y="622" on="1"/>
        <pt x="8" y="742" on="1"/>
        <pt x="92" y="742" on="1"/>
        <pt x="156" y="631" on="1"/>
      </contour>
    </TTGlyph>
    <TTGlyph name="Iinvertedbreve" xMin="-42" yMin="0" xMax="299" yMax="966">
      <contour>
        <pt x="84" y="740" on="1"/>
        <pt x="169" y="740" on="1"/>
        <pt x="169" y="0" on="1"/>
        <pt x="84" y="0" on="1"/>
      </contour>
      <contour>
        <pt x="235" y="818" on="1"/>
        <pt x="235" y="915" on="0"/>
        <pt x="128" y="915" on="1"/>
        <pt x="21" y="915" on="0"/>
        <pt x="21" y="818" on="1"/>
        <pt x="-42" y="818" on="1"/>
        <pt x="-42" y="886" on="0"/>
        <pt x="43" y="966" on="0"/>
        <pt x="128" y="966" on="1"/>
        <pt x="213" y="966" on="0"/>
        <pt x="299" y="887" on="0"/>
        <pt x="299" y="818" on="1"/>
      </contour>
    </TTGlyph>
    <TTGlyph name="Iinvertedbreve.sc" xMin="-31" yMin="0" xMax="274" yMax="758">
      <contour>
        <pt x="79" y="577" on="1"/>
        <pt x="161" y="577" on="1"/>
        <pt x="161" y="0" on="1"/>
        <pt x="79" y="0" on="1"/>
      </contour>
      <contour>
        <pt x="214" y="637" on="1"/>
        <pt x="214" y="712" on="0"/>
        <pt x="122" y="712" on="1"/>
        <pt x="29" y="712" on="0"/>
        <pt x="29" y="637" on="1"/>
        <pt x="-31" y="637" on="1"/>
        <pt x="-31" y="692" on="0"/>
        <pt x="45" y="758" on="0"/>
        <pt x="122" y="758" on="1"/>
        <pt x="198" y="758" on="0"/>
        <pt x="274" y="693" on="0"/>
        <pt x="274" y="637" on="1"/>
      </contour>
    </TTGlyph>
    <TTGlyph name="Imacron" xMin="-22" yMin="0" xMax="274" yMax="904">
      <contour>
        <pt x="84" y="740" on="1"/>
        <pt x="169" y="740" on="1"/>
        <pt x="169" y="0" on="1"/>
        <pt x="84" y="0" on="1"/>
      </contour>
      <contour>
        <pt x="-22" y="904" on="1"/>
        <pt x="274" y="904" on="1"/>
        <pt x="274" y="841" on="1"/>
        <pt x="-22" y="841" on="1"/>
      </contour>
    </TTGlyph>
    <TTGlyph name="Imacron.sc" xMin="-14" yMin="0" xMax="253" yMax="714">
      <contour>
        <pt x="79" y="577" on="1"/>
        <pt x="161" y="577" on="1"/>
        <pt x="161" y="0" on="1"/>
        <pt x="79" y="0" on="1"/>
      </contour>
      <contour>
        <pt x="-14" y="714" on="1"/>
        <pt x="253" y="714" on="1"/>
        <pt x="253" y="656" on="1"/>
        <pt x="-14" y="656" on="1"/>
      </contour>
    </TTGlyph>
    <TTGlyph name="Iogonek" xMin="-2" yMin="-220" xMax="169" yMax="740">
      <contour>
        <pt x="84" y="740" on="1"/>
        <pt x="169" y="740" on="1"/>
        <pt x="169" y="-17" on="1"/>
        <pt x="112" y="-43" on="0"/>
        <pt x="59" y="-100" on="0"/>
        <pt x="59" y="-129" on="1"/>
        <pt x="59" y="-165" on="0"/>
        <pt x="104" y="-165" on="1"/>
        <pt x="118" y="-165" on="0"/>
        <pt x="153" y="-159" on="0"/>
        <pt x="168" y="-154" on="1"/>
        <pt x="168" y="-208" on="1"/>
        <pt x="138" y="-220" on="0"/>
        <pt x="100" y="-220" on="1"/>
        <pt x="-2" y="-220" on="0"/>
        <pt x="-2" y="-134" on="1"/>
        <pt x="-2" y="-96" on="0"/>
        <pt x="45" y="-33" on="0"/>
        <pt x="99" y="0" on="1"/>
        <pt x="84" y="0" on="1"/>
      </contour>
    </TTGlyph>
    <TTGlyph name="Iogonek.sc" xMin="7" yMin="-172" xMax="161" yMax="577">
      <contour>
        <pt x="80" y="577" on="1"/>
        <pt x="161" y="577" on="1"/>
        <pt x="161" y="-12" on="1"/>
        <pt x="111" y="-31" on="0"/>
        <pt x="65" y="-72" on="0"/>
        <pt x="65" y="-95" on="1"/>
        <pt x="65" y="-123" on="0"/>
        <pt x="104" y="-123" on="1"/>
        <pt x="117" y="-123" on="0"/>
        <pt x="148" y="-118" on="0"/>
        <pt x="161" y="-114" on="1"/>
        <pt x="161" y="-162" on="1"/>
        <pt x="147" y="-167" on="0"/>
        <pt x="116" y="-172" on="0"/>
        <pt x="99" y="-172" on="1"/>
        <pt x="7" y="-172" on="0"/>
        <pt x="7" y="-104" on="1"/>
        <pt x="7" y="-74" on="0"/>
        <pt x="46" y="-26" on="0"/>
        <pt x="92" y="0" on="1"/>
        <pt x="80" y="0" on="1"/>
      </contour>
    </TTGlyph>
    <TTGlyph name="Itilde" xMin="-54" yMin="0" xMax="324" yMax="930">
      <contour>
        <pt x="84" y="740" on="1"/>
        <pt x="169" y="740" on="1"/>
        <pt x="169" y="0" on="1"/>
        <pt x="84" y="0" on="1"/>
      </contour>
      <contour>
        <pt x="-54" y="856" on="1"/>
        <pt x="-29" y="891" on="0"/>
        <pt x="34" y="930" on="0"/>
        <pt x="64" y="930" on="1"/>
        <pt x="86" y="930" on="0"/>
        <pt x="125" y="917" on="0"/>
        <pt x="162" y="901" on="0"/>
        <pt x="199" y="888" on="0"/>
        <pt x="220" y="888" on="1"/>
        <pt x="260" y="888" on="0"/>
        <pt x="299" y="927" on="1"/>
        <pt x="324" y="902" on="1"/>
        <pt x="301" y="866" on="0"/>
        <pt x="236" y="827" on="0"/>
        <pt x="204" y="827" on="1"/>
        <pt x="183" y="827" on="0"/>
        <pt x="145" y="839" on="0"/>
        <pt x="108" y="854" on="0"/>
        <pt x="70" y="867" on="0"/>
        <pt x="51" y="867" on="1"/>
        <pt x="8" y="867" on="0"/>
        <pt x="-30" y="830" on="1"/>
      </contour>
    </TTGlyph>
    <TTGlyph name="Itilde.sc" xMin="-41" yMin="0" xMax="296" yMax="733">
      <contour>
        <pt x="79" y="577" on="1"/>
        <pt x="161" y="577" on="1"/>
        <pt x="161" y="0" on="1"/>
        <pt x="79" y="0" on="1"/>
      </contour>
      <contour>
        <pt x="-41" y="668" on="1"/>
        <pt x="-18" y="699" on="0"/>
        <pt x="37" y="733" on="0"/>
        <pt x="65" y="733" on="1"/>
        <pt x="85" y="733" on="0"/>
        <pt x="119" y="723" on="0"/>
        <pt x="152" y="712" on="0"/>
        <pt x="186" y="702" on="0"/>
        <pt x="204" y="702" on="1"/>
        <pt x="242" y="702" on="0"/>
        <pt x="275" y="731" on="1"/>
        <pt x="296" y="711" on="1"/>
        <pt x="275" y="679" on="0"/>
        <pt x="218" y="644" on="0"/>
        <pt x="189" y="644" on="1"/>
        <pt x="170" y="644" on="0"/>
        <pt x="135" y="654" on="0"/>
        <pt x="102" y="666" on="0"/>
        <pt x="68" y="676" on="0"/>
        <pt x="51" y="676" on="1"/>
        <pt x="13" y="676" on="0"/>
        <pt x="-21" y="646" on="1"/>
      </contour>
    </TTGlyph>
    <TTGlyph name="J" xMin="5" yMin="-188" xMax="171" yMax="740">
      <contour>
        <pt x="5" y="-160" on="1"/>
        <pt x="29" y="-110" on="0"/>
        <pt x="60" y="-27" on="0"/>
        <pt x="78" y="52" on="0"/>
        <pt x="86" y="135" on="0"/>
        <pt x="86" y="186" on="1"/>
        <pt x="86" y="740" on="1"/>
        <pt x="171" y="740" on="1"/>
        <pt x="171" y="180" on="1"/>
        <pt x="171" y="131" on="0"/>
        <pt x="159" y="43" on="0"/>
        <pt x="134" y="-44" on="0"/>
        <pt x="93" y="-135" on="0"/>
        <pt x="63" y="-188" on="1"/>
      </contour>
    </TTGlyph>
    <TTGlyph name="J.sc" xMin="13" yMin="-150" xMax="163" yMax="577">
      <contour>
        <pt x="13" y="-124" on="1"/>
        <pt x="33" y="-85" on="0"/>
        <pt x="59" y="-21" on="0"/>
        <pt x="75" y="41" on="0"/>
        <pt x="81" y="107" on="0"/>
        <pt x="81" y="146" on="1"/>
        <pt x="81" y="577" on="1"/>
        <pt x="163" y="577" on="1"/>
        <pt x="163" y="141" on="1"/>
        <pt x="163" y="102" on="0"/>
        <pt x="153" y="33" on="0"/>
        <pt x="131" y="-36" on="0"/>
        <pt x="94" y="-108" on="0"/>
        <pt x="67" y="-150" on="1"/>
      </contour>
    </TTGlyph>
    <TTGlyph name="Jcircumflex" xMin="-27" yMin="-188" xMax="283" yMax="953">
      <contour>
        <pt x="5" y="-160" on="1"/>
        <pt x="29" y="-110" on="0"/>
        <pt x="60" y="-27" on="0"/>
        <pt x="78" y="52" on="0"/>
        <pt x="86" y="135" on="0"/>
        <pt x="86" y="186" on="1"/>
        <pt x="86" y="740" on="1"/>
        <pt x="171" y="740" on="1"/>
        <pt x="171" y="180" on="1"/>
        <pt x="171" y="131" on="0"/>
        <pt x="159" y="43" on="0"/>
        <pt x="134" y="-44" on="0"/>
        <pt x="93" y="-135" on="0"/>
        <pt x="63" y="-188" on="1"/>
      </contour>
      <contour>
        <pt x="-27" y="879" on="1"/>
        <pt x="128" y="953" on="1"/>
        <pt x="283" y="879" on="1"/>
        <pt x="283" y="811" on="1"/>
        <pt x="128" y="884" on="1"/>
        <pt x="-27" y="811" on="1"/>
      </contour>
    </TTGlyph>
    <TTGlyph name="Jcircumflex.sc" xMin="-16" yMin="-150" xMax="261" yMax="749">
      <contour>
        <pt x="13" y="-124" on="1"/>
        <pt x="33" y="-85" on="0"/>
        <pt x="59" y="-21" on="0"/>
        <pt x="75" y="41" on="0"/>
        <pt x="81" y="107" on="0"/>
        <pt x="81" y="146" on="1"/>
        <pt x="81" y="577" on="1"/>
        <pt x="163" y="577" on="1"/>
        <pt x="163" y="141" on="1"/>
        <pt x="163" y="102" on="0"/>
        <pt x="153" y="33" on="0"/>
        <pt x="130" y="-36" on="0"/>
        <pt x="94" y="-108" on="0"/>
        <pt x="67" y="-150" on="1"/>
      </contour>
      <contour>
        <pt x="-16" y="691" on="1"/>
        <pt x="122" y="749" on="1"/>
        <pt x="261" y="691" on="1"/>
        <pt x="261" y="630" on="1"/>
        <pt x="123" y="688" on="1"/>
        <pt x="-16" y="630" on="1"/>
      </contour>
    </TTGlyph>
    <TTGlyph name="K" xMin="84" yMin="0" xMax="629" yMax="740">
      <contour>
        <pt x="84" y="740" on="1"/>
        <pt x="169" y="740" on="1"/>
        <pt x="169" y="413" on="1"/>
        <pt x="291" y="413" on="1"/>
        <pt x="513" y="740" on="1"/>
        <pt x="611" y="740" on="1"/>
        <pt x="383" y="408" on="1"/>
        <pt x="350" y="383" on="1"/>
        <pt x="350" y="377" on="1"/>
        <pt x="386" y="353" on="1"/>
        <pt x="629" y="0" on="1"/>
        <pt x="532" y="0" on="1"/>
        <pt x="297" y="340" on="1"/>
        <pt x="169" y="340" on="1"/>
        <pt x="169" y="0" on="1"/>
        <pt x="84" y="0" on="1"/>
      </contour>
    </TTGlyph>
    <TTGlyph name="K.sc" xMin="79" yMin="0" xMax="564" yMax="577">
      <contour>
        <pt x="79" y="577" on="1"/>
        <pt x="161" y="577" on="1"/>
        <pt x="161" y="327" on="1"/>
        <pt x="267" y="327" on="1"/>
        <pt x="454" y="577" on="1"/>
        <pt x="548" y="577" on="1"/>
        <pt x="355" y="319" on="1"/>
        <pt x="322" y="299" on="1"/>
        <pt x="322" y="294" on="1"/>
        <pt x="356" y="275" on="1"/>
        <pt x="564" y="0" on="1"/>
        <pt x="471" y="0" on="1"/>
        <pt x="273" y="260" on="1"/>
        <pt x="161" y="260" on="1"/>
        <pt x="161" y="0" on="1"/>
        <pt x="79" y="0" on="1"/>
      </contour>
    </TTGlyph>
    <TTGlyph name="Kcommaaccent" xMin="84" yMin="-220" xMax="629" yMax="740">
      <contour>
        <pt x="285" y="-68" on="1"/>
        <pt x="372" y="-68" on="1"/>
        <pt x="306" y="-220" on="1"/>
        <pt x="237" y="-220" on="1"/>
      </contour>
      <contour>
        <pt x="84" y="740" on="1"/>
        <pt x="169" y="740" on="1"/>
        <pt x="169" y="413" on="1"/>
        <pt x="291" y="413" on="1"/>
        <pt x="513" y="740" on="1"/>
        <pt x="611" y="740" on="1"/>
        <pt x="383" y="408" on="1"/>
        <pt x="350" y="383" on="1"/>
        <pt x="350" y="377" on="1"/>
        <pt x="386" y="353" on="1"/>
        <pt x="629" y="0" on="1"/>
        <pt x="532" y="0" on="1"/>
        <pt x="297" y="340" on="1"/>
        <pt x="169" y="340" on="1"/>
        <pt x="169" y="0" on="1"/>
        <pt x="84" y="0" on="1"/>
      </contour>
    </TTGlyph>
    <TTGlyph name="Kcommaaccent.sc" xMin="79" yMin="-172" xMax="564" yMax="577">
      <contour>
        <pt x="79" y="577" on="1"/>
        <pt x="161" y="577" on="1"/>
        <pt x="161" y="327" on="1"/>
        <pt x="267" y="327" on="1"/>
        <pt x="454" y="577" on="1"/>
        <pt x="548" y="577" on="1"/>
        <pt x="355" y="319" on="1"/>
        <pt x="322" y="299" on="1"/>
        <pt x="322" y="294" on="1"/>
        <pt x="356" y="275" on="1"/>
        <pt x="564" y="0" on="1"/>
        <pt x="471" y="0" on="1"/>
        <pt x="273" y="260" on="1"/>
        <pt x="161" y="260" on="1"/>
        <pt x="161" y="0" on="1"/>
        <pt x="79" y="0" on="1"/>
      </contour>
      <contour>
        <pt x="261" y="-54" on="1"/>
        <pt x="345" y="-54" on="1"/>
        <pt x="286" y="-172" on="1"/>
        <pt x="220" y="-172" on="1"/>
      </contour>
    </TTGlyph>
    <TTGlyph name="L" xMin="84" yMin="0" xMax="477" yMax="740">
      <contour>
        <pt x="84" y="740" on="1"/>
        <pt x="169" y="740" on="1"/>
        <pt x="169" y="72" on="1"/>
        <pt x="477" y="72" on="1"/>
        <pt x="477" y="0" on="1"/>
        <pt x="84" y="0" on="1"/>
      </contour>
    </TTGlyph>
    <TTGlyph name="L.sc" xMin="79" yMin="0" xMax="431" yMax="577">
      <contour>
        <pt x="79" y="577" on="1"/>
        <pt x="161" y="577" on="1"/>
        <pt x="161" y="68" on="1"/>
        <pt x="431" y="68" on="1"/>
        <pt x="431" y="0" on="1"/>
        <pt x="79" y="0" on="1"/>
      </contour>
    </TTGlyph>
    <TTGlyph name="Lacute" xMin="84" yMin="0" xMax="477" yMax="942">
      <contour>
        <pt x="97" y="801" on="1"/>
        <pt x="171" y="942" on="1"/>
        <pt x="259" y="942" on="1"/>
        <pt x="162" y="795" on="1"/>
      </contour>
      <contour>
        <pt x="84" y="740" on="1"/>
        <pt x="169" y="740" on="1"/>
        <pt x="169" y="72" on="1"/>
        <pt x="477" y="72" on="1"/>
        <pt x="477" y="0" on="1"/>
        <pt x="84" y="0" on="1"/>
      </contour>
    </TTGlyph>
    <TTGlyph name="Lacute.sc" xMin="79" yMin="0" xMax="432" yMax="742">
      <contour>
        <pt x="79" y="577" on="1"/>
        <pt x="161" y="577" on="1"/>
        <pt x="161" y="68" on="1"/>
        <pt x="432" y="68" on="1"/>
        <pt x="432" y="0" on="1"/>
        <pt x="79" y="0" on="1"/>
      </contour>
      <contour>
        <pt x="92" y="627" on="1"/>
        <pt x="155" y="742" on="1"/>
        <pt x="239" y="742" on="1"/>
        <pt x="153" y="622" on="1"/>
      </contour>
    </TTGlyph>
    <TTGlyph name="Lcaron" xMin="84" yMin="0" xMax="477" yMax="759">
      <contour>
        <pt x="372" y="759" on="1"/>
        <pt x="443" y="759" on="1"/>
        <pt x="414" y="531" on="1"/>
        <pt x="372" y="531" on="1"/>
      </contour>
      <contour>
        <pt x="84" y="740" on="1"/>
        <pt x="169" y="740" on="1"/>
        <pt x="169" y="72" on="1"/>
        <pt x="477" y="72" on="1"/>
        <pt x="477" y="0" on="1"/>
        <pt x="84" y="0" on="1"/>
      </contour>
    </TTGlyph>
    <TTGlyph name="Lcaron.sc" xMin="80" yMin="0" xMax="431" yMax="598">
      <contour>
        <pt x="80" y="577" on="1"/>
        <pt x="161" y="577" on="1"/>
        <pt x="161" y="68" on="1"/>
        <pt x="431" y="68" on="1"/>
        <pt x="431" y="0" on="1"/>
        <pt x="80" y="0" on="1"/>
      </contour>
      <contour>
        <pt x="335" y="598" on="1"/>
        <pt x="402" y="598" on="1"/>
        <pt x="376" y="420" on="1"/>
        <pt x="335" y="420" on="1"/>
      </contour>
    </TTGlyph>
    <TTGlyph name="Lcommaaccent" xMin="84" yMin="-220" xMax="477" yMax="740">
      <contour>
        <pt x="242" y="-68" on="1"/>
        <pt x="329" y="-68" on="1"/>
        <pt x="263" y="-220" on="1"/>
        <pt x="194" y="-220" on="1"/>
      </contour>
      <contour>
        <pt x="84" y="740" on="1"/>
        <pt x="169" y="740" on="1"/>
        <pt x="169" y="72" on="1"/>
        <pt x="477" y="72" on="1"/>
        <pt x="477" y="0" on="1"/>
        <pt x="84" y="0" on="1"/>
      </contour>
    </TTGlyph>
    <TTGlyph name="Lcommaaccent.sc" xMin="79" yMin="-172" xMax="431" yMax="577">
      <contour>
        <pt x="79" y="577" on="1"/>
        <pt x="161" y="577" on="1"/>
        <pt x="161" y="68" on="1"/>
        <pt x="431" y="68" on="1"/>
        <pt x="431" y="0" on="1"/>
        <pt x="79" y="0" on="1"/>
      </contour>
      <contour>
        <pt x="217" y="-54" on="1"/>
        <pt x="300" y="-54" on="1"/>
        <pt x="241" y="-172" on="1"/>
        <pt x="176" y="-172" on="1"/>
      </contour>
    </TTGlyph>
    <TTGlyph name="Ldot" xMin="84" yMin="0" xMax="477" yMax="740">
      <contour>
        <pt x="84" y="740" on="1"/>
        <pt x="169" y="740" on="1"/>
        <pt x="169" y="72" on="1"/>
        <pt x="477" y="72" on="1"/>
        <pt x="477" y="0" on="1"/>
        <pt x="84" y="0" on="1"/>
      </contour>
      <contour>
        <pt x="394" y="322" on="1"/>
        <pt x="367" y="322" on="0"/>
        <pt x="340" y="346" on="0"/>
        <pt x="340" y="375" on="1"/>
        <pt x="340" y="404" on="0"/>
        <pt x="367" y="429" on="0"/>
        <pt x="394" y="429" on="1"/>
        <pt x="448" y="429" on="0"/>
        <pt x="448" y="375" on="1"/>
        <pt x="448" y="322" on="0"/>
      </contour>
    </TTGlyph>
    <TTGlyph name="Ldot.sc" xMin="79" yMin="0" xMax="431" yMax="577">
      <contour>
        <pt x="79" y="577" on="1"/>
        <pt x="161" y="577" on="1"/>
        <pt x="161" y="68" on="1"/>
        <pt x="431" y="68" on="1"/>
        <pt x="431" y="0" on="1"/>
        <pt x="79" y="0" on="1"/>
      </contour>
      <contour>
        <pt x="359" y="246" on="1"/>
        <pt x="309" y="246" on="0"/>
        <pt x="309" y="295" on="1"/>
        <pt x="309" y="342" on="0"/>
        <pt x="359" y="342" on="1"/>
        <pt x="410" y="342" on="0"/>
        <pt x="410" y="295" on="1"/>
        <pt x="410" y="246" on="0"/>
      </contour>
    </TTGlyph>
    <TTGlyph name="Lslash" xMin="14" yMin="0" xMax="499" yMax="740">
      <contour>
        <pt x="14" y="297" on="1"/>
        <pt x="106" y="359" on="1"/>
        <pt x="106" y="740" on="1"/>
        <pt x="191" y="740" on="1"/>
        <pt x="191" y="416" on="1"/>
        <pt x="329" y="509" on="1"/>
        <pt x="329" y="436" on="1"/>
        <pt x="191" y="342" on="1"/>
        <pt x="191" y="72" on="1"/>
        <pt x="499" y="72" on="1"/>
        <pt x="499" y="0" on="1"/>
        <pt x="106" y="0" on="1"/>
        <pt x="106" y="285" on="1"/>
        <pt x="14" y="223" on="1"/>
      </contour>
    </TTGlyph>
    <TTGlyph name="Lslash.sc" xMin="20" yMin="0" xMax="450" yMax="577">
      <contour>
        <pt x="20" y="241" on="1"/>
        <pt x="98" y="291" on="1"/>
        <pt x="98" y="577" on="1"/>
        <pt x="180" y="577" on="1"/>
        <pt x="180" y="330" on="1"/>
        <pt x="302" y="404" on="1"/>
        <pt x="302" y="337" on="1"/>
        <pt x="180" y="264" on="1"/>
        <pt x="180" y="68" on="1"/>
        <pt x="450" y="68" on="1"/>
        <pt x="450" y="0" on="1"/>
        <pt x="98" y="0" on="1"/>
        <pt x="98" y="224" on="1"/>
        <pt x="20" y="175" on="1"/>
      </contour>
    </TTGlyph>
    <TTGlyph name="M" xMin="84" yMin="0" xMax="802" yMax="740">
      <contour>
        <pt x="84" y="740" on="1"/>
        <pt x="200" y="740" on="1"/>
        <pt x="388" y="268" on="1"/>
        <pt x="439" y="128" on="1"/>
        <pt x="446" y="128" on="1"/>
        <pt x="497" y="268" on="1"/>
        <pt x="685" y="740" on="1"/>
        <pt x="802" y="740" on="1"/>
        <pt x="802" y="0" on="1"/>
        <pt x="723" y="0" on="1"/>
        <pt x="723" y="622" on="1"/>
        <pt x="717" y="623" on="1"/>
        <pt x="650" y="449" on="1"/>
        <pt x="482" y="31" on="1"/>
        <pt x="403" y="31" on="1"/>
        <pt x="235" y="449" on="1"/>
        <pt x="168" y="623" on="1"/>
        <pt x="162" y="622" on="1"/>
        <pt x="162" y="0" on="1"/>
        <pt x="84" y="0" on="1"/>
      </contour>
    </TTGlyph>
    <TTGlyph name="M.sc" xMin="79" yMin="0" xMax="716" yMax="577">
      <contour>
        <pt x="79" y="577" on="1"/>
        <pt x="189" y="577" on="1"/>
        <pt x="350" y="225" on="1"/>
        <pt x="394" y="118" on="1"/>
        <pt x="400" y="118" on="1"/>
        <pt x="445" y="225" on="1"/>
        <pt x="606" y="577" on="1"/>
        <pt x="716" y="577" on="1"/>
        <pt x="716" y="0" on="1"/>
        <pt x="641" y="0" on="1"/>
        <pt x="641" y="475" on="1"/>
        <pt x="635" y="475" on="1"/>
        <pt x="572" y="331" on="1"/>
        <pt x="435" y="24" on="1"/>
        <pt x="361" y="24" on="1"/>
        <pt x="222" y="331" on="1"/>
        <pt x="160" y="475" on="1"/>
        <pt x="155" y="475" on="1"/>
        <pt x="155" y="0" on="1"/>
        <pt x="79" y="0" on="1"/>
      </contour>
    </TTGlyph>
    <TTGlyph name="N" xMin="84" yMin="0" xMax="655" yMax="740">
      <contour>
        <pt x="84" y="740" on="1"/>
        <pt x="159" y="740" on="1"/>
        <pt x="517" y="223" on="1"/>
        <pt x="571" y="136" on="1"/>
        <pt x="577" y="136" on="1"/>
        <pt x="577" y="740" on="1"/>
        <pt x="655" y="740" on="1"/>
        <pt x="655" y="0" on="1"/>
        <pt x="579" y="0" on="1"/>
        <pt x="220" y="516" on="1"/>
        <pt x="167" y="603" on="1"/>
        <pt x="161" y="603" on="1"/>
        <pt x="161" y="0" on="1"/>
        <pt x="84" y="0" on="1"/>
      </contour>
    </TTGlyph>
    <TTGlyph name="N.sc" xMin="79" yMin="0" xMax="580" yMax="577">
      <contour>
        <pt x="79" y="577" on="1"/>
        <pt x="148" y="577" on="1"/>
        <pt x="451" y="192" on="1"/>
        <pt x="500" y="123" on="1"/>
        <pt x="505" y="124" on="1"/>
        <pt x="505" y="577" on="1"/>
        <pt x="580" y="577" on="1"/>
        <pt x="580" y="0" on="1"/>
        <pt x="511" y="0" on="1"/>
        <pt x="209" y="385" on="1"/>
        <pt x="159" y="453" on="1"/>
        <pt x="154" y="453" on="1"/>
        <pt x="154" y="0" on="1"/>
        <pt x="79" y="0" on="1"/>
      </contour>
    </TTGlyph>
    <TTGlyph name="Nacute" xMin="84" yMin="0" xMax="655" yMax="942">
      <contour>
        <pt x="327" y="801" on="1"/>
        <pt x="401" y="942" on="1"/>
        <pt x="489" y="942" on="1"/>
        <pt x="392" y="795" on="1"/>
      </contour>
      <contour>
        <pt x="84" y="740" on="1"/>
        <pt x="159" y="740" on="1"/>
        <pt x="517" y="223" on="1"/>
        <pt x="571" y="136" on="1"/>
        <pt x="577" y="136" on="1"/>
        <pt x="577" y="740" on="1"/>
        <pt x="655" y="740" on="1"/>
        <pt x="655" y="0" on="1"/>
        <pt x="579" y="0" on="1"/>
        <pt x="220" y="516" on="1"/>
        <pt x="167" y="603" on="1"/>
        <pt x="161" y="603" on="1"/>
        <pt x="161" y="0" on="1"/>
        <pt x="84" y="0" on="1"/>
      </contour>
    </TTGlyph>
    <TTGlyph name="Nacute.sc" xMin="79" yMin="0" xMax="580" yMax="742">
      <contour>
        <pt x="79" y="577" on="1"/>
        <pt x="148" y="577" on="1"/>
        <pt x="451" y="192" on="1"/>
        <pt x="500" y="123" on="1"/>
        <pt x="505" y="124" on="1"/>
        <pt x="505" y="577" on="1"/>
        <pt x="580" y="577" on="1"/>
        <pt x="580" y="0" on="1"/>
        <pt x="511" y="0" on="1"/>
        <pt x="209" y="385" on="1"/>
        <pt x="159" y="453" on="1"/>
        <pt x="154" y="453" on="1"/>
        <pt x="154" y="0" on="1"/>
        <pt x="79" y="0" on="1"/>
      </contour>
      <contour>
        <pt x="290" y="627" on="1"/>
        <pt x="353" y="742" on="1"/>
        <pt x="437" y="742" on="1"/>
        <pt x="351" y="622" on="1"/>
      </contour>
    </TTGlyph>
    <TTGlyph name="Ncaron" xMin="84" yMin="0" xMax="655" yMax="946">
      <contour>
        <pt x="218" y="946" on="1"/>
        <pt x="373" y="872" on="1"/>
        <pt x="528" y="946" on="1"/>
        <pt x="528" y="877" on="1"/>
        <pt x="372" y="804" on="1"/>
        <pt x="218" y="877" on="1"/>
      </contour>
      <contour>
        <pt x="84" y="740" on="1"/>
        <pt x="159" y="740" on="1"/>
        <pt x="517" y="223" on="1"/>
        <pt x="571" y="136" on="1"/>
        <pt x="577" y="136" on="1"/>
        <pt x="577" y="740" on="1"/>
        <pt x="655" y="740" on="1"/>
        <pt x="655" y="0" on="1"/>
        <pt x="579" y="0" on="1"/>
        <pt x="220" y="516" on="1"/>
        <pt x="167" y="603" on="1"/>
        <pt x="161" y="603" on="1"/>
        <pt x="161" y="0" on="1"/>
        <pt x="84" y="0" on="1"/>
      </contour>
    </TTGlyph>
    <TTGlyph name="Ncaron.sc" xMin="79" yMin="0" xMax="580" yMax="745">
      <contour>
        <pt x="79" y="577" on="1"/>
        <pt x="148" y="577" on="1"/>
        <pt x="451" y="192" on="1"/>
        <pt x="500" y="123" on="1"/>
        <pt x="505" y="124" on="1"/>
        <pt x="505" y="577" on="1"/>
        <pt x="580" y="577" on="1"/>
        <pt x="580" y="0" on="1"/>
        <pt x="511" y="0" on="1"/>
        <pt x="209" y="385" on="1"/>
        <pt x="159" y="453" on="1"/>
        <pt x="154" y="453" on="1"/>
        <pt x="154" y="0" on="1"/>
        <pt x="79" y="0" on="1"/>
      </contour>
      <contour>
        <pt x="194" y="684" on="1"/>
        <pt x="194" y="745" on="1"/>
        <pt x="332" y="688" on="1"/>
        <pt x="471" y="745" on="1"/>
        <pt x="471" y="684" on="1"/>
        <pt x="332" y="626" on="1"/>
      </contour>
    </TTGlyph>
    <TTGlyph name="Ncommaaccent" xMin="84" yMin="-220" xMax="655" yMax="740">
      <contour>
        <pt x="346" y="-68" on="1"/>
        <pt x="433" y="-68" on="1"/>
        <pt x="367" y="-220" on="1"/>
        <pt x="298" y="-220" on="1"/>
      </contour>
      <contour>
        <pt x="84" y="740" on="1"/>
        <pt x="159" y="740" on="1"/>
        <pt x="517" y="223" on="1"/>
        <pt x="571" y="136" on="1"/>
        <pt x="577" y="136" on="1"/>
        <pt x="577" y="740" on="1"/>
        <pt x="655" y="740" on="1"/>
        <pt x="655" y="0" on="1"/>
        <pt x="579" y="0" on="1"/>
        <pt x="220" y="516" on="1"/>
        <pt x="167" y="603" on="1"/>
        <pt x="161" y="603" on="1"/>
        <pt x="161" y="0" on="1"/>
        <pt x="84" y="0" on="1"/>
      </contour>
    </TTGlyph>
    <TTGlyph name="Ncommaaccent.sc" xMin="79" yMin="-172" xMax="580" yMax="577">
      <contour>
        <pt x="79" y="577" on="1"/>
        <pt x="148" y="577" on="1"/>
        <pt x="451" y="192" on="1"/>
        <pt x="500" y="123" on="1"/>
        <pt x="505" y="124" on="1"/>
        <pt x="505" y="577" on="1"/>
        <pt x="580" y="577" on="1"/>
        <pt x="580" y="0" on="1"/>
        <pt x="511" y="0" on="1"/>
        <pt x="209" y="385" on="1"/>
        <pt x="159" y="453" on="1"/>
        <pt x="154" y="453" on="1"/>
        <pt x="154" y="0" on="1"/>
        <pt x="79" y="0" on="1"/>
      </contour>
      <contour>
        <pt x="304" y="-54" on="1"/>
        <pt x="388" y="-54" on="1"/>
        <pt x="328" y="-172" on="1"/>
        <pt x="263" y="-172" on="1"/>
      </contour>
    </TTGlyph>
    <TTGlyph name="Ndotaccent" xMin="84" yMin="0" xMax="655" yMax="915">
      <contour>
        <pt x="369" y="809" on="1"/>
        <pt x="343" y="809" on="0"/>
        <pt x="315" y="833" on="0"/>
        <pt x="315" y="861" on="1"/>
        <pt x="315" y="890" on="0"/>
        <pt x="343" y="915" on="0"/>
        <pt x="369" y="915" on="1"/>
        <pt x="395" y="915" on="0"/>
        <pt x="424" y="890" on="0"/>
        <pt x="424" y="861" on="1"/>
        <pt x="424" y="809" on="0"/>
      </contour>
      <contour>
        <pt x="84" y="740" on="1"/>
        <pt x="159" y="740" on="1"/>
        <pt x="517" y="223" on="1"/>
        <pt x="571" y="136" on="1"/>
        <pt x="577" y="136" on="1"/>
        <pt x="577" y="740" on="1"/>
        <pt x="655" y="740" on="1"/>
        <pt x="655" y="0" on="1"/>
        <pt x="579" y="0" on="1"/>
        <pt x="220" y="516" on="1"/>
        <pt x="167" y="603" on="1"/>
        <pt x="161" y="603" on="1"/>
        <pt x="161" y="0" on="1"/>
        <pt x="84" y="0" on="1"/>
      </contour>
    </TTGlyph>
    <TTGlyph name="Ndotaccent.sc" xMin="79" yMin="0" xMax="580" yMax="726">
      <contour>
        <pt x="79" y="577" on="1"/>
        <pt x="148" y="577" on="1"/>
        <pt x="451" y="192" on="1"/>
        <pt x="500" y="123" on="1"/>
        <pt x="505" y="124" on="1"/>
        <pt x="505" y="577" on="1"/>
        <pt x="580" y="577" on="1"/>
        <pt x="580" y="0" on="1"/>
        <pt x="511" y="0" on="1"/>
        <pt x="209" y="385" on="1"/>
        <pt x="159" y="453" on="1"/>
        <pt x="154" y="453" on="1"/>
        <pt x="154" y="0" on="1"/>
        <pt x="79" y="0" on="1"/>
      </contour>
      <contour>
        <pt x="330" y="630" on="1"/>
        <pt x="305" y="630" on="0"/>
        <pt x="280" y="653" on="0"/>
        <pt x="280" y="679" on="1"/>
        <pt x="280" y="726" on="0"/>
        <pt x="330" y="726" on="1"/>
        <pt x="381" y="726" on="0"/>
        <pt x="381" y="679" on="1"/>
        <pt x="381" y="630" on="0"/>
      </contour>
    </TTGlyph>
    <TTGlyph name="Ntilde" xMin="84" yMin="0" xMax="655" yMax="930">
      <contour>
        <pt x="188" y="856" on="1"/>
        <pt x="213" y="891" on="0"/>
        <pt x="276" y="930" on="0"/>
        <pt x="306" y="930" on="1"/>
        <pt x="328" y="930" on="0"/>
        <pt x="367" y="917" on="0"/>
        <pt x="404" y="901" on="0"/>
        <pt x="441" y="888" on="0"/>
        <pt x="462" y="888" on="1"/>
        <pt x="502" y="888" on="0"/>
        <pt x="541" y="927" on="1"/>
        <pt x="566" y="902" on="1"/>
        <pt x="543" y="866" on="0"/>
        <pt x="478" y="827" on="0"/>
        <pt x="446" y="827" on="1"/>
        <pt x="425" y="827" on="0"/>
        <pt x="387" y="839" on="0"/>
        <pt x="350" y="854" on="0"/>
        <pt x="312" y="867" on="0"/>
        <pt x="293" y="867" on="1"/>
        <pt x="250" y="867" on="0"/>
        <pt x="212" y="830" on="1"/>
      </contour>
      <contour>
        <pt x="84" y="740" on="1"/>
        <pt x="159" y="740" on="1"/>
        <pt x="517" y="223" on="1"/>
        <pt x="571" y="136" on="1"/>
        <pt x="577" y="136" on="1"/>
        <pt x="577" y="740" on="1"/>
        <pt x="655" y="740" on="1"/>
        <pt x="655" y="0" on="1"/>
        <pt x="579" y="0" on="1"/>
        <pt x="220" y="516" on="1"/>
        <pt x="167" y="603" on="1"/>
        <pt x="161" y="603" on="1"/>
        <pt x="161" y="0" on="1"/>
        <pt x="84" y="0" on="1"/>
      </contour>
    </TTGlyph>
    <TTGlyph name="Ntilde.sc" xMin="79" yMin="0" xMax="580" yMax="733">
      <contour>
        <pt x="168" y="668" on="1"/>
        <pt x="190" y="699" on="0"/>
        <pt x="246" y="733" on="0"/>
        <pt x="274" y="733" on="1"/>
        <pt x="294" y="733" on="0"/>
        <pt x="328" y="723" on="0"/>
        <pt x="361" y="712" on="0"/>
        <pt x="395" y="702" on="0"/>
        <pt x="413" y="702" on="1"/>
        <pt x="449" y="702" on="0"/>
        <pt x="484" y="731" on="1"/>
        <pt x="505" y="711" on="1"/>
        <pt x="484" y="679" on="0"/>
        <pt x="427" y="644" on="0"/>
        <pt x="398" y="644" on="1"/>
        <pt x="379" y="644" on="0"/>
        <pt x="344" y="654" on="0"/>
        <pt x="311" y="666" on="0"/>
        <pt x="277" y="676" on="0"/>
        <pt x="260" y="676" on="1"/>
        <pt x="222" y="676" on="0"/>
        <pt x="188" y="646" on="1"/>
      </contour>
      <contour>
        <pt x="79" y="577" on="1"/>
        <pt x="148" y="577" on="1"/>
        <pt x="451" y="192" on="1"/>
        <pt x="500" y="123" on="1"/>
        <pt x="505" y="124" on="1"/>
        <pt x="505" y="577" on="1"/>
        <pt x="580" y="577" on="1"/>
        <pt x="580" y="0" on="1"/>
        <pt x="511" y="0" on="1"/>
        <pt x="209" y="385" on="1"/>
        <pt x="159" y="453" on="1"/>
        <pt x="154" y="453" on="1"/>
        <pt x="154" y="0" on="1"/>
        <pt x="79" y="0" on="1"/>
      </contour>
    </TTGlyph>
    <TTGlyph name="O" xMin="48" yMin="-10" xMax="654" yMax="750">
      <contour>
        <pt x="351" y="-10" on="1"/>
        <pt x="202" y="-10" on="0"/>
        <pt x="48" y="180" on="0"/>
        <pt x="48" y="369" on="1"/>
        <pt x="48" y="559" on="0"/>
        <pt x="202" y="750" on="0"/>
        <pt x="351" y="750" on="1"/>
        <pt x="500" y="750" on="0"/>
        <pt x="654" y="558" on="0"/>
        <pt x="654" y="369" on="1"/>
        <pt x="654" y="180" on="0"/>
        <pt x="500" y="-10" on="0"/>
      </contour>
      <contour>
        <pt x="351" y="63" on="1"/>
        <pt x="462" y="63" on="0"/>
        <pt x="567" y="211" on="0"/>
        <pt x="567" y="369" on="1"/>
        <pt x="567" y="527" on="0"/>
        <pt x="461" y="677" on="0"/>
        <pt x="351" y="677" on="1"/>
        <pt x="241" y="677" on="0"/>
        <pt x="135" y="528" on="0"/>
        <pt x="135" y="369" on="1"/>
        <pt x="135" y="211" on="0"/>
        <pt x="240" y="63" on="0"/>
      </contour>
    </TTGlyph>
    <TTGlyph name="O.sc" xMin="47" yMin="-8" xMax="584" yMax="585">
      <contour>
        <pt x="316" y="-8" on="1"/>
        <pt x="185" y="-8" on="0"/>
        <pt x="47" y="141" on="0"/>
        <pt x="47" y="288" on="1"/>
        <pt x="47" y="436" on="0"/>
        <pt x="185" y="585" on="0"/>
        <pt x="316" y="585" on="1"/>
        <pt x="447" y="585" on="0"/>
        <pt x="584" y="436" on="0"/>
        <pt x="584" y="288" on="1"/>
        <pt x="584" y="141" on="0"/>
        <pt x="447" y="-8" on="0"/>
      </contour>
      <contour>
        <pt x="316" y="61" on="1"/>
        <pt x="413" y="61" on="0"/>
        <pt x="502" y="170" on="0"/>
        <pt x="502" y="288" on="1"/>
        <pt x="502" y="406" on="0"/>
        <pt x="412" y="517" on="0"/>
        <pt x="316" y="517" on="1"/>
        <pt x="220" y="517" on="0"/>
        <pt x="131" y="407" on="0"/>
        <pt x="131" y="288" on="1"/>
        <pt x="131" y="170" on="0"/>
        <pt x="219" y="61" on="0"/>
      </contour>
    </TTGlyph>
    <TTGlyph name="OE" xMin="48" yMin="-7" xMax="877" yMax="747">
      <contour>
        <pt x="356" y="-7" on="1"/>
        <pt x="206" y="-7" on="0"/>
        <pt x="48" y="182" on="0"/>
        <pt x="48" y="369" on="1"/>
        <pt x="48" y="557" on="0"/>
        <pt x="207" y="747" on="0"/>
        <pt x="356" y="747" on="1"/>
        <pt x="382" y="747" on="0"/>
        <pt x="433" y="744" on="0"/>
        <pt x="455" y="740" on="1"/>
        <pt x="868" y="740" on="1"/>
        <pt x="868" y="668" on="1"/>
        <pt x="538" y="668" on="1"/>
        <pt x="538" y="411" on="1"/>
        <pt x="843" y="411" on="1"/>
        <pt x="843" y="341" on="1"/>
        <pt x="538" y="341" on="1"/>
        <pt x="538" y="72" on="1"/>
        <pt x="877" y="72" on="1"/>
        <pt x="877" y="0" on="1"/>
        <pt x="455" y="0" on="1"/>
        <pt x="434" y="-3" on="0"/>
        <pt x="382" y="-7" on="0"/>
      </contour>
      <contour>
        <pt x="359" y="66" on="1"/>
        <pt x="384" y="66" on="0"/>
        <pt x="433" y="69" on="0"/>
        <pt x="453" y="74" on="1"/>
        <pt x="453" y="666" on="1"/>
        <pt x="433" y="671" on="0"/>
        <pt x="384" y="674" on="0"/>
        <pt x="359" y="674" on="1"/>
        <pt x="244" y="674" on="0"/>
        <pt x="134" y="526" on="0"/>
        <pt x="134" y="369" on="1"/>
        <pt x="134" y="212" on="0"/>
        <pt x="243" y="66" on="0"/>
      </contour>
    </TTGlyph>
    <TTGlyph name="OE.sc" xMin="48" yMin="-6" xMax="786" yMax="583">
      <contour>
        <pt x="320" y="-6" on="1"/>
        <pt x="188" y="-6" on="0"/>
        <pt x="48" y="142" on="0"/>
        <pt x="48" y="288" on="1"/>
        <pt x="48" y="434" on="0"/>
        <pt x="188" y="583" on="0"/>
        <pt x="320" y="583" on="1"/>
        <pt x="369" y="583" on="0"/>
        <pt x="408" y="577" on="1"/>
        <pt x="778" y="577" on="1"/>
        <pt x="778" y="511" on="1"/>
        <pt x="489" y="511" on="1"/>
        <pt x="489" y="324" on="1"/>
        <pt x="757" y="324" on="1"/>
        <pt x="757" y="261" on="1"/>
        <pt x="489" y="261" on="1"/>
        <pt x="489" y="66" on="1"/>
        <pt x="786" y="66" on="1"/>
        <pt x="786" y="0" on="1"/>
        <pt x="408" y="0" on="1"/>
        <pt x="389" y="-3" on="0"/>
        <pt x="343" y="-6" on="0"/>
      </contour>
      <contour>
        <pt x="324" y="62" on="1"/>
        <pt x="346" y="62" on="0"/>
        <pt x="389" y="65" on="0"/>
        <pt x="407" y="69" on="1"/>
        <pt x="407" y="508" on="1"/>
        <pt x="389" y="512" on="0"/>
        <pt x="346" y="514" on="0"/>
        <pt x="323" y="514" on="1"/>
        <pt x="223" y="514" on="0"/>
        <pt x="131" y="406" on="0"/>
        <pt x="131" y="288" on="1"/>
        <pt x="131" y="170" on="0"/>
        <pt x="224" y="62" on="0"/>
      </contour>
    </TTGlyph>
    <TTGlyph name="Oacute" xMin="48" yMin="-10" xMax="654" yMax="942">
      <contour>
        <pt x="314" y="801" on="1"/>
        <pt x="388" y="942" on="1"/>
        <pt x="476" y="942" on="1"/>
        <pt x="379" y="795" on="1"/>
      </contour>
      <contour>
        <pt x="351" y="-10" on="1"/>
        <pt x="202" y="-10" on="0"/>
        <pt x="48" y="180" on="0"/>
        <pt x="48" y="369" on="1"/>
        <pt x="48" y="559" on="0"/>
        <pt x="202" y="750" on="0"/>
        <pt x="351" y="750" on="1"/>
        <pt x="500" y="750" on="0"/>
        <pt x="654" y="558" on="0"/>
        <pt x="654" y="369" on="1"/>
        <pt x="654" y="180" on="0"/>
        <pt x="500" y="-10" on="0"/>
      </contour>
      <contour>
        <pt x="351" y="63" on="1"/>
        <pt x="462" y="63" on="0"/>
        <pt x="567" y="211" on="0"/>
        <pt x="567" y="369" on="1"/>
        <pt x="567" y="527" on="0"/>
        <pt x="461" y="677" on="0"/>
        <pt x="351" y="677" on="1"/>
        <pt x="241" y="677" on="0"/>
        <pt x="135" y="528" on="0"/>
        <pt x="135" y="369" on="1"/>
        <pt x="135" y="211" on="0"/>
        <pt x="240" y="63" on="0"/>
      </contour>
    </TTGlyph>
    <TTGlyph name="Oacute.sc" xMin="48" yMin="-8" xMax="585" yMax="742">
      <contour>
        <pt x="316" y="-8" on="1"/>
        <pt x="185" y="-8" on="0"/>
        <pt x="48" y="141" on="0"/>
        <pt x="48" y="288" on="1"/>
        <pt x="48" y="436" on="0"/>
        <pt x="185" y="585" on="0"/>
        <pt x="316" y="585" on="1"/>
        <pt x="447" y="585" on="0"/>
        <pt x="585" y="436" on="0"/>
        <pt x="585" y="288" on="1"/>
        <pt x="585" y="141" on="0"/>
        <pt x="447" y="-8" on="0"/>
      </contour>
      <contour>
        <pt x="316" y="61" on="1"/>
        <pt x="413" y="61" on="0"/>
        <pt x="502" y="170" on="0"/>
        <pt x="502" y="288" on="1"/>
        <pt x="502" y="406" on="0"/>
        <pt x="412" y="517" on="0"/>
        <pt x="316" y="517" on="1"/>
        <pt x="220" y="517" on="0"/>
        <pt x="131" y="407" on="0"/>
        <pt x="131" y="288" on="1"/>
        <pt x="131" y="170" on="0"/>
        <pt x="220" y="61" on="0"/>
      </contour>
      <contour>
        <pt x="281" y="627" on="1"/>
        <pt x="345" y="742" on="1"/>
        <pt x="429" y="742" on="1"/>
        <pt x="343" y="622" on="1"/>
      </contour>
    </TTGlyph>
</ttFont>
